Bold.sfdir
StartChar: exclam
Encoding: 33 33 1
Width: 367
Flags: MW
LayerCount: 2
Fore
SplineSet
117 695 m 1xe0
 248 695 l 1xe0
 235 217 l 1
 130 217 l 1xd0
 118 652 l 5
 117 695 l 1xe0
EndSplineSet
Refer: 14 46 N 1 0 0 1 31 0 2
EndChar
StartChar: quotedbl
Encoding: 34 34 2
Width: 550
Flags: MW
LayerCount: 2
Fore
SplineSet
114 695 m 1
 251 695 l 1
 219 397 l 1
 219 397 l 1
 146 397 l 1
 114 695 l 1
297 695 m 1
 434 695 l 1
 402 397 l 1
 329 397 l 1
 329 397 l 1
 297 695 l 1
EndSplineSet
EndChar
StartChar: numbersign
Encoding: 35 35 3
Width: 917
Flags: MW
LayerCount: 2
Fore
SplineSet
61 145 m 0
 61 161 67 169 75 174 c 0
 86 181 101 181 115 181 c 2
 275 181 l 1
 324 346 l 1
 112 346 l 2
 93 346 79 349 70 357 c 0
 64 363 61 370 61 382 c 0
 61 395 66 404 72 409 c 0
 86 420 108 419 115 419 c 2
 347 419 l 1
 421 662 l 2
 424 669 426 675 429 679 c 0
 437 692 445 694 457 694 c 0
 477 694 493 676 493 659 c 0
 493 656 491 646 487 632 c 2
 423 419 l 1
 585 419 l 1
 659 660 l 2
 663 671 667 679 671 684 c 0
 678 692 685 694 696 694 c 0
 716 694 731 676 731 659 c 0
 731 655 727 641 722 622 c 2
 661 419 l 1
 805 419 l 2
 818 419 831 418 841 411 c 0
 849 406 854 396 854 382 c 0
 854 368 848 359 841 354 c 0
 829 346 812 346 805 346 c 2
 639 346 l 1
 590 181 l 1
 802 181 l 2
 820 181 834 179 843 172 c 0
 850 167 854 158 854 145 c 0
 854 132 850 123 843 118 c 0
 831 109 813 109 800 109 c 2
 567 109 l 1
 496 -126 l 2
 489 -144 484 -155 478 -160 c 0
 472 -165 466 -166 457 -166 c 0
 435 -166 421 -148 421 -130 c 0
 421 -127 421 -122 427 -103 c 2
 491 109 l 1
 329 109 l 1
 256 -132 l 2
 251 -144 247 -151 243 -156 c 0
 236 -164 229 -166 219 -166 c 0
 196 -166 183 -148 183 -130 c 0
 183 -127 184 -123 189 -106 c 2
 253 109 l 1
 112 109 l 2
 97 109 86 111 77 115 c 0
 67 120 61 129 61 145 c 0
351 181 m 1
 514 181 l 1
 563 346 l 1
 400 346 l 1
 351 181 l 1
EndSplineSet
EndChar
StartChar: dollar
Encoding: 36 36 4
Width: 550
Flags: MW
LayerCount: 2
Fore
SplineSet
48 58 m 1
 67 168 l 1
 115 131 150 105 238 91 c 1
 238 294 l 1
 235 295 233 295 230 296 c 0
 102 328 60 424 60 502 c 0
 60 664 165 696 238 704 c 1
 238 750 l 1
 310 750 l 1
 310 704 l 1
 373 700 419 681 469 650 c 1
 451 545 l 1
 419 567 380 597 310 603 c 1
 310 429 l 1
 441 399 488 294 488 206 c 0
 488 92 440 3 310 -9 c 1
 310 -56 l 1
 238 -56 l 1
 238 -10 l 1
 235 -7 153 -11 48 58 c 1
178 525 m 0
 178 467 230 450 238 446 c 1
 238 602 l 1
 237 602 l 1
 226 599 178 587 178 525 c 0
310 94 m 1
 324 98 371 111 371 183 c 0
 371 239 334 266 311 276 c 1
 310 246 l 1
 310 94 l 1
EndSplineSet
EndChar
StartChar: percent
Encoding: 37 37 5
Width: 1029
Flags: MW
LayerCount: 2
Fore
SplineSet
60 549 m 0
 60 609 72 667 111 705 c 0
 139 733 181 750 243 750 c 0
 303 750 344 732 371 705 c 0
 411 665 422 603 422 547 c 0
 422 488 410 435 378 399 c 0
 350 367 305 347 241 347 c 0
 186 347 140 362 108 395 c 0
 77 427 60 477 60 549 c 0
180 541 m 2
 181 509 180 470 194 445 c 0
 203 430 217 420 241 420 c 0
 263 420 278 431 288 447 c 0
 306 477 307 523 307 549 c 0
 307 594 302 641 278 663 c 0
 269 672 257 677 241 677 c 0
 221 677 207 670 198 659 c 0
 180 637 181 598 180 565 c 2
 180 541 l 2
201 -14 m 0
 201 1 209 12 216 21 c 2
 746 723 l 2
 749 727 762 750 787 750 c 0
 812 750 828 729 828 708 c 0
 828 696 823 687 815 677 c 2
 281 -32 l 2
 278 -36 265 -55 242 -55 c 0
 219 -55 201 -37 201 -14 c 0
605 147 m 0
 605 208 618 253 641 285 c 0
 673 329 724 347 788 347 c 0
 847 347 887 330 914 305 c 0
 953 268 964 213 966 162 c 2
 966 128 l 2
 964 78 952 25 916 -11 c 0
 889 -38 848 -56 786 -56 c 0
 727 -56 679 -40 647 -1 c 0
 620 32 605 80 605 147 c 0
725 138 m 2
 726 103 725 61 742 37 c 0
 751 25 765 17 786 17 c 0
 807 17 821 27 831 41 c 0
 851 70 852 119 852 146 c 0
 852 187 847 229 829 253 c 0
 819 266 806 274 786 274 c 0
 764 274 750 266 741 253 c 0
 725 231 726 194 725 162 c 2
 725 138 l 2
EndSplineSet
EndChar
StartChar: ampersand
Encoding: 38 38 6
Width: 831
Flags: MW
LayerCount: 2
Fore
SplineSet
45 148 m 0xe8
 45 243 124 284 193 332 c 1
 176 377 161 426 161 489 c 0xd8
 161 611 232 717 338 717 c 0
 431 717 511 643 511 553 c 0
 511 515 490 479 458 445 c 0
 422 406 373 370 325 336 c 1
 377 248 456 175 465 163 c 1
 466 163 l 1
 512 207 548 249 564 281 c 0
 585 324 613 376 632 444 c 1
 732 417 l 1
 716 357 692 295 655 235 c 0
 627 189 591 144 547 102 c 1
 563 94 579 88 596 84 c 0
 610 81 625 78 643 78 c 0
 668 78 690 81 710 85 c 0
 731 89 750 95 768 101 c 1
 768 -5 l 1
 750 -10 732 -14 714 -17 c 0
 691 -21 667 -23 644 -23 c 0
 600 -23 562 -14 532 -4 c 0
 492 10 477 18 452 33 c 9
 452 33 l 17
 382 -9 298 -22 247 -22 c 0
 129 -22 45 55 45 148 c 0xe8
182 174 m 0xe8
 182 134 195 78 249 78 c 0
 292 78 336 91 363 100 c 1
 317 145 270 194 226 267 c 1
 205 252 182 231 182 174 c 0xe8
265 546 m 0
 265 491 281 436 293 403 c 1
 316 420 350 444 373 479 c 0
 387 500 396 524 396 552 c 0
 396 584 384 644 336 644 c 0xd8
 308 644 265 619 265 546 c 0
EndSplineSet
EndChar
StartChar: quotesingle
Encoding: 39 39 7
Width: 306
Flags: MW
LayerCount: 2
Fore
SplineSet
83 695 m 1
 220 695 l 1
 200 509 l 1
 188 397 l 1
 188 397 l 1
 115 397 l 1
 115 397 l 1
 83 695 l 1
EndSplineSet
EndChar
StartChar: parenleft
Encoding: 40 40 8
Width: 428
Flags: MW
LayerCount: 2
Fore
SplineSet
85 263 m 0
 85 458 147 633 293 750 c 1
 365 750 l 1
 343 723 316 688 291 637 c 4
 254 561 222 447 222 264 c 0
 222 -98 352 -196 365 -223 c 1
 293 -223 l 1
 147 -105 85 72 85 263 c 0
EndSplineSet
EndChar
StartChar: parenright
Encoding: 41 41 9
Width: 428
Flags: MW
LayerCount: 2
Fore
SplineSet
60 -223 m 1
 80 -199 103 -169 126 -127 c 4
 167 -51 204 65 204 264 c 0
 204 624 73 725 60 750 c 1
 133 750 l 1
 278 633 340 456 340 263 c 0
 340 70 278 -106 133 -223 c 1
 60 -223 l 1
EndSplineSet
EndChar
StartChar: asterisk
Encoding: 42 42 10
Width: 550
Flags: MW
LayerCount: 2
Fore
SplineSet
67 426 m 0
 67 447 83 462 96 466 c 2
 234 514 l 1
 234 514 l 1
 88 563 67 562 67 602 c 0
 67 630 90 660 120 660 c 0
 145 660 157 638 254 550 c 1
 242 605 223 689 223 708 c 0
 223 736 252 750 274 750 c 0
 298 750 326 734 326 706 c 0
 326 691 320 675 294 550 c 1
 408 656 408 660 428 660 c 0
 458 660 481 630 481 602 c 0
 481 582 477 571 452 562 c 2
 314 514 l 1
 314 514 l 1
 459 465 481 467 481 426 c 0
 481 398 458 369 428 369 c 0
 403 369 391 391 294 478 c 1
 306 427 326 329 326 322 c 0
 326 294 298 278 274 278 c 0
 249 278 222 296 222 322 c 0
 222 338 231 366 254 478 c 1
 141 372 140 369 121 369 c 0
 90 369 67 398 67 426 c 0
EndSplineSet
EndChar
StartChar: plus
Encoding: 43 43 11
Width: 672
Flags: MW
LayerCount: 2
Fore
SplineSet
60 264 m 0
 60 279 71 293 86 298 c 0
 95 301 104 300 112 300 c 2
 299 300 l 1
 299 486 l 2
 299 495 298 504 300 512 c 0
 305 527 319 539 335 539 c 0
 351 539 365 528 369 513 c 0
 372 504 371 495 371 487 c 2
 371 300 l 1
 557 300 l 2
 566 300 575 301 583 298 c 0
 598 294 609 280 609 264 c 0
 609 248 598 234 583 229 c 0
 575 227 566 227 558 227 c 2
 371 227 l 1
 371 41 l 2
 372 22 369 6 359 -3 c 4
 353 -8 345 -11 335 -11 c 0
 319 -11 305 0 300 15 c 0
 298 23 299 32 299 40 c 2
 299 227 l 1
 113 227 l 2
 111 227 108 227 106 227 c 0
 99 227 93 228 87 229 c 0
 72 234 60 248 60 264 c 0
EndSplineSet
EndChar
StartChar: hyphen
Encoding: 45 45 13
Width: 367
Flags: MW
LayerCount: 2
Fore
SplineSet
12 200 m 1
 12 273 l 1
 305 273 l 1
 305 200 l 1
 12 200 l 1
EndSplineSet
EndChar
StartChar: slash
Encoding: 47 47 15
Width: 550
Flags: MW
LayerCount: 2
Fore
SplineSet
61 -186 m 0
 61 -175 66 -165 69 -156 c 2
 408 704 l 2
 414 717 422 750 451 750 c 0
 470 750 487 736 487 714 c 0
 487 704 483 695 480 687 c 2
 141 -173 l 2
 136 -184 132 -201 121 -212 c 0
 116 -217 110 -221 102 -222 c 0
 100 -222 99 -222 97 -222 c 0
 80 -222 61 -208 61 -186 c 0
EndSplineSet
EndChar
StartChar: zero
Encoding: 48 48 16
Width: 550
Flags: MW
LayerCount: 2
Fore
SplineSet
42 344 m 0
 42 356 42 368 42 380 c 0
 44 509 60 664 195 706 c 0
 218 713 244 717 274 717 c 0
 331 717 393 700 435 654 c 0
 506 576 506 431 506 362 c 2
 506 352 l 2
 506 213 504 32 351 -12 c 4
 328 -18 303 -22 273 -22 c 0
 52 -22 42 180 42 344 c 0
179 352 m 0
 179 155 186 91 238 60 c 0
 248 55 260 50 274 50 c 0
 280 50 306 51 329 76 c 0
 370 120 367 200 369 357 c 0
 369 368 370 380 370 393 c 0
 370 468 366 559 348 595 c 0
 334 623 306 644 274 644 c 0
 180 644 179 516 179 396 c 0
 179 381 179 366 179 352 c 0
EndSplineSet
EndChar
StartChar: one
Encoding: 49 49 17
Width: 550
Flags: MW
LayerCount: 2
Fore
SplineSet
76 575 m 1
 76 648 l 1
 192 648 264 670 320 717 c 1
 355 717 l 1
 355 73 l 1
 473 73 l 1
 473 0 l 1
 91 0 l 1
 91 73 l 1
 217 73 l 1
 217 591 l 1
 171 579 124 575 76 575 c 1
EndSplineSet
EndChar
StartChar: two
Encoding: 50 50 18
Width: 550
Flags: MW
LayerCount: 2
Fore
SplineSet
45 574 m 1
 73 643 130 717 258 717 c 0
 411 717 494 603 494 487 c 0
 494 385 419 333 287 229 c 2
 149 106 l 1
 494 108 l 1
 494 0 l 1
 54 0 l 1
 54 100 l 1
 207 254 l 2
 252 297 353 378 353 485 c 0
 353 552 315 617 242 617 c 0
 163 617 132 551 114 486 c 1
 45 574 l 1
EndSplineSet
EndChar
StartChar: three
Encoding: 51 51 19
Width: 550
Flags: MW
LayerCount: 2
Fore
SplineSet
45 58 m 1
 62 151 l 1
 94 124 128 102 168 88 c 0
 195 79 224 73 257 73 c 0
 292 73 315 83 330 99 c 0
 353 124 355 162 355 197 c 2
 355 216 l 2xe8
 355 261 346 289 333 307 c 0
 306 345 262 337 243 339 c 2
 183 339 l 1
 183 411 l 1
 219 414 232 414 244 417 c 0
 288 426 332 470 332 547 c 0
 332 572 329 596 314 611 c 0
 303 622 287 628 261 628 c 0xf0
 230 628 205 621 184 610 c 0
 162 599 146 584 134 571 c 0
 123 559 116 548 113 543 c 1
 60 619 l 1
 87 652 121 680 164 698 c 0
 193 710 226 717 264 717 c 0
 342 717 391 698 422 670 c 0
 463 634 472 583 472 544 c 0xf0
 472 501 458 468 439 443 c 0
 414 409 380 389 361 378 c 1
 381 373 431 361 466 319 c 0
 488 293 503 256 503 203 c 0
 503 133 484 62 422 19 c 4
 386 -6 334 -22 263 -22 c 0
 223 -22 187 -16 154 -5 c 0
 114 9 78 30 45 58 c 1
EndSplineSet
EndChar
StartChar: four
Encoding: 52 52 20
Width: 550
Flags: MW
LayerCount: 2
Fore
SplineSet
30 152 m 1
 30 247 l 1
 30 247 l 1
 273 695 l 1
 428 695 l 1
 428 247 l 1
 518 247 l 1
 518 152 l 1
 428 152 l 1
 428 -0 l 1
 304 -0 l 1
 304 152 l 1
 30 152 l 1
135 247 m 1
 309 247 l 1
 309 592 l 1
 291 528 254 466 135 247 c 1
EndSplineSet
EndChar
StartChar: five
Encoding: 53 53 21
Width: 550
Flags: MW
LayerCount: 2
Fore
SplineSet
36 82 m 1
 89 169 l 1
 95 159 100 150 107 140 c 0
 123 118 143 102 164 91 c 0
 189 78 217 72 242 72 c 0
 286 72 311 85 326 108 c 0
 344 135 346 175 346 220 c 2
 346 248 l 2
 346 288 344 329 329 354 c 0
 320 369 305 379 282 379 c 0
 210 379 185 296 184 296 c 2
 82 296 l 1
 82 695 l 1
 457 695 l 1
 457 594 l 1
 213 594 l 1
 213 435 l 1
 233 444 252 452 287 452 c 0
 345 452 393 438 429 406 c 4
 470 369 494 309 494 219 c 0
 494 134 470 78 432 41 c 0
 384 -6 314 -22 246 -22 c 0
 205 -22 170 -14 142 -2 c 0
 83 22 50 62 36 82 c 1
EndSplineSet
EndChar
StartChar: six
Encoding: 54 54 22
Width: 550
Flags: MW
LayerCount: 2
Fore
SplineSet
45 342 m 0
 45 501 77 566 105 608 c 0
 154 682 237 717 335 717 c 0
 373 717 396 712 432 696 c 1
 432 604 l 1
 401 619 377 628 338 628 c 0
 266 628 230 590 217 568 c 0
 200 539 186 489 186 391 c 1
 207 441 247 493 321 493 c 0
 405 493 439 455 461 424 c 0
 499 368 503 314 503 250 c 2
 503 244 l 2
 503 189 502 127 467 71 c 0
 408 -20 324 -22 277 -22 c 0
 201 -22 150 5 116 46 c 0
 48 127 45 262 45 342 c 0
187 253 m 0
 187 245 187 237 187 229 c 4
 188 148 200 72 280 72 c 0
 344 72 359 117 362 170 c 0
 363 193 362 217 363 240 c 2
 363 274 l 2
 362 313 363 351 352 378 c 0
 342 403 322 420 282 420 c 0
 217 420 193 356 188 288 c 0
 187 276 187 265 187 253 c 0
EndSplineSet
EndChar
StartChar: seven
Encoding: 55 55 23
Width: 550
Flags: MW
LayerCount: 2
Fore
SplineSet
45 587 m 1
 45 695 l 1
 503 695 l 1
 503 594 l 1
 358 422 284 200 284 -11 c 1
 142 -11 l 1
 142 214 238 433 424 588 c 1
 45 587 l 1
EndSplineSet
EndChar
StartChar: eight
Encoding: 56 56 24
Width: 550
Flags: MW
LayerCount: 2
Fore
SplineSet
45 201 m 0xf2
 45 287 82 351 169 375 c 1
 147 384 60 406 60 523 c 0
 60 620 103 717 274 717 c 2
 275 717 l 2
 446 717 488 620 488 522 c 0xec
 488 394 380 379 379 375 c 1
 466 351 503 287 503 201 c 0
 503 89 457 -22 274 -22 c 0
 91 -22 45 90 45 201 c 0xf2
185 190 m 2
 186 152 187 116 208 94 c 0
 221 81 241 73 273 73 c 0
 301 73 321 80 334 90 c 4
 367 116 363 166 364 198 c 2
 364 219 l 2xf2
 363 260 359 295 340 316 c 0
 327 331 306 339 274 339 c 0
 242 339 222 330 209 316 c 0
 182 287 186 239 185 213 c 2
 185 190 l 2
188 511 m 2xec
 188 475 193 449 208 432 c 0
 221 418 242 411 273 411 c 0
 306 411 326 419 339 432 c 0
 358 452 360 482 360 512 c 2
 360 530 l 2
 360 562 356 586 345 602 c 0
 333 620 311 628 275 628 c 0
 243 628 223 621 210 610 c 0
 187 590 189 557 188 529 c 2
 188 511 l 2xec
EndSplineSet
EndChar
StartChar: nine
Encoding: 57 57 25
Width: 550
Flags: MW
LayerCount: 2
Fore
SplineSet
45 443 m 0
 45 513 45 573 88 632 c 0
 124 682 172 717 276 717 c 0
 342 717 390 695 423 662 c 0
 500 585 503 444 503 359 c 0
 503 255 494 124 412 45 c 0
 362 -3 292 -22 226 -22 c 0
 164 -22 124 -5 79 26 c 1
 127 110 l 1
 157 87 181 73 226 73 c 0
 274 73 315 96 335 131 c 0
 350 159 362 213 362 296 c 2
 362 305 l 1
 346 264 308 202 227 202 c 0
 143 202 107 241 86 273 c 0
 49 328 45 381 45 443 c 0
185 450 m 2
 187 335 191 318 207 298 c 0
 222 281 244 275 266 275 c 0
 290 275 320 284 340 324 c 4
 353 350 362 389 362 448 c 0
 362 525 361 628 274 628 c 0
 251 628 233 623 221 614 c 0
 181 586 188 522 185 482 c 2
 185 450 l 2
EndSplineSet
EndChar
StartChar: less
Encoding: 60 60 28
Width: 855
Flags: MW
LayerCount: 2
Fore
SplineSet
92 250 m 3
 92 274 115 284 128 291 c 2
 700 593 l 2
 707.89294299 596.946471495 716.597146022 601 726 601 c 0
 745 601 761 584 761 565 c 0
 761 539 734 528 725 524 c 2
 205 250 l 1
 240 232 l 1
 725 -23 l 2
 734 -28 761 -40 761 -65 c 0
 761 -84 745 -101 726 -101 c 0
 717 -101 708 -97 700 -93 c 2
 129 208 l 2
 116 215 92 225 92 250 c 3
EndSplineSet
EndChar
StartChar: equal
Encoding: 61 61 29
Width: 672
Flags: MW
LayerCount: 2
Fore
SplineSet
61 382 m 0
 61 395 66 403 72 408 c 0
 85 419 105 418 106 419 c 1
 564 419 l 1
 576 417 589 415 598 408 c 0
 605 403 609 395 609 382 c 0
 609 368 604 360 597 355 c 0
 584 345 566 347 565 346 c 1
 104 346 l 2
 93 347 80 349 71 356 c 0
 65 361 61 369 61 382 c 0
61 145 m 0
 61 159 66 167 73 172 c 0
 86 182 104 180 104 181 c 1
 114 181 l 1
 565 181 l 2
 575 180 586 179 595 174 c 0
 603 169 609 160 609 145 c 0
 609 130 602 121 594 116 c 0
 581 108 564 110 564 109 c 1
 105 109 l 2
 94 110 81 112 72 119 c 0
 65 124 61 132 61 145 c 0
EndSplineSet
EndChar
StartChar: greater
Encoding: 62 62 30
Width: 672
Flags: MW
LayerCount: 2
Fore
SplineSet
91 -61 m 0
 91 -43 103 -34 114 -25 c 2
 484 264 l 1
 464 278 444 294 425 310 c 2
 114 552 l 2
 99 565 91 574 91 589 c 0
 91 610 109 624 128 624 c 0
 140 624 147 619 157 611 c 2
 551 304 l 2
 584 278 576 272 579 264 c 1
 578 251 579 245 551 224 c 2
 158 -84 l 2
 148 -91 140 -97 128 -97 c 0
 109 -97 91 -83 91 -61 c 0
EndSplineSet
EndChar
StartChar: question
Encoding: 63 63 31
Width: 519
Flags: MW
LayerCount: 2
Fore
SplineSet
60 657 m 1
 110 685 166 704 239 706 c 2
 251 706 l 2xd8
 406 706 457 644 457 557 c 0
 457 469 402 441 386 428 c 0
 296 355 296 284 296 250 c 2
 296 217 l 1
 191 217 l 1
 191 249 l 2
 191 410 292 479 311 511 c 0
 320 528 321 552 321 562 c 0
 321 621 302 633 247 633 c 0
 177 633 129 602 95 562 c 1
 60 657 l 1
EndSplineSet
Refer: 14 46 S 1 0 0 1 92 0 2
EndChar
StartChar: at
Encoding: 64 64 32
Width: 733
Flags: MW
LayerCount: 2
Fore
SplineSet
60 346 m 0
 60 531 133 706 424 706 c 0
 645 706 671 559 671 360 c 0
 671 302 668 221 609 167 c 0
 569 130 513 118 459 118 c 0
 280 118 244 237 244 349 c 0
 244 475 293 576 456 577 c 2
 492 575 l 1
 523 571 l 1
 495 625 451 633 421 633 c 0
 325 633 180 595 180 347 c 0
 180 200 230 61 428 61 c 0
 511 61 565 87 580 89 c 2
 595 90 l 1
 671 90 l 1
 617 36 532 -11 422 -11 c 0
 240 -11 60 60 60 346 c 0
365 339 m 0
 366 210 420 190 457 190 c 0
 483 190 519 203 537 249 c 0
 549 282 550 314 550 354 c 0
 550 483 495 504 458 504 c 0
 426 504 395 487 379 446 c 0
 366 412 365 380 365 339 c 0
EndSplineSet
EndChar
StartChar: A
Encoding: 65 65 33
Width: 733
Flags: MW
LayerCount: 2
Fore
SplineSet
30 0 m 1
 272 695 l 1
 459 695 l 1
 701 0 l 1
 548 0 l 1
 495 150 l 1
 218 150 l 1
 166 0 l 1
 30 0 l 1
249 237 m 1
 465 237 l 1
 370 521 l 1
 357 569 l 1
 344 512 321 457 249 237 c 1
EndSplineSet
EndChar
StartChar: B
Encoding: 66 66 34
Width: 733
Flags: MW
LayerCount: 2
Fore
SplineSet
91 0 m 1
 91 695 l 1
 344 695 l 2
 416 695 491 695 555 660 c 0
 632 619 641 547 641 514 c 0xf8
 641 394 517 369 494 363 c 1
 545 356 671 329 671 193 c 0xf4
 671 115 633 55 562 25 c 0
 531 12 499 6 466 3 c 0
 434 0 402 0 371 0 c 2
 91 0 l 1
233 87 m 1
 362 87 l 2
 430 87 479 95 509 130 c 0
 525 148 532 173 532 197 c 0xf4
 532 244 510 279 478 299 c 0
 452 314 423 320 394 323 c 0
 378 324 361 325 345 325 c 2
 234 325 l 25
 233 290 l 17
 233 87 l 1
233 398 m 1
 331 398 l 2
 396 398 453 405 483 447 c 0
 495 462 504 485 504 511 c 0xf8
 504 550 479 608 355 608 c 2
 234 608 l 25
 233 576 l 17
 233 398 l 1
EndSplineSet
EndChar
StartChar: C
Encoding: 67 67 35
Width: 703
Flags: MW
LayerCount: 2
Fore
SplineSet
60 346 m 0
 60 643 234 717 431 717 c 0
 512 717 566 705 634 682 c 1
 611 551 l 1
 574 577 529 616 429 616 c 0
 259 616 208 497 208 349 c 0
 208 203 252 78 431 78 c 0
 534 78 566 98 637 144 c 1
 646 33 l 1
 561 -13 521 -23 429 -23 c 0
 229 -23 60 59 60 346 c 0
EndSplineSet
EndChar
StartChar: D
Encoding: 68 68 36
Width: 794
Flags: MW
LayerCount: 2
Fore
SplineSet
91 -0 m 1
 91 695 l 1
 381 695 l 2
 448 695 511 687 565 664 c 0
 665 621 732 528 732 340 c 0
 732 89 598 19 458 4 c 0
 433 1 407 0 382 -0 c 2
 91 -0 l 1
236 87 m 1
 339 87 l 2
 414 87 502 90 551 166 c 0
 581 212 586 267 587 320 c 0
 587 381 588 431 571 482 c 0
 554 533 524 564 490 582 c 0
 444 606 390 608 348 608 c 2
 236 608 l 1
 236 87 l 1
EndSplineSet
EndChar
StartChar: E
Encoding: 69 69 37
Width: 642
Flags: MW
LayerCount: 2
Fore
SplineSet
91 0 m 1
 91 692 l 1x6c
 580 692 l 1
 580 587 l 1x34
 239 590 l 1
 239 407 l 1
 549 407 l 1
 549 312 l 1
 239 312 l 1
 239 107 l 1xac
 595 111 l 1
 595 0 l 1x64
 91 0 l 1
EndSplineSet
EndChar
StartChar: F
Encoding: 70 70 38
Width: 611
Flags: MW
LayerCount: 2
Fore
SplineSet
91 0 m 1
 91 692 l 1xd8
 565 692 l 1
 565 587 l 1xe8
 239 590 l 1
 239 394 l 1xd8
 519 394 l 1
 519 299 l 1
 239 299 l 1
 239 0 l 1
 91 0 l 1
EndSplineSet
EndChar
StartChar: G
Encoding: 71 71 39
Width: 733
Flags: MW
LayerCount: 2
Fore
SplineSet
60 348 m 0
 60 575 164 717 427 717 c 0
 516 717 573 703 649 668 c 1
 626 537 l 1
 595 562 544 617 428 617 c 0
 248 617 208 483 208 348 c 0
 208 205 252 78 430 78 c 0
 476 78 513 87 522 88 c 1
 522 233 l 1
 426 233 l 1
 426 328 l 1
 659 328 l 1
 659 26 l 1
 594 -1 519 -22 426 -22 c 0
 133 -22 60 156 60 348 c 0
EndSplineSet
EndChar
StartChar: H
Encoding: 72 72 40
Width: 794
Flags: MW
LayerCount: 2
Fore
SplineSet
91 0 m 1
 91 695 l 1
 239 695 l 1
 239 409 l 1
 554 409 l 1
 554 695 l 1
 702 695 l 1
 702 0 l 1
 554 0 l 1
 554 314 l 1
 239 314 l 1
 239 0 l 1
 91 0 l 1
EndSplineSet
EndChar
StartChar: J
Encoding: 74 74 42
Width: 519
Flags: MW
LayerCount: 2
Fore
SplineSet
45 19 m 1
 66 140 l 1
 80 121 113 75 183 75 c 0
 276 75 282 130 282 152 c 2
 282 695 l 1
 427 695 l 1
 427 155 l 2
 427 13 324 -22 233 -22 c 0
 177 -22 114 -12 45 19 c 1
EndSplineSet
EndChar
StartChar: K
Encoding: 75 75 43
Width: 764
Flags: MW
LayerCount: 2
Fore
SplineSet
91 0 m 1
 91 695 l 1
 221 695 l 1
 221 376 l 1
 542 695 l 1
 701 695 l 1
 424 419 l 1
 424 418 l 1
 717 0 l 1
 568 0 l 1
 336 331 l 1
 221 218 l 1
 221 0 l 1
 91 0 l 1
EndSplineSet
EndChar
StartChar: L
Encoding: 76 76 44
Width: 581
Flags: MW
LayerCount: 2
Fore
SplineSet
91 0 m 1x70
 91 695 l 1
 239 695 l 1
 239 101 l 1xb0
 534 105 l 1
 534 0 l 1x70
 91 0 l 1x70
EndSplineSet
EndChar
StartChar: M
Encoding: 77 77 45
Width: 978
Flags: MW
LayerCount: 2
Fore
SplineSet
91 -0 m 1
 91 695 l 1
 272 695 l 1
 421 327 l 2
 444 269 480 172 487 148 c 1
 488 148 l 1
 503 203 548 312 554 327 c 2
 703 695 l 1
 886 695 l 1
 886 -0 l 1
 762 -0 l 1
 762 531 l 1
 762 553 762 569 762 569 c 1
 758 555 754 543 750 532 c 10
 687 369 l 17
 546 22 l 1
 428 22 l 1
 294 353 l 2
 252 460 225 525 214 569 c 1
 214 -0 l 1
 91 -0 l 1
EndSplineSet
EndChar
StartChar: N
Encoding: 78 78 46
Width: 794
Flags: MW
LayerCount: 2
Fore
SplineSet
91 0 m 1
 91 695 l 1
 283 695 l 1
 539 196 l 1
 578 120 l 1
 578 695 l 1
 702 695 l 1
 702 0 l 1
 510 0 l 1
 243 518 l 1
 214 574 l 1
 214 0 l 1
 91 0 l 1
EndSplineSet
EndChar
StartChar: O
Encoding: 79 79 47
Width: 794
Flags: MW
LayerCount: 2
Fore
SplineSet
60 345 m 0
 60 629 211 717 395 717 c 0
 597 717 732 617 732 343 c 0
 732 154 665 -22 397 -22 c 0
 120 -22 60 161 60 345 c 0
207 348 m 0
 207 204 241 62 396 62 c 0
 546 62 583 199 583 346 c 0
 583 560 508 638 395 638 c 0
 292 638 207 570 207 348 c 0
EndSplineSet
EndChar
StartChar: P
Encoding: 80 80 48
Width: 703
Flags: MW
LayerCount: 2
Fore
SplineSet
91 0 m 1
 91 695 l 1
 371 695 l 2
 454 695 537 685 590 626 c 0
 627 586 641 531 641 478 c 0
 641 318 524 280 441 271 c 0
 420 269 401 268 387 268 c 2
 239 268 l 1
 239 0 l 1
 91 0 l 1
236 347 m 1
 349 347 l 2
 445 347 501 365 501 477 c 0
 501 592 444 608 349 608 c 2
 236 608 l 1
 236 347 l 1
EndSplineSet
EndChar
StartChar: Q
Encoding: 81 81 49
Width: 794
Flags: MW
LayerCount: 2
Fore
SplineSet
60 342 m 0
 60 561 143 686 326 712 c 0
 349 715 373 717 399 717 c 0
 508 717 583 686 634 638 c 0
 709 567 732 456 732 343 c 0
 732 186 688 84 597 26 c 1
 701 -111 l 1
 527 -111 l 1
 466 -18 l 1
 431 -21 424 -22 396 -22 c 0
 305 -22 237 -2 187 32 c 0
 89 98 60 217 60 342 c 0
205 339 m 2
 206 251 206 93 349 61 c 0
 364 57 380 56 396 56 c 0
 402 56 409 56 416 57 c 1
 324 195 l 1
 468 195 l 1
 531 112 l 1
 532 112 l 1
 576 167 587 231 587 342 c 0
 587 445 578 550 507 604 c 0
 476 628 436 639 397 639 c 0
 392 639 386 638 381 638 c 0
 338 635 293 619 263 583 c 0
 207 521 205 411 205 362 c 2
 205 339 l 2
EndSplineSet
EndChar
StartChar: R
Encoding: 82 82 50
Width: 703
Flags: MW
LayerCount: 2
Fore
SplineSet
91 0 m 1
 91 695 l 1
 342 695 l 2
 407 695 475 694 535 666 c 0
 626 625 641 544 641 497 c 0
 641 400 577 340 483 321 c 1
 671 0 l 1
 523 0 l 1
 346 311 l 1
 236 311 l 1
 236 0 l 1
 91 0 l 1
236 384 m 1
 355 384 l 2
 401 384 438 387 463 404 c 0
 487 420 501 448 501 496 c 0
 501 545 487 573 461 589 c 0
 436 604 401 608 356 608 c 2
 236 608 l 1
 236 384 l 1
EndSplineSet
EndChar
StartChar: S
Encoding: 83 83 51
Width: 611
Flags: MW
LayerCount: 2
Fore
SplineSet
48 47 m 1
 71 179 l 1
 139 124 204 87 304 87 c 0
 407 87 423 145 423 184 c 0
 423 235 383 265 351 277 c 0
 289 299 163 294 92 402 c 0
 74 429 60 464 60 509 c 0
 60 615 112 716 300 717 c 2
 304 717 l 2
 386 717 438 705 515 668 c 1
 492 537 l 1
 463 561 415 613 303 613 c 0
 204 613 186 561 186 527 c 0
 186 479 221 458 266 444 c 4
 310 431 363 425 402 409 c 0
 479 378 549 305 549 199 c 0
 549 88 500 -22 304 -22 c 0
 211 -22 126 3 48 47 c 1
EndSplineSet
EndChar
StartChar: T
Encoding: 84 84 52
Width: 733
Flags: MW
LayerCount: 2
Fore
SplineSet
39 584 m 1
 39 689 l 1
 693 689 l 1
 693 584 l 1
 440 588 l 1
 440 0 l 1
 292 0 l 1
 292 588 l 1
 39 584 l 1
EndSplineSet
EndChar
StartChar: U
Encoding: 85 85 53
Width: 764
Flags: MW
LayerCount: 2
Fore
SplineSet
91 246 m 2
 91 695 l 1
 239 695 l 1
 239 230 l 2
 239 209 240 190 242 172 c 0
 246 139 256 111 279 92 c 0
 301 74 334 64 384 64 c 0
 440 64 475 77 497 98 c 0
 533 132 534 185 534 232 c 2
 534 695 l 1
 671 695 l 1
 671 242 l 2
 671 164 655 93 603 44 c 0
 560 3 491 -22 386 -22 c 0
 291 -22 225 -3 181 27 c 0
 126 64 103 120 95 181 c 0
 92 202 91 224 91 246 c 2
EndSplineSet
EndChar
StartChar: V
Encoding: 86 86 54
Width: 733
Flags: MW
LayerCount: 2
Fore
SplineSet
15 695 m 1
 170 695 l 1
 285 380 l 2
 340 228 359 177 374 125 c 1
 393 193 418 255 440 320 c 2
 577 695 l 1
 717 695 l 1
 461 0 l 1
 271 0 l 1
 15 695 l 1
EndSplineSet
EndChar
StartChar: W
Encoding: 87 87 55
Width: 1039
Flags: MW
LayerCount: 2
Fore
SplineSet
15 695 m 1
 147 695 l 1
 147 695 243 344 266 247 c 2
 295 125 l 1
 304 185 302 165 341 321 c 2
 441 695 l 1
 605 695 l 1
 605 695 672 452 698 358 c 2
 730 240 l 2
 745 184 754 136 755 125 c 1
 761 161 788 263 799 303 c 2
 904 695 l 1
 1023 695 l 1
 835 -0 l 1
 666 -0 l 1
 578 324 l 2
 534 487 531 505 516 569 c 1
 508 529 485 439 475 402 c 2
 366 -0 l 1
 203 -0 l 1
 15 695 l 1
EndSplineSet
EndChar
StartChar: X
Encoding: 88 88 56
Width: 733
Flags: MW
LayerCount: 2
Fore
SplineSet
15 -0 m 1
 283 369 l 1
 283 369 l 1
 31 695 l 1
 207 695 l 1
 358 487 l 1
 504 695 l 1
 671 695 l 1
 434 368 l 1
 434 368 l 1
 717 -0 l 1
 540 -0 l 1
 359 261 l 1
 358 261 l 1
 182 -0 l 1
 15 -0 l 1
EndSplineSet
EndChar
StartChar: Y
Encoding: 89 89 57
Width: 733
Flags: MW
LayerCount: 2
Fore
SplineSet
2 695 m 1
 179 695 l 1
 302 516 l 2
 346 451 365 422 374 403 c 1
 392 447 562 683 569 695 c 1
 728 695 l 1
 438 278 l 1
 438 0 l 1
 293 0 l 1
 293 278 l 1
 2 695 l 1
EndSplineSet
EndChar
StartChar: Z
Encoding: 90 90 58
Width: 672
Flags: MW
LayerCount: 2
Fore
SplineSet
60 0 m 1
 60 67 l 1
 60 67 l 1
 426 599 l 1
 75 595 l 1
 75 695 l 1
 610 695 l 1
 610 631 l 1
 610 631 l 1
 245 101 l 1
 616 105 l 1
 616 0 l 1
 60 0 l 1
EndSplineSet
EndChar
StartChar: bracketleft
Encoding: 91 91 59
Width: 343
Flags: MW
LayerCount: 2
Fore
SplineSet
84 -222 m 1
 84 750 l 1
 317 750 l 1
 317 678 l 1
 218 678 l 1
 218 -150 l 1
 317 -150 l 1
 317 -222 l 1
 84 -222 l 1
EndSplineSet
EndChar
StartChar: backslash
Encoding: 92 92 60
Width: 550
Flags: MW
LayerCount: 2
Fore
SplineSet
61 714 m 0
 61 735 79 750 96 750 c 0
 122 750 130 727 136 713 c 2
 486 -175 l 2
 487 -178 487 -182 487 -186 c 0
 487 -204 472 -222 451 -222 c 0
 426 -222 417 -199 410 -180 c 2
 68 685 l 2
 65 694 61 703 61 714 c 0
EndSplineSet
EndChar
StartChar: bracketright
Encoding: 93 93 61
Width: 343
Flags: MW
LayerCount: 2
Fore
SplineSet
24 -150 m 1
 124 -150 l 1
 124 678 l 1
 24 678 l 1
 24 750 l 1
 257 750 l 1
 257 -222 l 1
 24 -222 l 1
 24 -150 l 1
EndSplineSet
EndChar
StartChar: asciicircum
Encoding: 94 94 62
Width: 672
Flags: MW
LayerCount: 2
Fore
SplineSet
169 472 m 1
 281 620 l 1
 390 620 l 1
 502 472 l 1
 429 472 l 1
 335 558 l 1
 242 472 l 1
 169 472 l 1
EndSplineSet
EndChar
StartChar: underscore
Encoding: 95 95 63
Width: 856
Flags: MW
LayerCount: 2
Fore
SplineSet
92 -297 m 0
 92 -281 101 -255 141 -255 c 2
 708 -255 l 2
 755 -255 762 -280 762 -297 c 0
 762 -312 755 -339 710 -339 c 2
 142 -339 l 2
 97 -339 92 -311 92 -297 c 0
EndSplineSet
EndChar
StartChar: grave
Encoding: 96 96 64
Width: 550
Flags: MW
LayerCount: 2
Fore
SplineSet
106 681 m 1
 243 681 l 1
 341 542 l 1
 268 542 l 1
 106 681 l 1
EndSplineSet
EndChar
StartChar: a
Encoding: 97 97 65
Width: 525
Flags: MW
LayerCount: 2
Fore
SplineSet
30 129 m 0
 30 279 327 267 328 270 c 1
 328 311 l 2
 327 331 329 371 311 397 c 0
 301 412 284 422 256 422 c 0
 161 422 115 370 90 346 c 1
 82 446 l 1
 142 476 189 489 260 489 c 0
 417 489 464 420 464 315 c 2
 464 -0 l 1
 330 -0 l 1
 330 69 l 1
 295 17 231 -11 169 -11 c 0
 84 -11 30 60 30 129 c 0
162 131 m 0
 162 94 189 62 231 62 c 0
 263 62 328 80 328 154 c 2
 328 229 l 1
 264 224 162 210 162 131 c 0
EndSplineSet
EndChar
StartChar: b
Encoding: 98 98 66
Width: 561
Flags: MW
LayerCount: 2
Fore
SplineSet
60 0 m 1
 60 695 l 1
 194 695 l 1
 194 424 l 1
 233 456 285 483 354 483 c 0x7c
 489 483 523 366 523 234 c 0
 523 58 444 -11 325 -11 c 0xbc
 267 -11 229 12 197 44 c 1
 197 0 l 1
 60 0 l 1
197 97 m 1
 201 93 207 87 216 80 c 4
 229 71 247 62 274 62 c 0
 378 62 386 138 386 232 c 0
 386 331 384 411 285 411 c 0
 248 411 223 398 197 378 c 1
 197 97 l 1
EndSplineSet
EndChar
StartChar: c
Encoding: 99 99 67
Width: 489
Flags: MW
LayerCount: 2
Fore
SplineSet
36 237 m 0
 36 439 149 489 279 489 c 0
 356 489 390 478 451 446 c 1
 435 351 l 1
 393 383 368 411 280 411 c 0
 179 411 174 326 173 257 c 2
 173 228 l 2
 173 132 191 67 278 67 c 0
 370 67 423 112 449 133 c 1
 457 35 l 1
 399 4 348 -11 275 -11 c 0
 84 -11 36 107 36 237 c 0
EndSplineSet
EndChar
StartChar: d
Encoding: 100 100 68
Width: 561
Flags: MW
LayerCount: 2
Fore
SplineSet
36 238 m 0
 36 316 48 398 105 445 c 0
 136 472 178 483 220 483 c 0xbc
 283 483 330 458 365 428 c 1
 365 695 l 1
 499 695 l 1xba
 499 -0 l 1
 362 -0 l 1
 362 52 l 1
 325 15 282 -11 219 -11 c 0
 188 -11 111 -5 68 72 c 0
 43 118 36 172 36 238 c 0
173 250 m 0
 173 169 174 124 197 94 c 0
 215 72 245 61 273 61 c 0
 333 61 359 102 362 103 c 1
 362 382 l 1xbc
 356 387 350 390 344 394 c 4
 330 403 316 408 299 410 c 0
 295 410 290 411 285 411 c 0
 179 411 173 328 173 250 c 0
EndSplineSet
EndChar
StartChar: e
Encoding: 101 101 69
Width: 511
Flags: MW
LayerCount: 2
Fore
SplineSet
30 240 m 0
 30 368 78 489 269 489 c 0
 457 489 479 360 479 250 c 1
 479 250 l 1
 158 250 l 1
 158 202 160 149 189 108 c 0
 201 91 229 62 289 62 c 0
 374 62 433 103 466 129 c 1
 473 38 l 1
 440 19 378 -11 282 -11 c 0
 153 -11 30 39 30 240 c 0
162 304 m 1
 366 304 l 1
 356 397 308 416 270 416 c 0
 184 416 167 331 162 304 c 1
EndSplineSet
EndChar
StartChar: f
Encoding: 102 102 70
Width: 336
Flags: MW
LayerCount: 2
Fore
SplineSet
30 400 m 1
 30 472 l 1
 86 472 l 1
 86 540 l 2
 86 554 87 567 89 579 c 0
 96 619 113 647 138 667 c 0
 175 696 229 706 288 706 c 0
 322 706 344 703 381 695 c 1
 381 594 l 1
 354 618 332 633 288 633 c 0
 265 633 249 628 238 620 c 4
 218 606 216 583 216 567 c 2
 216 472 l 1
 315 472 l 1
 315 400 l 1
 219 400 l 1
 219 0 l 1
 86 0 l 1
 86 400 l 1
 30 400 l 1
EndSplineSet
EndChar
StartChar: g
Encoding: 103 103 71
Width: 550
Flags: MW
LayerCount: 2
Fore
SplineSet
170 295 m 2xea80
 170 269 171 244 187 228 c 0
 197 217 215 211 241 211 c 0
 270 211 288 217 299 228 c 0
 315 244 316 269 316 296 c 2
 316 313 l 2
 316 338 314 362 300 378 c 0
 290 390 273 397 245 397 c 0
 211 397 193 388 183 374 c 0
 171 358 170 335 170 312 c 2
 170 295 l 2xea80
127 -63 m 0xe440
 127 -87 139 -103 158 -114 c 0
 186 -130 228 -134 272 -134 c 2
 278 -134 l 2
 342 -134 378 -123 398 -108 c 0
 415 -95 420 -80 420 -67 c 0
 420 -27 372 -17 279 -17 c 2
 206 -17 l 1
 185 -17 l 2
 155 -17 127 -21 127 -63 c 0xe440
24 -65 m 0xec40
 24 -9 58 17 80 29 c 1
 56 66 54 92 54 108 c 0xe9
 54 140 64 166 81 190 c 1
 81 192 l 1
 60 215 41 250 41 303 c 0
 41 343 50 395 96 430 c 0
 126 453 173 469 243 469 c 2
 245 469 l 2xea
 336 469 358 445 375 445 c 0
 387 445 455 468 518 468 c 1
 537 394 l 1xf2
 524 394 490 398 474 398 c 2
 420 397 l 1xea40
 439 365 444 336 444 304 c 0xe880
 444 265 435 214 392 179 c 0
 362 155 315 138 242 138 c 0
 202 138 170 142 127 159 c 1xec80
 126 153 125 147 125 141 c 0xe9
 125 122 133 92 182 92 c 2
 289 92 l 2
 347 92 405 88 448 67 c 4
 482 51 508 25 518 -18 c 1
 521 -31 523 -46 523 -63 c 0
 523 -106 504 -157 431 -185 c 0
 381 -204 327 -206 274 -206 c 0
 234 -206 161 -206 104 -180 c 0
 75 -167 50 -147 36 -117 c 0
 28 -101 24 -83 24 -65 c 0xec40
EndSplineSet
EndChar
StartChar: i
Encoding: 105 105 73
Width: 256
Flags: MW
LayerCount: 2
Fore
SplineSet
60 573 m 1
 60 695 l 1
 194 695 l 1
 194 573 l 1
 60 573 l 1
EndSplineSet
Refer: 95 305 S 1 0 0 1 0 0 2
EndChar
StartChar: j
Encoding: 106 106 74
Width: 286
Flags: MW
LayerCount: 2
Fore
SplineSet
92 573 m 1
 92 695 l 1
 226 695 l 1
 226 573 l 1
 92 573 l 1
EndSplineSet
Refer: 239 567 N 1 0 0 1 0 0 2
EndChar
StartChar: k
Encoding: 107 107 75
Width: 531
Flags: MW
LayerCount: 2
Fore
SplineSet
68 0 m 1
 68 695 l 1
 186 695 l 1
 186 316 l 1
 335 472 l 1
 487 472 l 1
 315 293 l 1
 511 0 l 1
 376 0 l 1
 236 209 l 1
 183 155 l 1
 183 0 l 1
 68 0 l 1
EndSplineSet
EndChar
StartChar: l
Encoding: 108 108 76
Width: 256
Flags: MW
LayerCount: 2
Fore
SplineSet
60 0 m 1
 60 695 l 1
 194 695 l 1
 194 0 l 1
 60 0 l 1
EndSplineSet
EndChar
StartChar: o
Encoding: 111 111 79
Width: 550
Flags: MW
LayerCount: 2
Fore
SplineSet
30 239 m 0
 30 436 150 489 274 489 c 0
 398 489 518 436 518 239 c 0
 518 28 398 -11 274 -11 c 0
 150 -11 30 28 30 239 c 0
166 241 m 0
 166 164 167 67 275 67 c 0
 383 67 382 164 382 241 c 0
 382 323 382 416 274 416 c 0
 166 416 166 323 166 241 c 0
EndSplineSet
EndChar
StartChar: p
Encoding: 112 112 80
Width: 561
Flags: MW
LayerCount: 2
Fore
SplineSet
60 -167 m 1
 60 472 l 1
 194 472 l 1
 194 422 l 1
 209 434 227 446 246 456 c 0
 279 472 318 483 364 483 c 0
 416 483 459 463 487 416 c 0
 510 377 523 319 523 238 c 0
 523 159 508 102 481 62 c 0
 446 11 392 -11 326 -11 c 0
 290 -11 262 -2 238 12 c 0
 223 21 209 32 197 44 c 1
 197 -167 l 1
 60 -167 l 1
197 96 m 1
 201 93 213 79 234 70 c 0
 245 65 258 62 273 62 c 0
 311 62 343 80 361 110 c 0
 389 156 385 205 386 247 c 2
 385 271 l 2
 383 295 379 334 360 364 c 4
 345 387 322 405 283 405 c 0
 264 405 247 401 234 396 c 0
 211 387 198 374 197 374 c 1
 197 96 l 1
EndSplineSet
EndChar
StartChar: q
Encoding: 113 113 81
Width: 561
Flags: MW
LayerCount: 2
Fore
SplineSet
36 235 m 0
 36 413 115 483 234 483 c 0
 313 483 349 433 365 411 c 1
 365 483 l 1
 499 483 l 1xf4
 499 -167 l 1
 362 -167 l 1
 362 53 l 1xf8
 327 13 278 -11 222 -11 c 0
 176 -11 124 4 90 42 c 0
 42 96 36 176 36 235 c 0
173 235 m 0xf4
 173 181 179 127 205 94 c 4
 220 74 243 62 275 62 c 0
 316 62 343 83 365 108 c 1
 365 334 l 2
 365 370 329 405 284 405 c 0
 255 405 210 393 188 338 c 0
 174 306 173 270 173 235 c 0xf4
EndSplineSet
EndChar
StartChar: r
Encoding: 114 114 82
Width: 372
Flags: MW
LayerCount: 2
Fore
SplineSet
60 -0 m 1xd0
 60 478 l 1
 188 478 l 1
 188 403 l 1xe0
 189 357 l 1
 206 402 254 481 356 483 c 1
 356 381 l 1
 242 379 198 306 194 260 c 2
 194 -0 l 1
 60 -0 l 1xd0
EndSplineSet
EndChar
StartChar: s
Encoding: 115 115 83
Width: 422
Flags: MW
LayerCount: 2
Fore
SplineSet
30 36 m 1
 49 146 l 1
 62 133 116 68 217 68 c 0
 283 68 296 99 296 124 c 0
 296 152 273 170 249 178 c 0
 224 186 182 188 140 204 c 0
 111 215 81 233 59 265 c 0
 51 278 36 304 36 342 c 0
 36 408 61 445 98 466 c 4
 130 484 172 489 214 489 c 0
 278 489 317 482 380 456 c 1
 363 360 l 1
 311 399 274 417 202 417 c 0
 144 417 136 387 136 367 c 0
 136 313 197 313 258 300 c 0
 323 286 396 235 396 143 c 0
 396 87 379 50 352 26 c 0
 319 -2 271 -11 218 -11 c 0
 146 -11 89 5 30 36 c 1
EndSplineSet
EndChar
StartChar: u
Encoding: 117 117 85
Width: 561
Flags: MW
LayerCount: 2
Fore
SplineSet
59 130 m 2
 59 472 l 1
 196 472 l 1
 196 130 l 2
 197 93 196 71 210 60 c 0
 219 53 234 50 259 50 c 0
 281 50 306 57 326 75 c 0
 342 89 355 110 361 140 c 0
 363 151 364 162 364 175 c 2
 364 472 l 1
 500 472 l 1
 500 -0 l 1
 367 -0 l 1
 367 46 l 1
 366 80 l 1
 356 62 338 36 306 16 c 0
 281 1 248 -11 206 -11 c 0
 158 -11 126 -4 104 10 c 0
 65 34 59 77 59 130 c 2
EndSplineSet
EndChar
StartChar: v
Encoding: 118 118 86
Width: 500
Flags: MW
LayerCount: 2
Fore
SplineSet
15 472 m 1
 139 472 l 1
 210 248 l 2
 239 156 247 142 251 117 c 1
 269 165 350 436 363 472 c 1
 484 472 l 1
 335 0 l 1
 164 0 l 1
 15 472 l 1
EndSplineSet
EndChar
StartChar: w
Encoding: 119 119 87
Width: 744
Flags: MW
LayerCount: 2
Fore
SplineSet
15 472 m 1
 137 472 l 1
 217 192 224 164 230 133 c 1
 245 198 318 457 321 472 c 1
 416 472 l 1
 477 247 l 2
 503 152 507 139 513 117 c 1
 527 174 603 452 609 472 c 1
 729 472 l 1
 600 -0 l 1
 431 -0 l 1
 355 296 358 268 352 336 c 1
 346 268 285 31 273 -0 c 1
 143 -0 l 1
 15 472 l 1
EndSplineSet
EndChar
StartChar: x
Encoding: 120 120 88
Width: 500
Flags: MW
LayerCount: 2
Fore
SplineSet
0 -0 m 1
 192 243 l 1
 192 247 l 1
 6 472 l 1
 143 472 l 1
 246 337 l 1
 248 337 l 1
 345 472 l 1
 481 472 l 1
 301 245 l 1
 301 244 l 1
 500 -0 l 1
 362 -0 l 1
 247 170 l 1
 136 -0 l 1
 0 -0 l 1
EndSplineSet
EndChar
StartChar: y
Encoding: 121 121 89
Width: 500
Flags: MW
LayerCount: 2
Fore
SplineSet
15 472 m 1
 144 472 l 1
 275 179 261 175 269 137 c 1
 271 204 357 443 363 472 c 1
 484 472 l 1
 313 -39 l 2
 296 -88 270 -120 240 -142 c 4
 203 -169 160 -178 124 -178 c 0
 93 -178 61 -174 45 -171 c 1
 36 -69 l 1
 61 -80 87 -93 126 -93 c 0
 153 -93 171 -87 184 -77 c 0
 208 -59 213 -27 223 0 c 1
 223 0 l 1
 223 0 l 1
 15 472 l 1
EndSplineSet
EndChar
StartChar: z
Encoding: 122 122 90
Width: 476
Flags: MW
LayerCount: 2
Fore
SplineSet
30 0 m 1
 30 49 l 1
 286 404 l 1
 45 402 l 1
 45 472 l 1
 439 472 l 1
 439 427 l 1
 185 74 l 1
 442 76 l 1
 442 0 l 1
 30 0 l 1
EndSplineSet
EndChar
StartChar: bar
Encoding: 124 124 92
Width: 306
Flags: MW
LayerCount: 2
Fore
SplineSet
110 -173 m 2
 110 701 l 2
 110 718 115 730 122 737 c 0
 132 748 145 750 152 750 c 0
 161 750 172 748 181 738 c 0
 188 730 193 717 193 696 c 2
 193 -184 l 2
 192 -195 187 -204 180 -211 c 4
 172 -218 162 -222 152 -222 c 0
 143 -222 131 -219 122 -209 c 0
 115 -202 110 -190 110 -173 c 2
EndSplineSet
EndChar
StartChar: asciitilde
Encoding: 126 126 94
Width: 672
Flags: MW
LayerCount: 2
Fore
SplineSet
91 566 m 1x58
 94 646 159 695 234 695 c 0x38
 334 695 377 639 439 639 c 0x58
 454 639 501 645 507 695 c 1x98
 579 695 l 1x38
 576 614 511 566 436 566 c 0x58
 338 566 293 622 232 622 c 0x38
 216 622 169 616 164 566 c 1x98
 91 566 l 1x58
EndSplineSet
EndChar
StartChar: exclamdown
Encoding: 161 161 100
Width: 367
Flags: MW
LayerCount: 2
Fore
SplineSet
117 -167 m 1xe0
 130 311 l 1
 235 311 l 1xd0
 247 -124 l 5
 248 -167 l 1
 117 -167 l 1xe0
EndSplineSet
Refer: 14 46 N 1 0 0 1 31 397 2
EndChar
StartChar: cent
Encoding: 162 162 101
Width: 550
Flags: MW
LayerCount: 2
Fore
SplineSet
36 236 m 0
 36 438 171 483 269 488 c 1
 269 561 l 1
 341 561 l 1
 341 489 l 1
 411 485 441 477 513 446 c 1
 496 351 l 1
 431 393 408 406 341 410 c 1
 341 68 l 1
 411 77 445 89 510 133 c 1
 518 35 l 1
 436 -2 386 -6 341 -10 c 1
 341 -83 l 1
 269 -83 l 1
 269 -10 l 1
 162 0 36 39 36 236 c 0
173 220 m 2
 174 154 187 87 269 70 c 1
 269 408 l 1
 165 387 174 280 173 242 c 2
 173 220 l 2
EndSplineSet
EndChar
StartChar: sterling
Encoding: 163 163 102
Width: 703
Flags: MW
LayerCount: 2
Fore
SplineSet
60 53 m 0
 60 105 117 139 208 139 c 0xbc
 217 139 226 139 235 138 c 1
 236 207 l 1
 236 311 l 1
 182 311 l 1
 182 384 l 1
 236 384 l 1
 236 512 l 2
 236 582 250 647 294 690 c 0
 327 722 378 742 453 742 c 0
 583 742 640 614 640 525 c 0
 640 473 602 467 584 465 c 1
 549 469 506 485 504 521 c 1
 504 521 l 1
 504 531 l 2
 504 636 490 669 453 669 c 0
 428 669 411 661 400 649 c 0
 378 626 376 593 376 593 c 1
 373 573 373 552 373 532 c 2
 373 384 l 1
 458 384 l 1
 458 311 l 1
 373 311 l 1
 373 215 l 2
 372 179 372 143 365 113 c 1
 379 106 452 82 511 82 c 0
 528 82 535 106 535 139 c 1
 671 139 l 1xbc
 668 40 579 -11 489 -11 c 0x7c
 419 -11 324 18 301 23 c 1
 284 12 243 -11 157 -11 c 0
 98 -11 60 15 60 53 c 0
197 50 m 0
 197 64 182 81 184 81 c 0
 190 81 212 56 212 56 c 1
 190 55 189 51 187 51 c 0
 182 51 197 53 197 50 c 0
EndSplineSet
EndChar
StartChar: currency
Encoding: 164 164 105
Width: 808
Flags: MW
LayerCount: 2
Fore
SplineSet
34 -24 m 0
 34 -16 36 -10 40 -4 c 0
 46 5 55 14 67 26 c 0
 88 47 105 66 142 101 c 9
 142 101 l 17
 126 126 89 182 89 304 c 0
 89 425 126 481 142 506 c 9
 142 506 l 17
 54 593 34 610 34 631 c 0
 34 656 55 673 76 673 c 0
 81 673 86 672 91 670 c 0
 111 661 132 632 202 565 c 1
 266 611 345 619 406 619 c 0
 526 619 586 578 606 565 c 1
 606 565 l 1
 695 655 l 2
 702 662 714 673 731 673 c 0
 752 673 773 656 773 631 c 0
 773 602 745 589 665 506 c 1
 681 481 718 425 718 303 c 0
 718 182 681 126 665 101 c 1
 765 2 773 -1 773 -24 c 0
 773 -36 768 -47 760 -54 c 0
 752 -61 742 -65 731 -65 c 0
 725 -65 720 -64 714 -61 c 0
 696 -52 662 -12 606 42 c 9
 606 42 l 17
 542 -3 459 -11 404 -11 c 0
 283 -11 226 26 201 42 c 1
 106 -53 99 -65 76 -65 c 0
 51 -65 34 -45 34 -24 c 0
172 303 m 0
 172 171 224 72 400 72 c 2
 417 72 l 2
 535 76 635 119 635 304 c 0
 635 437 583 535 407 535 c 2
 390 535 l 2
 273 531 172 489 172 303 c 0
EndSplineSet
EndChar
StartChar: yen
Encoding: 165 165 628
Width: 733
Flags: MW
LayerCount: 2
Fore
SplineSet
-33 214 m 0
 -33 222 -30 233 -20 241 c 0
 -13 246 -2 250 14 250 c 2
 294 250 l 1
 294 277 l 17
 199 414 l 1
 15 414 l 2
 9 414 2 414 -4 415 c 0
 -13 417 -20 422 -25 428 c 4
 -31 435 -33 443 -33 450 c 0
 -33 461 -28 470 -20 477 c 0
 -16 481 -11 483 -6 485 c 0
 -1 486 5 487 11 487 c 0
 13 487 15 487 17 487 c 2
 148 487 l 1
 4 695 l 1
 180 695 l 1
 323 487 l 1
 427 487 l 1
 570 695 l 1
 729 695 l 1
 585 487 l 1
 716 487 l 2
 724 487 732 487 739 485 c 0
 755 480 766 466 766 450 c 0
 766 438 758 420 737 415 c 0
 731 414 724 414 718 414 c 2
 534 414 l 1
 439 278 l 1
 439 250 l 1
 724 250 l 2
 733 250 740 248 746 245 c 0
 760 238 766 224 766 213 c 0
 766 203 762 190 746 183 c 0
 739 180 731 178 720 178 c 2
 439 178 l 1
 439 -0 l 1
 294 -0 l 1
 294 178 l 1
 13 178 l 2
 11 178 9 177 7 177 c 0
 3 177 -1 177 -4 178 c 0
 -11 180 -17 183 -21 187 c 0
 -29 195 -33 205 -33 214 c 0
370 414 m 1
 375 403 l 1
 380 414 l 1
 370 414 l 1
EndSplineSet
EndChar
StartChar: brokenbar
Encoding: 166 166 98
Width: 183
Flags: MW
LayerCount: 2
Fore
SplineSet
49 136 m 2
 49 181 78 186 91 186 c 0
 107 186 132 178 132 137 c 2
 132 -170 l 2
 132 -217 105 -222 91 -222 c 0
 76 -222 49 -214 49 -173 c 2
 49 136 l 2
49 391 m 2
 49 698 l 2
 49 744 77 750 91 750 c 0
 107 750 132 741 132 700 c 2
 132 393 l 2
 132 347 104 341 91 341 c 0
 76 341 49 348 49 391 c 2
EndSplineSet
EndChar
StartChar: section
Encoding: 167 167 104
Width: 533
Flags: MW
LayerCount: 2
Fore
SplineSet
48 -109 m 1
 67 1 l 1
 95 -35 143 -105 261 -105 c 0
 316 -105 330 -46 330 -15 c 0
 330 47 264 50 199 88 c 0
 177 101 75 161 75 269 c 0
 75 285 78 318 100 352 c 0
 110 368 125 383 145 398 c 1
 145 399 l 1
 108 430 75 477 75 539 c 0
 75 629 154 706 269 706 c 0
 351 706 402 682 452 650 c 1
 442 590 l 1
 434 545 l 1
 417 566 372 633 271 633 c 0
 214 633 201 571 201 543 c 0
 201 511 220 494 246 480 c 0
 271 467 303 456 332 439 c 0
 381 411 456 353 456 258 c 0
 456 231 449 205 435 182 c 4
 423 162 407 145 387 130 c 1
 387 129 l 1
 427 94 456 45 456 -11 c 0
 456 -101 377 -178 263 -178 c 0
 177 -178 119 -158 48 -109 c 1
201 272 m 0
 201 244 215 226 242 211 c 0
 259 202 280 193 306 183 c 1
 310 189 330 212 330 256 c 0
 330 282 318 299 294 314 c 0
 277 324 255 334 226 345 c 1
 221 337 201 316 201 272 c 0
EndSplineSet
EndChar
StartChar: copyright
Encoding: 169 169 123
Width: 1143
Flags: MW
LayerCount: 2
Fore
SplineSet
60 264 m 4
 60 671 317 773 569 773 c 4
 978 773 1080 519 1080 264 c 4
 1080 -143 823 -245 571 -245 c 4
 162 -245 60 9 60 264 c 4
143 264 m 4
 143 -1 260 -162 569 -162 c 4
 874 -162 997 -8 997 264 c 4
 997 568 841 689 570 689 c 4
 339 689 143 604 143 264 c 4
264 244 m 0
 264 305 284 366 325 412 c 0
 401 497 545 509 644 509 c 0
 706 509 743 504 808 484 c 1
 785 353 l 1
 757 376 726 408 642 408 c 0
 443 408 412 309 412 243 c 0
 412 111 525 78 648 78 c 0
 734 78 761 97 811 128 c 1
 820 17 l 1
 771 -6 737 -23 649 -23 c 0
 486 -23 318 6 274 171 c 0
 267 195 264 219 264 244 c 0
EndSplineSet
EndChar
StartChar: ordfeminine
Encoding: 170 170 112
Width: 489
Flags: MW
LayerCount: 2
Fore
SplineSet
30 460 m 0
 30 495 71 501 95 505 c 0
 171 520 232 518 266 520 c 1
 266 594 l 2
 266 692 244 701 221 701 c 0
 134 701 90 619 90 619 c 1
 82 719 l 1
 127 751 167 767 231 767 c 0
 402 767 403 633 403 567 c 2
 403 375 l 1
 269 375 l 1
 269 439 l 1
 227 372 164 364 140 364 c 0
 67 364 30 422 30 460 c 0
162 463 m 0
 162 452 174 437 198 437 c 0
 231 437 250 466 258 480 c 9
 258 480 l 17
 195 476 174 474 166 470 c 0
 162 468 162 466 162 463 c 0
EndSplineSet
EndChar
StartChar: guillemotleft
Encoding: 171 171 104
Width: 733
Flags: MW
LayerCount: 2
Fore
SplineSet
73 237 m 5
 284 473 l 5
 391 473 l 5
 188 236 l 5
 391 0 l 5
 284 0 l 5
 73 237 l 5
305 237 m 5
 516 473 l 5
 623 473 l 5
 420 236 l 5
 623 0 l 5
 516 0 l 5
 305 237 l 5
EndSplineSet
EndChar
StartChar: logicalnot
Encoding: 172 172 125
Width: 672
Flags: MW
LayerCount: 2
Fore
SplineSet
60 361 m 0
 60 376 69 403 109 403 c 2
 560 403 l 2
 587 403 610 393 610 354 c 2
 610 105 l 2
 610 59 582 53 568 53 c 0
 548 53 530 67 527 91 c 0
 526 100 526 110 526 120 c 2
 526 320 l 1
 123 320 l 2
 119 320 115 319 110 319 c 0
 65 319 60 351 60 361 c 0
EndSplineSet
EndChar
StartChar: registered
Encoding: 174 174 121
Width: 1143
Flags: MW
LayerCount: 2
Fore
SplineSet
60 264 m 0
 60 671 317 773 569 773 c 0
 978 773 1080 519 1080 264 c 0
 1080 -143 823 -245 571 -245 c 0
 162 -245 60 9 60 264 c 0
143 264 m 0
 143 -1 260 -162 569 -162 c 0
 874 -162 997 -8 997 264 c 0
 997 568 841 689 570 689 c 0
 339 689 143 604 143 264 c 0
325 0 m 1
 325 486 l 1
 586 486 l 2
 643 486 716 485 774 464 c 0
 803 454 829 439 848 416 c 0
 865 395 875 368 875 340 c 0
 875 265 802 227 726 215 c 1
 906 0 l 1
 758 0 l 1
 590 207 l 1
 470 207 l 1
 470 0 l 1
 325 0 l 1
470 280 m 1
 580 280 l 2
 585 280 590 279 596 279 c 0
 640 279 676 282 700 291 c 4
 723 300 736 315 736 340 c 0
 736 388 691 400 597 400 c 2
 471 400 l 1
 470 354 l 1
 470 280 l 1
EndSplineSet
EndChar
StartChar: macron
Encoding: 175 175 126
Width: 550
Flags: MW
LayerCount: 2
Fore
SplineSet
76 615 m 1
 76 700 l 1
 473 700 l 1
 473 615 l 1
 76 615 l 1
EndSplineSet
EndChar
StartChar: plusminus
Encoding: 177 177 128
Width: 672
Flags: MW
LayerCount: 2
Fore
SplineSet
61 122 m 0
 61 144 76 158 92 162 c 0
 100 164 110 163 119 163 c 2
 293 163 l 1
 293 314 l 1
 100 314 l 2
 89 314 78 320 71 327 c 0
 64 335 60 344 60 355 c 0
 60 366 64 376 71 384 c 0
 78 392 89 397 100 397 c 2
 293 397 l 1
 293 566 l 1
 294 591 l 2
 295 614 314 630 335 630 c 2
 336 630 l 2
 357 630 375 613 376 590 c 2
 377 565 l 1
 377 397 l 1
 554 397 l 2
 568 397 577 397 586 392 c 0
 600 385 609 371 609 355 c 0
 609 345 606 336 600 329 c 0
 593 320 582 315 570 314 c 2
 377 314 l 1
 377 163 l 1
 554 163 l 2
 566 163 579 163 590 156 c 0
 596 153 601 148 605 140 c 0
 608 134 609 128 609 122 c 0
 609 108 604 98 597 92 c 0
 585 81 567 80 559 80 c 2
 112 80 l 2
 66 80 61 109 61 122 c 0
EndSplineSet
EndChar
StartChar: two.superior
Encoding: 178 178 124
Width: 489
Flags: MW
LayerCount: 2
Fore
SplineSet
45 720 m 1
 101 754 151 773 226 773 c 0
 347 773 432 709 432 615 c 0
 432 535 335 534 263 507 c 0
 239 498 239 497 146 454 c 1
 280 454 l 1
 302 455 l 1
 432 455 l 1
 432 347 l 1
 54 347 l 1
 54 453 l 1
 153 506 l 2
 224 537 291 554 291 612 c 0
 291 647 259 672 211 672 c 0
 152 672 122 640 111 629 c 1
 45 720 l 1
EndSplineSet
EndChar
StartChar: three.superior
Encoding: 179 179 134
Width: 489
Flags: MW
LayerCount: 2
Fore
SplineSet
45 369 m 1
 60 462 l 1
 60 462 121 431 171 431 c 2
 219 431 l 0
 245 431 265 432 278 440 c 0
 288 446 294 458 294 477 c 0
 294 495 288 507 278 514 c 4
 268 521 253 523 235 523 c 2
 182 523 l 1
 182 596 l 1
 218 600 239 599 258 620 c 0
 267 629 271 641 271 652 c 0
 271 679 254 683 232 683 c 0
 183 683 150 674 110 658 c 1
 60 736 l 1
 116 760 169 773 232 773 c 0
 360 773 411 724 411 650 c 0
 411 596 373 573 352 560 c 1
 389 551 441 529 441 475 c 0
 441 453 434 396 376 364 c 0
 326 336 268 336 212 336 c 2
 162 336 l 2
 112 336 45 369 45 369 c 1
EndSplineSet
EndChar
StartChar: acute
Encoding: 180 180 192
Width: 550
Flags: MW
LayerCount: 2
Fore
SplineSet
207 542 m 1
 306 681 l 1
 442 681 l 1
 280 542 l 1
 207 542 l 1
EndSplineSet
EndChar
StartChar: micro
Encoding: 181 181 130
Width: 561
Flags: MW
LayerCount: 2
Fore
SplineSet
59 -167 m 1
 59 472 l 1
 196 472 l 1
 196 130 l 2
 197 70 193 50 259 50 c 0
 299 50 348 74 361 140 c 4
 363 151 364 162 364 175 c 2
 364 472 l 1
 500 472 l 1
 500 -0 l 1
 367 -0 l 1
 367 46 l 1
 366 80 l 1
 318 -7 236 -11 204 -11 c 2
 196 -11 l 1
 196 -167 l 1
 59 -167 l 1
EndSplineSet
EndChar
StartChar: paragraph
Encoding: 182 182 202
Width: 672
Flags: MW
LayerCount: 2
Fore
SplineSet
60 458 m 0
 60 565 142 678 308 693 c 0
 321 694 334 695 347 695 c 2
 589 695 l 2
 633 695 640 665 640 653 c 0
 640 639 632 625 618 617 c 0
 608 611 597 611 586 611 c 2
 548 611 l 1
 548 -112 l 2
 548 -119 549 -126 547 -133 c 0
 543 -152 526 -166 507 -166 c 0
 487 -166 470 -152 466 -133 c 0
 465 -126 465 -119 465 -112 c 2
 465 611 l 1
 388 611 l 1
 388 -117 l 2
 388 -135 383 -147 376 -154 c 4
 366 -164 353 -166 347 -166 c 0
 339 -166 329 -164 320 -157 c 0
 312 -150 305 -139 305 -121 c 2
 305 224 l 1
 142 245 60 352 60 458 c 0
EndSplineSet
EndChar
StartChar: periodcentered
Encoding: 183 183 107
Width: 219
Flags: MW
LayerCount: 2
Fore
SplineSet
53 194 m 1
 53 306 l 1
 165 306 l 1
 165 194 l 1
 53 194 l 1
EndSplineSet
EndChar
StartChar: cedilla
Encoding: 184 184 110
Width: 489
Flags: MW
LayerCount: 2
Fore
SplineSet
115 -168 m 1
 207 -23 l 1
 280 -23 l 1
 219 -168 l 1
 115 -168 l 1
EndSplineSet
EndChar
StartChar: one.superior
Encoding: 185 185 127
Width: 489
Flags: MW
LayerCount: 2
Fore
SplineSet
76 625 m 1
 76 698 l 1
 205 699 257 740 291 773 c 1
 325 773 l 1
 325 420 l 1
 412 420 l 1
 412 347 l 1
 92 347 l 1
 92 420 l 1
 187 420 l 1
 187 639 l 1
 154 631 126 625 76 625 c 1
EndSplineSet
EndChar
StartChar: ordmasculine
Encoding: 186 186 114
Width: 489
Flags: MW
LayerCount: 2
Fore
SplineSet
30 558 m 0
 30 725 133 767 245 767 c 0
 351 767 457 726 457 558 c 0
 457 405 358 368 260 364 c 2
 227 364 l 2
 132 368 30 403 30 558 c 0
166 560 m 2
 166 519 169 489 181 469 c 0
 192 451 212 442 243 442 c 0
 270 442 288 448 299 461 c 0
 319 483 320 523 320 580 c 0
 320 628 315 660 297 677 c 0
 285 689 268 694 243 694 c 0
 215 694 197 686 186 673 c 0
 169 653 166 620 166 581 c 2
 166 560 l 2
EndSplineSet
EndChar
StartChar: guillemotright
Encoding: 187 187 105
Width: 733
Flags: MW
LayerCount: 2
Fore
SplineSet
109 0 m 5
 312 237 l 5
 109 473 l 5
 215 473 l 5
 427 236 l 5
 215 0 l 5
 109 0 l 5
341 0 m 5
 544 237 l 5
 341 473 l 5
 448 473 l 5
 659 236 l 5
 448 0 l 5
 341 0 l 5
EndSplineSet
EndChar
StartChar: onequarter
Encoding: 188 188 132
Width: 489
Flags: MW
LayerCount: 2
Fore
SplineSet
-10 292 m 0
 -10 303 -6 312 0 319 c 0
 7 327 18 332 30 333 c 2
 56 334 l 1
 440 334 l 2
 456 334 471 333 482 326 c 0
 488 322 492 317 496 309 c 0
 498 303 499 298 499 292 c 0
 499 283 496 270 486 261 c 0
 479 255 467 250 450 250 c 2
 39 250 l 2
 22 250 11 255 4 261 c 0
 -8 271 -10 285 -10 292 c 0
31 -46 m 1
 201 167 l 1
 368 167 l 1xfa
 368 -46 l 1
 458 -46 l 1
 458 -141 l 1
 368 -141 l 1
 368 -167 l 1
 244 -167 l 1
 244 -141 l 1
 31 -141 l 1
 31 -46 l 1
77 667 m 1
 77 740 l 1
 151 740 261 754 307 773 c 9
 326 773 l 1
 326 490 l 1
 413 490 l 1
 413 417 l 1
 92 417 l 1
 92 490 l 1
 188 490 l 1
 188 672 l 1xfc
 154 669 99 667 77 667 c 1
149 -46 m 1
 249 -46 l 1xfa
 249 80 l 1
 149 -46 l 1
EndSplineSet
EndChar
StartChar: onehalf
Encoding: 189 189 138
Width: 489
Flags: MW
LayerCount: 2
Fore
SplineSet
-10 292 m 0
 -10 303 -6 312 0 319 c 0
 7 327 18 332 30 333 c 2
 56 334 l 1
 440 334 l 2
 456 334 471 333 482 326 c 0
 488 322 492 317 496 309 c 0
 498 303 499 298 499 292 c 0
 499 283 496 270 486 261 c 0
 479 255 467 250 450 250 c 2
 39 250 l 2
 22 250 11 255 4 261 c 0
 -8 271 -10 285 -10 292 c 0
77 667 m 1
 77 740 l 1
 151 740 261 754 307 773 c 9
 326 773 l 1
 326 490 l 1
 413 490 l 1
 413 417 l 1
 92 417 l 1
 92 490 l 1
 188 490 l 1
 188 672 l 1xfc
 154 669 99 667 77 667 c 1
45 144 m 1
 101 172 151 189 226 189 c 0
 347 189 432 135 432 57 c 0
 432 -10 335 -10 263 -33 c 0
 239 -41 239 -42 146 -78 c 1
 280 -78 l 1
 302 -77 l 1
 432 -77 l 1
 432 -167 l 1
 54 -167 l 1
 54 -78 l 1
 153 -34 l 2
 224 -8 291 6 291 54 c 0
 291 83 259 104 211 104 c 0
 152 104 122 77 111 68 c 1
 45 144 l 1
EndSplineSet
EndChar
StartChar: threequarters
Encoding: 190 190 134
Width: 489
Flags: MW
LayerCount: 2
Fore
SplineSet
31 -46 m 1
 201 167 l 1
 368 167 l 1xfa
 368 -46 l 1
 458 -46 l 1
 458 -141 l 1
 368 -141 l 1
 368 -167 l 1
 244 -167 l 1
 244 -141 l 1
 31 -141 l 1
 31 -46 l 1
45 422 m 1
 60 502 l 1
 60 502 121 475 171 475 c 2
 219 475 l 0
 245 475 265 476 278 483 c 0
 288 489 294 498 294 515 c 0
 294 531 288 542 278 548 c 0
 268 554 253 556 235 556 c 2
 182 556 l 1
 182 619 l 1
 218 622 239 622 258 640 c 0
 267 648 271 658 271 668 c 0
 271 691 254 695 232 695 c 0
 183 695 150 687 110 673 c 1
 60 741 l 1
 116 762 169 773 232 773 c 0
 360 773 411 730 411 666 c 0
 411 619 373 599 352 588 c 1
 389 580 441 561 441 514 c 0
 441 495 434 445 376 417 c 0
 326 393 268 393 212 393 c 2
 162 393 l 2
 112 393 45 422 45 422 c 1
149 -46 m 1
 249 -46 l 1xfa
 249 80 l 1
 149 -46 l 1
-10 292 m 0
 -10 303 -6 312 0 319 c 0
 7 327 18 332 30 333 c 2
 56 334 l 1
 440 334 l 2
 456 334 471 333 482 326 c 0
 488 322 492 317 496 309 c 0
 498 303 499 298 499 292 c 0
 499 283 496 270 486 261 c 0
 479 255 467 250 450 250 c 2
 39 250 l 2
 22 250 11 255 4 261 c 0
 -8 271 -10 285 -10 292 c 0
EndSplineSet
EndChar
StartChar: questiondown
Encoding: 191 191 106
Width: 519
Flags: MW
LayerCount: 2
Fore
SplineSet
60 -29 m 0xe0
 60 57 101 81 120 100 c 0
 146 125 164 152 175 182 c 0
 186 211 191 243 191 278 c 2
 191 311 l 1
 296 311 l 1
 296 278 l 2xc8
 296 245 295 210 273 154 c 0
 263 127 247 96 225 58 c 0
 205 25 197 18 197 -31 c 0xe0
 197 -62 197 -81 205 -92 c 4
 211 -101 223 -105 244 -105 c 0
 357 -105 419 -35 423 -35 c 1
 457 -129 l 1
 356 -177 285 -175 254 -178 c 2
 225 -178 l 2
 178 -176 133 -168 102 -141 c 0
 76 -119 60 -83 60 -29 c 0xe0
EndSplineSet
Refer: 14 46 N 1 0 0 1 92 397 2
EndChar
StartChar: Agrave
Encoding: 192 192 131
Width: 733
Flags: MW
LayerCount: 2
Fore
SplineSet
190 863 m 1
 383 863 l 1
 505 764 l 1
 418 764 l 1
 402 765 l 1
 388 770 l 1
 190 863 l 1
EndSplineSet
Refer: 33 65 N 1 0 0 1 0 0 2
EndChar
StartChar: Aacute
Encoding: 193 193 154
Width: 733
Flags: MW
LayerCount: 2
Fore
SplineSet
227 765 m 1
 349 863 l 1
 542 863 l 1
 345 771 l 1
 332 767 l 1
 317 765 l 9
 257 765 l 1
 227 765 l 1
EndSplineSet
Refer: 33 65 N 1 0 0 1 0 0 2
EndChar
StartChar: Acircumflex
Encoding: 194 194 138
Width: 733
Flags: MW
LayerCount: 2
Fore
SplineSet
184 729 m 1
 303 914 l 1
 423 914 l 1
 531 729 l 1
 459 729 l 1
 357 840 l 1
 256 729 l 1
 184 729 l 1
EndSplineSet
Refer: 33 65 N 1 0 0 1 0 0 2
EndChar
StartChar: Atilde
Encoding: 195 195 134
Width: 733
Flags: MW
LayerCount: 2
Fore
SplineSet
182 729 m 1
 190 874 248 903 291 903 c 0
 365 903 383 803 438 803 c 0
 443 803 448 804 452 806 c 0
 460 810 465 818 469 827 c 0
 478 850 476 884 476 903 c 1
 549 903 l 1
 547 874 l 2
 540 795 504 730 440 730 c 0
 368 730 348 830 294 830 c 0
 257 830 255 777 255 745 c 2
 255 729 l 1
 182 729 l 1
EndSplineSet
Refer: 33 65 N 1 0 0 1 0 0 2
EndChar
StartChar: Adieresis
Encoding: 196 196 135
Width: 733
Flags: MW
LayerCount: 2
Fore
SplineSet
203 788 m 1
 203 900 l 1
 315 900 l 1
 315 788 l 1
 203 788 l 1
417 788 m 1
 417 900 l 1
 529 900 l 1
 529 788 l 1
 417 788 l 1
EndSplineSet
Refer: 33 65 N 1 0 0 1 0 0 2
EndChar
StartChar: AE
Encoding: 198 198 116
Width: 947
Flags: MW
LayerCount: 2
Fore
SplineSet
30 0 m 1
 281 695 l 1xec
 885 695 l 1
 885 590 l 1xf4
 850 590 l 1
 833 591 l 1
 628 593 l 5
 607 593 l 1
 607 409 l 1
 854 409 l 1
 854 314 l 1
 607 314 l 1
 607 107 l 1
 659 108 l 1
 675 108 l 1
 853 110 l 1
 871 110 l 1
 900 111 l 1
 900 0 l 1
 460 0 l 1
 460 191 l 1
 235 191 l 1
 166 0 l 1
 30 0 l 1
267 278 m 1
 460 278 l 1xec
 460 594 l 1
 381 594 l 1
 267 278 l 1
EndSplineSet
EndChar
StartChar: Egrave
Encoding: 200 200 160
Width: 642
Flags: MW
LayerCount: 2
Fore
SplineSet
129 863 m 1
 322 863 l 1
 444 764 l 1
 357 764 l 1
 341 765 l 1
 327 770 l 1
 129 863 l 1
EndSplineSet
Refer: 37 69 N 1 0 0 1 0 0 2
EndChar
StartChar: Eacute
Encoding: 201 201 143
Width: 642
Flags: MW
LayerCount: 2
Fore
SplineSet
212 764 m 1
 334 862 l 1
 527 862 l 1
 330 770 l 1
 317 766 l 1
 302 764 l 9
 242 764 l 1
 212 764 l 1
EndSplineSet
Refer: 37 69 N 1 0 0 1 0 0 2
EndChar
StartChar: Ecircumflex
Encoding: 202 202 145
Width: 642
Flags: MW
LayerCount: 2
Fore
SplineSet
170 729 m 1x25
 289 914 l 1
 399 914 l 1
 517 729 l 1
 445 729 l 1
 344 840 l 1
 243 729 l 1
 170 729 l 1x25
EndSplineSet
Refer: 37 69 N 1 0 0 1 0 0 2
EndChar
StartChar: Edieresis
Encoding: 203 203 163
Width: 642
Flags: MW
LayerCount: 2
Fore
SplineSet
185 788 m 1
 185 900 l 1
 297 900 l 1
 297 788 l 1
 185 788 l 1
399 788 m 1
 399 900 l 1
 511 900 l 1
 511 788 l 1
 399 788 l 1
EndSplineSet
Refer: 37 69 N 1 0 0 1 0 0 2
EndChar
StartChar: Igrave
Encoding: 204 204 147
Width: 331
Flags: MW
LayerCount: 2
Fore
SplineSet
-26 863 m 5
 167 863 l 5
 289 764 l 5
 202 764 l 5
 186 765 l 5
 172 770 l 5
 -26 863 l 5
EndSplineSet
Refer: 41 73 S 1 0 0 1 1 0 2
EndChar
StartChar: Iacute
Encoding: 205 205 143
Width: 331
Flags: MW
LayerCount: 2
Fore
SplineSet
72 764 m 1
 194 862 l 1
 387 862 l 1
 190 770 l 1
 177 766 l 1
 162 764 l 9
 102 764 l 1
 72 764 l 1
EndSplineSet
Refer: 41 73 N 1 0 0 1 0 0 2
EndChar
StartChar: Icircumflex
Encoding: 206 206 153
Width: 331
Flags: MW
LayerCount: 2
Fore
SplineSet
-8 729 m 1
 111 914 l 1
 221 914 l 1
 340 729 l 1
 267 729 l 1
 166 840 l 1xf0
 65 729 l 1
 -8 729 l 1
EndSplineSet
Refer: 41 73 S 1 0 0 1 1 0 2
EndChar
StartChar: Idieresis
Encoding: 207 207 150
Width: 331
Flags: MW
LayerCount: 2
Fore
SplineSet
2 788 m 1
 2 900 l 1
 114 900 l 1
 114 788 l 1
 2 788 l 1
216 788 m 1
 216 900 l 1
 328 900 l 1
 328 788 l 1
 216 788 l 1
EndSplineSet
Refer: 41 73 N 1 0 0 1 0 0 2
EndChar
StartChar: Ntilde
Encoding: 209 209 154
Width: 794
Flags: MW
LayerCount: 2
Fore
SplineSet
211 770 m 1xd7
 213 849 260 903 322 903 c 0xcf
 391 903 417 849 461 843 c 0xd7
 474 842 477 845 481 846 c 1
 496 857 504 867 505 903 c 1xe7
 578 903 l 1xcf
 576 824 529 770 467 770 c 0xd7
 398 770 372 824 328 829 c 0xcf
 314 831 316 828 308 826 c 1
 293 815 285 806 284 770 c 1xe7
 211 770 l 1xd7
EndSplineSet
Refer: 46 78 N 1 0 0 1 0 0 2
EndChar
StartChar: Ograve
Encoding: 210 210 152
Width: 794
Flags: MW
LayerCount: 2
Fore
SplineSet
220 863 m 5
 413 863 l 5
 535 764 l 5
 448 764 l 5
 432 765 l 5
 418 770 l 5
 220 863 l 5
EndSplineSet
Refer: 47 79 S 1 0 0 1 0 0 2
EndChar
StartChar: Oacute
Encoding: 211 211 154
Width: 794
Flags: MW
LayerCount: 2
Fore
SplineSet
258 765 m 1
 380 863 l 1
 573 863 l 1
 376 771 l 1
 363 767 l 1
 348 765 l 9
 288 765 l 1
 258 765 l 1
EndSplineSet
Refer: 47 79 N 1 0 0 1 0 0 2
EndChar
StartChar: Ocircumflex
Encoding: 212 212 154
Width: 794
Flags: MW
LayerCount: 2
Fore
SplineSet
222 729 m 1
 341 914 l 1
 451 914 l 1
 570 729 l 1
 498 729 l 1
 396 840 l 1
 295 729 l 1
 222 729 l 1
EndSplineSet
Refer: 47 79 S 1 0 0 1 0 0 2
EndChar
StartChar: Otilde
Encoding: 213 213 151
Width: 794
Flags: MW
LayerCount: 2
Fore
SplineSet
212 729 m 1
 220 874 278 903 321 903 c 0
 395 903 413 803 468 803 c 0
 473 803 478 804 482 806 c 0
 490 810 495 818 499 827 c 0
 508 850 506 884 506 903 c 1
 579 903 l 1
 577 874 l 2
 570 795 534 730 470 730 c 0
 398 730 378 830 324 830 c 0
 287 830 285 777 285 745 c 2
 285 729 l 1
 212 729 l 1
EndSplineSet
Refer: 47 79 N 1 0 0 1 0 0 2
EndChar
StartChar: Odieresis
Encoding: 214 214 161
Width: 794
Flags: MW
LayerCount: 2
Fore
SplineSet
234 788 m 1
 234 900 l 1
 346 900 l 1
 346 788 l 1
 234 788 l 1
447 788 m 1
 447 900 l 1
 559 900 l 1
 559 788 l 1
 447 788 l 1
EndSplineSet
Refer: 47 79 N 1 0 0 1 0 0 2
EndChar
StartChar: multiply
Encoding: 215 215 153
Width: 672
Flags: MW
LayerCount: 2
Fore
SplineSet
129 98 m 0
 129 111 145 132 152 139 c 2
 277 264 l 1
 148 392 l 2
 136 404 132 411 130 417 c 2
 129 421 129 424 129 429 c 0
 129 449 145 467 165 470 c 1
 173 470 l 2
 186 469 197 462 210 449 c 2
 336 323 l 1
 461 448 l 2
 473 460 488 470 500 470 c 0
 522 470 542 453 542 429 c 0
 542 424 541 419 539 414 c 0
 536 408 531 401 523 392 c 2
 394 263 l 1
 514 145 l 2
 528 130 536 122 539 116 c 0
 542 110 542 106 542 99 c 0
 542 66 522 58 498 57 c 1
 486 58 476 64 462 77 c 2
 335 204 l 1
 204 73 l 2
 195 64 182 57 171 57 c 0
 148 57 129 76 129 98 c 0
EndSplineSet
EndChar
StartChar: Oslash
Encoding: 216 216 113
Width: 856
Flags: MW
LayerCount: 2
Fore
SplineSet
60 342 m 0
 60 486 101 578 164 635 c 0
 233 697 328 717 426 717 c 0
 486 717 537 710 585 694 c 1
 621 756 l 1
 622 756 l 1
 689 717 l 1
 656 660 l 1
 702 631 735 590 758 537 c 0
 781 483 793 416 793 340 c 0
 793 232 768 127 690 58 c 0
 634 9 550 -22 427 -22 c 0
 376 -22 319 -17 267 -0 c 1
 232 -61 l 1
 164 -22 l 1
 196 33 l 1
 107 90 60 191 60 342 c 0
190 320 m 2
 192 253 197 176 246 118 c 1
 543 622 l 1
 511 636 473 644 426 644 c 0
 337 644 281 617 246 575 c 0
 197 516 190 428 190 347 c 2
 190 320 l 2
310 71 m 1
 342 58 374 50 427 50 c 0
 520 50 576 79 610 121 c 0
 662 185 663 279 663 348 c 0
 663 398 662 444 650 487 c 0
 642 518 628 547 606 576 c 1
 606 576 l 1
 310 71 l 1
EndSplineSet
EndChar
StartChar: Ugrave
Encoding: 217 217 176
Width: 764
Flags: MW
LayerCount: 2
Fore
SplineSet
205 863 m 1
 398 863 l 1
 520 764 l 1
 433 764 l 1
 417 765 l 1
 403 770 l 1
 205 863 l 1
EndSplineSet
Refer: 53 85 N 1 0 0 1 0 0 2
EndChar
StartChar: Uacute
Encoding: 218 218 162
Width: 764
Flags: MW
LayerCount: 2
Fore
SplineSet
289 765 m 5
 411 863 l 5
 604 863 l 5
 407 771 l 5
 394 767 l 5
 379 765 l 13
 319 765 l 5
 289 765 l 5
EndSplineSet
Refer: 53 85 N 1 0 0 1 0 0 2
EndChar
StartChar: Ucircumflex
Encoding: 219 219 165
Width: 764
Flags: MW
LayerCount: 2
Fore
SplineSet
210 729 m 1
 329 914 l 1
 433 914 l 1
 558 729 l 1
 485 729 l 1
 384 840 l 1xe8
 283 729 l 1
 210 729 l 1
EndSplineSet
Refer: 53 85 S 1 0 0 1 0 0 2
EndChar
StartChar: Udieresis
Encoding: 220 220 164
Width: 764
Flags: MW
LayerCount: 2
Fore
SplineSet
218 788 m 1
 218 900 l 1
 330 900 l 1
 330 788 l 1
 218 788 l 1
432 788 m 1
 432 900 l 1
 544 900 l 1
 544 788 l 1
 432 788 l 1
EndSplineSet
Refer: 53 85 N 1 0 0 1 0 0 2
EndChar
StartChar: Thorn
Encoding: 222 222 163
Width: 642
Flags: MW
LayerCount: 2
Fore
SplineSet
91 0 m 1
 91 695 l 1
 233 695 l 1
 233 592 l 1
 336 592 l 2
 396 592 474 591 529 536 c 0
 567 497 580 441 580 388 c 0
 580 313 558 265 526 234 c 4
 472 182 389 180 342 180 c 2
 233 180 l 1
 233 0 l 1
 91 0 l 1
233 267 m 1
 309 267 l 2
 349 267 382 270 408 295 c 0
 421 306 440 331 440 386 c 0
 440 433 425 462 404 479 c 0
 374 504 332 505 310 505 c 2
 234 505 l 1
 233 471 l 1
 233 267 l 1
EndSplineSet
EndChar
StartChar: germandbls
Encoding: 223 223 122
Width: 565
Flags: MW
LayerCount: 2
Fore
SplineSet
60 0 m 25
 60 569 l 2
 60 723 186 733 285 733 c 0
 412 733 503 700 503 569 c 0xf8
 503 434 437 408 383 403 c 0
 363 401 354 399 354 351 c 0
 354 296 369 305 413 294 c 0
 471 280 527 226 527 140 c 0
 527 19 454 -11 383 -11 c 0
 318 -11 267 23 254 45 c 1
 277 144 l 1
 283 130 331 68 380 68 c 0
 403 68 428 78 428 119 c 0xf4
 428 127 426 155 401 171 c 0
 375 186 330 174 289 226 c 0
 265 255 255 292 255 333 c 0
 255 437 306 471 368 475 c 1
 368 480 369 485 369 491 c 0
 369 515 367 539 366 564 c 0
 366 604 374 660 282 660 c 0
 205 660 194 632 194 569 c 2
 194 0 l 25
 60 0 l 25
EndSplineSet
EndChar
StartChar: ae
Encoding: 230 230 135
Width: 794
Flags: MW
LayerCount: 2
Fore
SplineSet
30 132 m 0
 30 181 60 214 102 235 c 0
 183 277 307 276 328 277 c 1
 328 303 l 1
 328 323 l 2
 328 357 325 422 257 422 c 0
 161 422 115 371 90 346 c 1
 82 446 l 1
 138 474 184 489 260 489 c 0xd8
 297 489 327 486 353 479 c 0
 375 473 394 463 412 449 c 1
 414 449 l 1
 462 483 524 489 565 489 c 0
 642 489 690 465 719 428 c 0
 755 383 763 317 763 250 c 1
 465 250 l 1
 465 184 469 123 512 86 c 0
 532 69 557 62 584 62 c 0
 676 62 733 115 749 129 c 1
 757 38 l 1
 702 6 647 -11 578 -11 c 0
 471 -11 422 25 399 44 c 1
 398 44 l 1
 331 -7 218 -11 173 -11 c 0
 74 -11 30 71 30 132 c 0
161 132 m 0
 161 111 176 62 233 62 c 0
 290 62 345 91 345 123 c 0
 345 138 330 157 329 222 c 1
 262 219 221 206 196 190 c 0
 169 172 161 151 161 132 c 0
468 304 m 1
 647 304 l 1
 645 329 640 355 629 376 c 0
 617 399 597 416 565 416 c 0xe8
 534 416 514 402 499 384 c 0
 483 365 474 328 468 304 c 1
EndSplineSet
EndChar
StartChar: ecircumflex
Encoding: 234 234 191
Width: 511
Flags: MW
LayerCount: 2
Fore
SplineSet
81 541 m 1
 200 692 l 1
 310 692 l 1
 429 541 l 1
 369 541 l 2
 347 542 351 548 254 631 c 1
 155 542 160 542 140 541 c 2
 81 541 l 1
EndSplineSet
Refer: 69 101 S 1 0 0 1 0 0 2
EndChar
StartChar: igrave
Encoding: 236 236 176
Width: 256
Flags: MW
LayerCount: 2
Fore
SplineSet
-40 681 m 1
 97 681 l 1
 195 542 l 1
 122 542 l 1
 -40 681 l 1
EndSplineSet
Refer: 95 305 N 1 0 0 1 0 0 2
EndChar
StartChar: iacute
Encoding: 237 237 177
Width: 256
Flags: MW
LayerCount: 2
Fore
SplineSet
29 542 m 1
 128 681 l 1
 264 681 l 1
 102 542 l 1
 29 542 l 1
EndSplineSet
Refer: 95 305 N 1 0 0 1 0 0 2
EndChar
StartChar: icircumflex
Encoding: 238 238 173
Width: 256
Flags: MW
LayerCount: 2
Fore
SplineSet
-45 541 m 1
 74 692 l 1
 183 692 l 1
 302 541 l 1
 229 541 l 1
 129 631 l 1
 128 631 l 1xe0
 28 541 l 1
 -45 541 l 1
EndSplineSet
Refer: 95 305 S 1 0 0 1 1 0 2
EndChar
StartChar: eth
Encoding: 240 240 197
Width: 550
Flags: MW
LayerCount: 2
Fore
SplineSet
30 231 m 0
 30 325 55 386 93 426 c 0
 139 474 205 489 273 489 c 0
 285 489 298 489 311 488 c 1
 292 513 271 537 246 555 c 1
 246 555 l 1
 178 516 l 1
 128 603 l 1
 145 614 l 1
 120 624 114 623 98 627 c 1
 178 695 l 1
 215 685 l 1
 246 675 l 2
 314 716 l 1
 367 625 l 1
 349 615 l 1
 437 546 503 443 516 323 c 0
 518 305 518 288 518 270 c 2
 518 243 l 2
 518 176 507 115 475 70 c 0
 440 20 378 -11 274 -11 c 0
 184 -11 125 13 88 52 c 0
 44 98 30 163 30 231 c 0
167 260 m 0
 167 189 168 127 199 94 c 0
 215 77 238 67 274 67 c 0
 309 67 334 76 351 96 c 0
 374 123 382 168 382 233 c 2
 382 247 l 2
 381 290 382 350 351 386 c 0
 335 404 311 416 274 416 c 0
 231 416 205 401 190 378 c 0
 170 348 167 303 167 260 c 0
EndSplineSet
EndChar
StartChar: divide
Encoding: 247 247 186
Width: 672
Flags: MW
LayerCount: 2
Fore
SplineSet
60 263 m 0
 60 283 74 302 97 305 c 2
 553 305 l 2
 570 305 581 305 592 297 c 0
 603 289 609 277 609 263 c 0
 609 255 607 245 600 237 c 4
 593 228 580 222 558 222 c 2
 109 222 l 2
 65 222 60 253 60 263 c 0
228 -51 m 2
 228 61 l 2
 228 108 262 111 276 111 c 2
 394 111 l 2
 439 111 442 79 442 59 c 2
 442 -53 l 2
 442 -80 432 -103 393 -103 c 2
 276 -103 l 2
 235 -103 228 -76 228 -51 c 2
228 468 m 2
 228 580 l 2
 228 627 261 630 276 630 c 2
 396 630 l 2
 437 630 442 600 442 578 c 2
 442 466 l 2
 442 439 432 416 393 416 c 2
 275 416 l 2
 235 416 228 443 228 468 c 2
EndSplineSet
EndChar
StartChar: oslash
Encoding: 248 248 116
Width: 550
Flags: MW
LayerCount: 2
Fore
SplineSet
30 232 m 0
 30 312 48 386 101 434 c 0
 139 468 195 489 274 489 c 0
 319 489 342 484 371 477 c 1
 427 574 l 1
 427 574 l 1
 490 538 l 1
 436 443 l 1
 467 420 518 368 518 230 c 0
 518 139 492 80 451 43 c 0
 405 2 341 -11 274 -11 c 0
 240 -11 210 -8 180 -0 c 1
 122 -101 l 1
 59 -65 l 1
 113 31 l 1
 77 57 30 107 30 232 c 0
150 226 m 2
 150 208 150 186 153 166 c 0
 155 150 159 134 166 120 c 1
 330 406 l 1
 314 413 296 417 274 417 c 0
 230 417 201 404 183 382 c 0
 154 348 150 293 150 240 c 2
 150 226 l 2
220 70 m 1
 238 64 256 61 274 61 c 0
 330 61 360 80 377 108 c 0
 398 142 398 189 398 232 c 2
 398 239 l 2
 398 260 398 280 396 300 c 0
 394 317 390 333 383 352 c 1
 383 352 l 1
 220 70 l 1
EndSplineSet
EndChar
StartChar: thorn
Encoding: 254 254 188
Width: 561
Flags: MW
LayerCount: 2
Fore
SplineSet
60 -167 m 1
 60 695 l 1
 194 695 l 1
 194 422 l 1
 235 455 290 483 364 483 c 0
 460 483 523 416 523 238 c 0
 523 59 444 -11 326 -11 c 0
 268 -11 229 12 197 44 c 1
 197 -167 l 1
 60 -167 l 1
197 96 m 1
 203 91 227 62 273 62 c 0
 311 62 343 80 361 110 c 0
 389 156 385 205 386 247 c 2
 385 271 l 2
 383 298 378 344 352 375 c 4
 337 393 315 405 283 405 c 0
 231 405 198 374 197 374 c 1
 197 96 l 1
EndSplineSet
EndChar
StartChar: Amacron
Encoding: 256 256 325
Width: 733
Flags: MW
LayerCount: 2
Fore
SplineSet
31 809 m 0
 31 825 40 851 80 851 c 2
 647 851 l 2
 694 851 701 826 701 809 c 0
 701 794 694 767 649 767 c 2
 81 767 l 2
 36 767 31 795 31 809 c 0
EndSplineSet
Refer: 33 65 N 1 0 0 1 0 0 3
EndChar
StartChar: amacron
Encoding: 257 257 325
Width: 525
Flags: MW
LayerCount: 2
Fore
SplineSet
84 580 m 1
 84 665 l 1
 481 665 l 1
 481 580 l 1
 84 580 l 1
EndSplineSet
Refer: 65 97 N 1 0 0 1 0 0 3
EndChar
StartChar: Abreve
Encoding: 258 258 476
Width: 733
Flags: MW
LayerCount: 2
Fore
SplineSet
151 903 m 1
 224 903 l 1
 230 832 313 823 341 823 c 0
 369 823 451 832 457 903 c 1
 530 903 l 1
 527 793 433 730 341 730 c 0
 246 730 155 794 151 903 c 1
EndSplineSet
Refer: 33 65 S 1 0 0 1 0 0 2
EndChar
StartChar: Aogonek
Encoding: 260 260 321
Width: 733
Flags: MW
LayerCount: 2
Fore
SplineSet
642 0 m 17
 610 0 537 -49 540 -80 c 1
 542 -87 l 1
 545 -93 l 1
 556 -103 566 -107 585 -107 c 0
 614 -107 643 -97 657 -92 c 1
 676 -162 l 1
 644 -176 606 -189 560 -189 c 0
 496 -189 447 -161 447 -118 c 0
 447 -71 505 -25 548 0 c 1
 642 0 l 17
EndSplineSet
Refer: 33 65 N 1 0 0 1 0 0 2
EndChar
StartChar: aogonek
Encoding: 261 261 232
Width: 525
Flags: MW
LayerCount: 2
Fore
SplineSet
424 0 m 17
 392 0 319 -49 322 -80 c 1
 324 -87 l 1
 327 -93 l 1
 338 -103 348 -107 367 -107 c 0
 396 -107 425 -97 439 -92 c 1
 458 -162 l 1
 426 -176 388 -189 342 -189 c 0
 278 -189 229 -161 229 -118 c 0
 229 -71 287 -25 330 0 c 1
 424 0 l 17
EndSplineSet
Refer: 65 97 N 1 0 0 1 0 0 2
EndChar
StartChar: Cacute
Encoding: 262 262 478
Width: 703
Flags: MW
LayerCount: 2
Fore
SplineSet
257 765 m 1
 379 863 l 1
 572 863 l 1
 375 771 l 1
 362 767 l 1
 347 765 l 9
 287 765 l 1
 257 765 l 1
EndSplineSet
Refer: 35 67 N 1 0 0 1 0 0 2
EndChar
StartChar: Ccaron
Encoding: 268 268 246
Width: 703
Flags: MW
LayerCount: 2
Fore
SplineSet
197 903 m 1
 270 903 l 1
 377 800 l 1
 484 903 l 1
 556 903 l 1
 436 729 l 1
 317 729 l 1
 197 903 l 1
EndSplineSet
Refer: 35 67 N 1 0 0 1 0 0 2
EndChar
StartChar: Dcaron
Encoding: 270 270 345
Width: 794
Flags: MW
LayerCount: 2
Fore
SplineSet
213 903 m 5
 286 903 l 5
 393 800 l 5
 500 903 l 5
 573 903 l 5xec
 452 729 l 5
 334 729 l 5
 213 903 l 5
EndSplineSet
Refer: 36 68 N 1 0 0 1 0 0 2
EndChar
StartChar: dcaron
Encoding: 271 271 449
Width: 732
Flags: MW
LayerCount: 2
Fore
SplineSet
560 555 m 1
 599 629 l 1
 560 629 l 1
 560 760 l 1
 692 760 l 1
 692 642 l 1
 692 629 l 1
 625 555 l 1
 560 555 l 1
EndSplineSet
Refer: 68 100 N 1 0 0 1 0 0 2
EndChar
StartChar: dcroat
Encoding: 273 273 262
Width: 561
Flags: MW
LayerCount: 2
Fore
SplineSet
36 238 m 0
 36 316 48 398 105 445 c 0
 136 472 178 483 220 483 c 0
 283 483 330 458 365 428 c 1
 365 544 l 1
 196 544 l 1
 196 617 l 1
 365 617 l 1
 365 695 l 1
 499 695 l 1
 499 617 l 1
 585 617 l 1
 585 544 l 1
 499 544 l 1xfa
 499 -0 l 1
 362 -0 l 1
 362 52 l 1
 325 15 282 -11 219 -11 c 0
 188 -11 111 -5 68 72 c 0
 43 118 36 172 36 238 c 0
172 213 m 0
 172 179 176 121 197 94 c 0
 215 72 245 61 273 61 c 0
 333 61 359 102 362 103 c 1
 362 382 l 1
 359 384 357 386 354 388 c 0
 332 403 313 411 285 411 c 0xfc
 282 411 279 411 276 411 c 0
 243 409 221 399 205 383 c 0
 179 355 173 310 173 258 c 2
 173 233 l 1
 172 228 172 221 172 213 c 0
EndSplineSet
EndChar
StartChar: Emacron
Encoding: 274 274 213
Width: 642
Flags: MW
LayerCount: 2
Fore
SplineSet
8 809 m 0
 8 825 17 851 57 851 c 2
 624 851 l 2
 671 851 678 826 678 809 c 0
 678 794 671 767 626 767 c 2
 58 767 l 2
 13 767 8 795 8 809 c 0
EndSplineSet
Refer: 37 69 N 1 0 0 1 0 0 3
EndChar
StartChar: emacron
Encoding: 275 275 210
Width: 511
Flags: MW
LayerCount: 2
Fore
SplineSet
71 580 m 1
 71 665 l 1
 468 665 l 1
 468 580 l 1
 71 580 l 1
EndSplineSet
Refer: 69 101 N 1 0 0 1 0 0 3
EndChar
StartChar: Eogonek
Encoding: 280 280 463
Width: 642
Flags: MW
LayerCount: 2
Fore
SplineSet
561 0 m 17
 529 0 456 -49 459 -80 c 1
 461 -87 l 1
 464 -93 l 1
 475 -103 485 -107 504 -107 c 0
 533 -107 562 -97 576 -92 c 1
 595 -162 l 1
 563 -176 525 -189 479 -189 c 0
 415 -189 366 -161 366 -118 c 0
 366 -71 424 -25 467 0 c 1
 561 0 l 17
EndSplineSet
Refer: 37 69 N 1 0 0 1 0 0 2
EndChar
StartChar: eogonek
Encoding: 281 281 476
Width: 511
Flags: MW
LayerCount: 2
Fore
SplineSet
30 240 m 0
 30 345 62 408 111 445 c 0
 155 478 211 489 269 489 c 0
 336 489 383 472 414 446 c 0
 470 399 479 321 479 250 c 1
 158 250 l 1
 158 202 160 149 189 108 c 0
 201 91 229 62 289 62 c 0
 374 62 433 103 466 129 c 1
 473 38 l 1
 400 -2 404 16 355 -14 c 0
 343 -21 328 -31 316 -43 c 0
 303 -55 293 -70 294 -84 c 1
 296 -91 299 -97 306 -102 c 0
 312 -106 321 -108 334 -108 c 0
 364 -108 402 -94 409 -92 c 1
 428 -162 l 1
 395 -176 358 -189 312 -189 c 0
 281 -189 254 -182 234 -171 c 4
 212 -159 199 -141 199 -118 c 0
 199 -75 243 -37 281 -11 c 1
 279 -11 278 -11 276 -11 c 0
 212 -9 150 4 105 41 c 0
 59 78 30 141 30 240 c 0
162 304 m 1
 366 304 l 1
 362 340 353 365 340 382 c 0
 320 409 293 416 270 416 c 0
 232 416 207 399 191 378 c 0
 171 352 165 319 162 304 c 1
EndSplineSet
EndChar
StartChar: Gbreve
Encoding: 286 286 323
Width: 733
Flags: MW
LayerCount: 2
Fore
SplineSet
188 903 m 5
 260 903 l 5
 266 832 348 824 377 824 c 4xfd
 405 824 486 832 492 903 c 5
 565 903 l 5
 562 793 470 730 376 730 c 4
 282 730 191 795 188 903 c 5
EndSplineSet
Refer: 39 71 N 1 0 0 1 0 0 2
EndChar
StartChar: Gcommaaccent
Encoding: 290 290 514
Width: 733
Flags: MW
LayerCount: 2
Fore
SplineSet
354 -63 m 1
 446 -63 l 1
 446 -141 l 2
 444 -166 448 -147 400 -232 c 1
 354 -232 l 1
 381 -154 l 1
 354 -154 l 1
 354 -63 l 1
EndSplineSet
Refer: 39 71 N 1 0 0 1 0 0 2
EndChar
StartChar: Hbar
Encoding: 294 294 311
Width: 794
Flags: MW
LayerCount: 2
Fore
SplineSet
31 587 m 0
 31 603 40 629 80 629 c 2
 91 629 l 1
 91 695 l 1
 239 695 l 1
 239 629 l 1
 554 629 l 1
 554 695 l 1
 702 695 l 1
 702 629 l 1
 716 629 l 2
 763 629 770 604 770 587 c 0
 770 572 763 545 718 545 c 2
 702 545 l 1
 702 0 l 1
 554 0 l 1
 554 314 l 1
 239 314 l 1
 239 0 l 1
 91 0 l 1
 91 545 l 1
 81 545 l 2
 36 545 31 573 31 587 c 0
554 545 m 1
 239 545 l 1
 239 409 l 1
 554 409 l 1
 554 545 l 1
EndSplineSet
EndChar
StartChar: hbar
Encoding: 295 295 375
Width: 617
Flags: MW
LayerCount: 2
Fore
SplineSet
-6 511 m 1
 -6 583 l 1
 116 583 l 1
 116 695 l 1
 250 695 l 1
 250 583 l 1
 405 583 l 1
 405 511 l 1
 250 511 l 1
 250 379 l 1
 260 400 279 430 310 452 c 0
 335 470 368 483 411 483 c 0
 464 483 498 471 520 452 c 0
 555 421 558 369 558 314 c 0
 558 300 557 286 557 273 c 2
 557 0 l 1
 421 0 l 1
 421 327 l 2
 421 351 418 373 408 388 c 4
 398 402 382 411 353 411 c 0
 326 411 305 400 290 384 c 0
 266 359 255 321 253 291 c 2
 253 0 l 1
 116 0 l 1
 116 511 l 1
 -6 511 l 1
EndSplineSet
EndChar
StartChar: Itilde
Encoding: 296 296 333
Width: 331
Flags: MW
LayerCount: 2
Fore
SplineSet
-18 813 m 1xd7
 -16 892 31 946 93 946 c 0xcf
 162 946 188 892 232 886 c 0xd7
 245 885 248 888 252 889 c 1
 267 900 275 910 276 946 c 1xe7
 349 946 l 1xcf
 347 867 300 813 238 813 c 0xd7
 169 813 143 867 99 872 c 0xcf
 85 874 87 871 79 869 c 1
 64 858 56 849 55 813 c 1xe7
 -18 813 l 1xd7
EndSplineSet
Refer: 41 73 N 1 0 0 1 0 0 2
EndChar
StartChar: imacron
Encoding: 299 299 206
Width: 256
Flags: MW
LayerCount: 2
Fore
SplineSet
0 580 m 1
 0 665 l 1
 256 665 l 1
 256 580 l 1
 0 580 l 1
EndSplineSet
Refer: 95 305 N 1 0 0 1 0 0 2
EndChar
StartChar: Iogonek
Encoding: 302 302 315
Width: 331
Flags: MW
LayerCount: 2
Fore
SplineSet
240 0 m 17
 208 0 135 -49 138 -80 c 1
 140 -87 l 1
 143 -93 l 1
 154 -103 164 -107 183 -107 c 0
 212 -107 241 -97 255 -92 c 1
 274 -162 l 1
 242 -176 204 -189 158 -189 c 0
 94 -189 45 -161 45 -118 c 0
 45 -71 103 -25 146 0 c 1
 240 0 l 17
EndSplineSet
Refer: 41 73 N 1 0 0 1 0 0 2
EndChar
StartChar: iogonek
Encoding: 303 303 554
Width: 256
Flags: MW
LayerCount: 2
Fore
SplineSet
194 0 m 17
 162 0 89 -49 92 -80 c 1
 94 -87 l 1
 97 -93 l 1
 108 -103 118 -107 137 -107 c 0
 166 -107 195 -97 209 -92 c 1
 228 -162 l 1
 196 -176 158 -189 112 -189 c 0
 48 -189 -1 -161 -1 -118 c 0
 -1 -71 57 -25 100 0 c 1
 194 0 l 17
EndSplineSet
Refer: 73 105 N 1 0 0 1 0 0 2
EndChar
StartChar: dotlessi
Encoding: 305 305 95
Width: 256
Flags: MW
LayerCount: 2
Fore
SplineSet
60 0 m 1
 60 472 l 1
 194 472 l 1
 194 0 l 1
 60 0 l 1
EndSplineSet
EndChar
StartChar: Kcommaaccent
Encoding: 310 310 328
Width: 764
Flags: MW
LayerCount: 2
Fore
SplineSet
309 -63 m 1
 401 -63 l 1
 401 -141 l 2
 399 -166 403 -147 355 -232 c 1
 309 -232 l 1
 336 -154 l 1
 309 -154 l 1
 309 -63 l 1
EndSplineSet
Refer: 43 75 N 1 0 0 1 0 0 2
EndChar
StartChar: kcommaaccent
Encoding: 311 311 346
Width: 531
Flags: MW
LayerCount: 2
Fore
SplineSet
210 -63 m 1
 302 -63 l 1
 302 -141 l 2
 300 -166 304 -147 256 -232 c 1
 210 -232 l 1
 237 -154 l 1
 210 -154 l 1
 210 -63 l 1
EndSplineSet
Refer: 75 107 N 1 0 0 1 0 0 2
EndChar
StartChar: Lacute
Encoding: 313 313 477
Width: 581
Flags: MW
LayerCount: 2
Fore
SplineSet
221 765 m 1
 343 863 l 1
 536 863 l 1
 339 771 l 1
 326 767 l 1
 311 765 l 9
 251 765 l 1
 221 765 l 1
EndSplineSet
Refer: 44 76 N 1 0 0 1 1 0 2
EndChar
StartChar: lacute
Encoding: 314 314 445
Width: 256
Flags: MW
LayerCount: 2
Fore
SplineSet
34 765 m 1
 156 863 l 1
 349 863 l 1
 152 771 l 1
 139 767 l 1
 124 765 l 9
 64 765 l 1
 34 765 l 1
EndSplineSet
Refer: 76 108 N 1 0 0 1 0 0 2
EndChar
StartChar: Lcommaaccent
Encoding: 315 315 302
Width: 581
Flags: MW
LayerCount: 2
Fore
SplineSet
250 -63 m 1
 342 -63 l 1
 342 -141 l 2
 340 -166 344 -147 296 -232 c 1
 250 -232 l 1
 277 -154 l 1
 250 -154 l 1
 250 -63 l 1
EndSplineSet
Refer: 44 76 N 1 0 0 1 0 0 2
EndChar
StartChar: lcommaaccent
Encoding: 316 316 315
Width: 256
Flags: MW
LayerCount: 2
Fore
SplineSet
84 -63 m 1
 176 -63 l 1
 176 -141 l 2
 174 -166 178 -147 130 -232 c 1
 84 -232 l 1
 111 -154 l 1
 84 -154 l 1
 84 -63 l 1
EndSplineSet
Refer: 76 108 N 1 0 0 1 0 0 2
EndChar
StartChar: Lcaron
Encoding: 317 317 414
Width: 581
Flags: MW
LayerCount: 2
Fore
SplineSet
330 621 m 1
 369 695 l 1
 330 695 l 1
 330 826 l 1
 462 826 l 1
 462 708 l 1
 462 695 l 1
 395 621 l 1
 330 621 l 1
EndSplineSet
Refer: 44 76 N 1 0 0 1 0 0 2
EndChar
StartChar: lcaron
Encoding: 318 318 250
Width: 426
Flags: MW
LayerCount: 2
Fore
SplineSet
255 555 m 1
 294 629 l 1
 255 629 l 1
 255 760 l 1
 387 760 l 1
 387 642 l 1
 387 629 l 1
 320 555 l 1
 255 555 l 1
EndSplineSet
Refer: 76 108 N 1 0 0 1 0 0 2
EndChar
StartChar: Lslash
Encoding: 321 321 118
Width: 672
Flags: MW
LayerCount: 2
Fore
SplineSet
73 275 m 1
 183 362 l 1
 183 695 l 1x70
 331 695 l 1
 331 481 l 1
 454 581 l 1
 514 506 l 1
 331 360 l 1
 331 101 l 1x70
 522 104 l 5
 626 105 l 1
 626 0 l 1xb0
 183 0 l 1
 183 240 l 1
 133 200 l 1
 73 275 l 1
EndSplineSet
EndChar
StartChar: lslash
Encoding: 322 322 136
Width: 381
Flags: MW
LayerCount: 2
Fore
SplineSet
16 270 m 1
 121 354 l 1
 121 695 l 1
 255 695 l 1
 255 461 l 1
 332 523 l 1
 377 466 l 1
 255 368 l 1
 255 0 l 1
 121 0 l 1
 121 261 l 1
 61 213 l 1
 16 270 l 1
EndSplineSet
EndChar
StartChar: Nacute
Encoding: 323 323 249
Width: 794
Flags: MW
LayerCount: 2
Fore
SplineSet
258 764 m 1
 380 862 l 1
 573 862 l 1
 376 770 l 1
 363 766 l 1
 348 764 l 9
 288 764 l 1
 258 764 l 1
EndSplineSet
Refer: 46 78 N 1 0 0 1 0 0 2
EndChar
StartChar: Ncommaaccent
Encoding: 325 325 303
Width: 794
Flags: MW
LayerCount: 2
Fore
SplineSet
326 -63 m 1
 418 -63 l 1
 418 -141 l 2
 416 -166 420 -147 372 -232 c 1
 326 -232 l 1
 353 -154 l 1
 326 -154 l 1
 326 -63 l 1
EndSplineSet
Refer: 46 78 N 1 0 0 1 0 0 2
EndChar
StartChar: ncommaaccent
Encoding: 326 326 349
Width: 561
Flags: MW
LayerCount: 2
Fore
SplineSet
230 -63 m 1
 322 -63 l 1
 322 -141 l 2
 320 -166 324 -147 276 -232 c 1
 230 -232 l 1
 257 -154 l 1
 230 -154 l 1
 230 -63 l 1
EndSplineSet
Refer: 78 110 N 1 0 0 1 0 0 2
EndChar
StartChar: Ncaron
Encoding: 327 327 275
Width: 794
Flags: MW
LayerCount: 2
Fore
SplineSet
217 903 m 1
 290 903 l 1
 397 800 l 1
 504 903 l 1
 576 903 l 1
 456 729 l 1
 337 729 l 1
 217 903 l 1
EndSplineSet
Refer: 46 78 S 1 0 0 1 0 0 2
EndChar
StartChar: napostrophe
Encoding: 329 329 481
Width: 561
Flags: MW
LayerCount: 2
Fore
SplineSet
32 555 m 1
 71 629 l 1
 32 629 l 1
 32 760 l 1
 164 760 l 1
 164 642 l 1
 164 629 l 1
 97 555 l 1
 32 555 l 1
EndSplineSet
Refer: 78 110 N 1 0 0 1 0 0 2
EndChar
StartChar: Eng
Encoding: 330 330 385
Width: 794
Flags: MW
LayerCount: 2
Fore
SplineSet
554 0 m 1
 702 0 l 1
 702 -30 l 2
 702 -89 684 -129 658 -156 c 4
 625 -190 579 -202 539 -202 c 0
 476 -202 423 -183 381 -161 c 1
 403 -40 l 1
 422 -87 454 -105 487 -105 c 0
 506 -105 537 -99 549 -63 c 0
 552 -53 554 -40 554 -25 c 2
 554 0 l 1
91 0 m 1
 91 695 l 1
 283 695 l 1
 539 196 l 1
 578 120 l 1
 578 695 l 1
 702 695 l 1
 702 0 l 1
 510 0 l 1
 243 518 l 1
 214 574 l 1
 214 0 l 1
 91 0 l 1
EndSplineSet
EndChar
StartChar: eng
Encoding: 331 331 238
Width: 561
Flags: MW
LayerCount: 2
Fore
SplineSet
59 0 m 1xf6
 59 478 l 1
 190 478 l 1
 190 415 l 1
 191 373 l 1
 201 396 220 427 251 450 c 0
 276 469 310 483 354 483 c 0
 414 483 450 468 471 444 c 0
 498 413 501 365 501 315 c 0
 501 301 500 288 500 274 c 2
 500 0 l 1
 499 0 l 1
 499 -6 l 2
 499 -31 495 -120 435 -157 c 0
 409 -173 378 -178 348 -178 c 0
 290 -178 237 -162 203 -148 c 1
 238 -76 l 1
 260 -86 276 -93 303 -93 c 0
 324 -93 338 -88 347 -80 c 4
 365 -65 365 -41 365 -30 c 2
 365 0 l 1
 364 0 l 1
 364 327 l 2xfa
 364 349 362 369 354 384 c 0
 345 401 327 411 296 411 c 0
 269 411 247 400 232 383 c 0
 209 358 198 321 196 291 c 2
 196 0 l 1
 59 0 l 1xf6
EndSplineSet
EndChar
StartChar: Omacron
Encoding: 332 332 329
Width: 794
Flags: MW
LayerCount: 2
Fore
SplineSet
61 809 m 0
 61 825 70 851 110 851 c 2
 677 851 l 2
 724 851 731 826 731 809 c 0
 731 794 724 767 679 767 c 2
 111 767 l 2
 66 767 61 795 61 809 c 0
EndSplineSet
Refer: 47 79 N 1 0 0 1 0 0 3
EndChar
StartChar: omacron
Encoding: 333 333 259
Width: 550
Flags: MW
LayerCount: 2
Fore
SplineSet
76 580 m 1
 76 665 l 1
 473 665 l 1
 473 580 l 1
 76 580 l 1
EndSplineSet
Refer: 79 111 N 1 0 0 1 0 0 3
EndChar
StartChar: Ohungarumlaut
Encoding: 336 336 251
Width: 794
Flags: MW
LayerCount: 2
Fore
SplineSet
395 765 m 1
 517 863 l 1
 710 863 l 1
 513 771 l 1
 500 767 l 1
 485 765 l 9
 425 765 l 1
 395 765 l 1
212 765 m 1
 334 863 l 1
 527 863 l 1
 330 771 l 1
 317 767 l 1
 302 765 l 9
 242 765 l 1
 212 765 l 1
EndSplineSet
Refer: 47 79 N 1 0 0 1 0 0 2
EndChar
StartChar: OE
Encoding: 338 338 133
Width: 1069
Flags: MW
LayerCount: 2
Fore
SplineSet
30 344 m 0
 30 506 84 602 162 656 c 0
 228 701 310 717 392 717 c 0x9380
 468 717 515 695 604 695 c 2x1580
 1008 695 l 1
 1008 590 l 1x1980
 958 590 l 1
 938 591 l 1
 712 593 l 1
 664 593 l 1
 664 409 l 1
 977 409 l 1
 977 314 l 1
 664 314 l 1
 664 107 l 1x3580
 754 108 l 1
 780 108 l 1
 958 110 l 5
 980 111 l 1
 1023 111 l 1
 1023 -0 l 1x5180
 604 -0 l 2x3180
 516 0 469 -22 392 -22 c 0
 304 -22 217 -5 151 44 c 0
 79 98 30 191 30 344 c 0
175 363 m 2
 176 315 l 2
 181 216 207 154 242 114 c 0
 288 62 349 50 400 50 c 0
 502 50 519 85 519 199 c 2
 519 488 l 2
 518 618 493 644 401 644 c 0x9380
 394 644 387 643 380 643 c 0
 313 639 268 615 238 582 c 0
 170 509 176 392 175 363 c 2
EndSplineSet
EndChar
StartChar: oe
Encoding: 339 339 125
Width: 856
Flags: MW
LayerCount: 2
Fore
SplineSet
30 239 m 0
 30 352 68 417 124 452 c 0
 167 479 220 489 275 489 c 0
 326 489 363 482 391 472 c 0
 422 461 442 446 456 434 c 1
 468 445 490 462 526 474 c 0
 552 483 585 489 627 489 c 0
 702 489 748 465 777 431 c 0
 799 405 811 372 817 342 c 4
 825 304 823 269 824 250 c 1
 526 250 l 1
 526 218 527 187 533 159 c 0
 539 130 551 105 573 86 c 0
 593 69 618 62 645 62 c 0
 737 62 794 115 810 129 c 1
 818 38 l 1
 763 6 707 -11 639 -11 c 0
 593 -11 559 -5 532 4 c 0
 495 16 473 34 457 46 c 1
 447 36 430 23 404 12 c 0
 375 -1 335 -11 277 -11 c 0
 199 -11 144 8 106 38 c 0
 48 85 30 160 30 239 c 0
161 238 m 0
 161 179 164 129 189 97 c 0
 206 75 234 62 277 62 c 0
 333 62 361 86 375 122 c 0
 388 155 389 199 389 241 c 2
 389 256 l 2
 389 350 373 369 357 389 c 1
 334 407 313 417 275 417 c 0
 233 417 207 405 190 385 c 0
 161 351 161 295 161 238 c 0
529 304 m 1
 708 304 l 1
 706 329 700 357 688 378 c 0
 676 400 657 416 626 416 c 0
 591 416 568 398 554 376 c 0
 534 346 530 310 529 304 c 1
EndSplineSet
EndChar
StartChar: Racute
Encoding: 340 340 430
Width: 703
Flags: MW
LayerCount: 2
Fore
SplineSet
197 764 m 1
 319 862 l 1
 512 862 l 1
 315 770 l 1
 302 766 l 1
 287 764 l 9
 227 764 l 1
 197 764 l 1
EndSplineSet
Refer: 50 82 N 1 0 0 1 0 0 2
EndChar
StartChar: Rcommaaccent
Encoding: 342 342 329
Width: 703
Flags: MW
LayerCount: 2
Fore
SplineSet
295 -63 m 1
 387 -63 l 1
 387 -141 l 2
 385 -166 389 -147 341 -232 c 1
 295 -232 l 1
 322 -154 l 1
 295 -154 l 1
 295 -63 l 1
EndSplineSet
Refer: 50 82 N 1 0 0 1 0 0 2
EndChar
StartChar: rcommaaccent
Encoding: 343 343 350
Width: 372
Flags: MW
LayerCount: 2
Fore
SplineSet
129 -63 m 1
 221 -63 l 1
 221 -141 l 2
 219 -166 223 -147 175 -232 c 1
 129 -232 l 1
 156 -154 l 1
 129 -154 l 1
 129 -63 l 1
EndSplineSet
Refer: 82 114 N 1 0 0 1 0 0 2
EndChar
StartChar: Rcaron
Encoding: 344 344 252
Width: 703
Flags: MW
LayerCount: 2
Fore
SplineSet
149 903 m 1
 222 903 l 1
 329 800 l 1
 436 903 l 1
 509 903 l 1xf4
 388 729 l 1
 270 729 l 1
 149 903 l 1
EndSplineSet
Refer: 50 82 S 1 0 0 1 0 0 2
EndChar
StartChar: Sacute
Encoding: 346 346 255
Width: 611
Flags: MW
LayerCount: 2
Fore
SplineSet
151 765 m 1
 273 863 l 1
 466 863 l 1
 269 771 l 1
 256 767 l 1
 241 765 l 9
 181 765 l 1
 151 765 l 1
EndSplineSet
Refer: 51 83 N 1 0 0 1 0 0 2
EndChar
StartChar: Scaron
Encoding: 352 352 199
Width: 611
Flags: MW
LayerCount: 2
Fore
SplineSet
125 903 m 1
 198 903 l 1
 305 800 l 1
 412 903 l 1
 485 903 l 1xe8
 364 729 l 1
 246 729 l 1
 125 903 l 1
EndSplineSet
Refer: 51 83 S 1 0 0 1 0 0 2
EndChar
StartChar: tcedilla
Encoding: 355 355 268
Width: 404
Flags: MW
LayerCount: 2
Fore
SplineSet
20 400 m 1
 20 472 l 1
 90 472 l 1
 90 607 l 1
 218 607 l 1
 218 472 l 1xf4
 355 472 l 1
 355 400 l 1
 218 400 l 1
 218 150 l 2
 218 89 236 67 269 67 c 0xf8
 308 67 334 86 355 103 c 1
 373 33 l 1
 318 7 261 -11 187 -11 c 0
 90 -11 87 85 87 138 c 2
 87 400 l 1xf8
 20 400 l 1
EndSplineSet
Refer: 110 184 S 1 0 0 1 20 0 2
EndChar
StartChar: Tcaron
Encoding: 356 356 257
Width: 733
Flags: MW
LayerCount: 2
Fore
SplineSet
186 903 m 1
 259 903 l 1
 366 800 l 1
 473 903 l 1
 546 903 l 1xf0
 425 729 l 1
 307 729 l 1
 186 903 l 1
EndSplineSet
Refer: 52 84 S 1 0 0 1 0 0 2
EndChar
StartChar: tcaron
Encoding: 357 357 454
Width: 404
Flags: MW
LayerCount: 2
Fore
SplineSet
289 533 m 1
 328 607 l 1
 289 607 l 1
 289 738 l 1
 421 738 l 1
 421 620 l 1
 421 607 l 1
 354 533 l 1
 289 533 l 1
EndSplineSet
Refer: 84 116 N 1 0 0 1 0 0 2
EndChar
StartChar: Tbar
Encoding: 358 358 287
Width: 733
Flags: MW
LayerCount: 2
Fore
SplineSet
39 584 m 1
 39 689 l 1
 693 689 l 1
 693 584 l 1
 440 588 l 1
 440 356 l 1
 588 356 l 1
 588 283 l 1
 440 283 l 1
 440 0 l 1
 292 0 l 1
 292 283 l 1
 134 283 l 1
 134 356 l 1
 292 356 l 1
 292 588 l 1
 39 584 l 1
EndSplineSet
EndChar
StartChar: tbar
Encoding: 359 359 320
Width: 404
Flags: MW
LayerCount: 2
Fore
SplineSet
20 400 m 1
 20 472 l 1
 90 472 l 1
 90 607 l 1
 218 607 l 1
 218 472 l 1
 355 472 l 1
 355 400 l 1
 218 400 l 1
 218 294 l 1
 352 294 l 1
 352 221 l 1
 218 221 l 1
 218 158 l 2
 218 126 221 102 231 86 c 0
 239 74 251 67 270 67 c 0
 321 67 352 103 355 103 c 2
 373 33 l 1
 318 7 261 -11 187 -11 c 0
 155 -11 133 0 118 16 c 0
 88 49 87 106 87 142 c 2
 87 221 l 1
 19 221 l 1
 19 294 l 1
 87 294 l 1
 87 400 l 1
 20 400 l 1
EndSplineSet
EndChar
StartChar: Utilde
Encoding: 360 360 272
Width: 764
Flags: MW
LayerCount: 2
Fore
SplineSet
200 813 m 1xd3
 202 892 250 946 311 946 c 0xcb
 380 946 406 892 450 886 c 0xd3
 464 885 466 888 470 889 c 1
 485 900 493 910 494 946 c 1xe3
 567 946 l 1xcb
 565 867 518 813 456 813 c 0xd3
 388 813 361 867 317 872 c 0xcb
 304 874 305 871 297 869 c 1
 283 858 275 849 273 813 c 1xe3
 200 813 l 1xd3
EndSplineSet
Refer: 53 85 S 1 0 0 1 0 0 2
EndChar
StartChar: Uring
Encoding: 366 366 271
Width: 764
Flags: MW
LayerCount: 2
Fore
SplineSet
261 781 m 0
 261 843 286 903 385 903 c 0
 455 903 506 870 506 779 c 0
 506 716 481 657 383 657 c 0
 312 657 261 689 261 781 c 0
323 780 m 0
 323 758 328 745 337 738 c 0
 347 729 363 729 381 729 c 2
 382 729 l 2
 402 730 421 730 433 741 c 0
 440 748 445 759 445 779 c 0
 445 800 441 812 433 819 c 0
 422 829 406 830 386 830 c 2xdf
 384 830 l 2
 361 830 345 829 335 820 c 0
 327 813 323 800 323 780 c 0
EndSplineSet
Refer: 53 85 N 1 0 0 1 0 0 2
EndChar
StartChar: Uhungarumlaut
Encoding: 368 368 469
Width: 764
Flags: MW
LayerCount: 2
Fore
SplineSet
380 765 m 1
 502 863 l 1
 695 863 l 1
 498 771 l 1
 485 767 l 1
 470 765 l 9
 410 765 l 1
 380 765 l 1
197 765 m 1
 319 863 l 1
 512 863 l 1
 315 771 l 1
 302 767 l 1
 287 765 l 9
 227 765 l 1
 197 765 l 1
EndSplineSet
Refer: 53 85 N 1 0 0 1 0 0 2
EndChar
StartChar: Uogonek
Encoding: 370 370 333
Width: 764
Flags: MW
LayerCount: 2
Fore
SplineSet
494 0 m 17
 462 0 389 -49 392 -80 c 1
 394 -87 l 1
 397 -93 l 1
 408 -103 418 -107 437 -107 c 0
 466 -107 495 -97 509 -92 c 1
 528 -162 l 1
 496 -176 458 -189 412 -189 c 0
 348 -189 299 -161 299 -118 c 0
 299 -71 357 -25 400 0 c 1
 494 0 l 17
EndSplineSet
Refer: 53 85 N 1 0 0 1 0 0 2
EndChar
StartChar: uogonek
Encoding: 371 371 318
Width: 561
Flags: MW
LayerCount: 2
Fore
SplineSet
500 0 m 17
 468 0 395 -49 398 -80 c 1
 400 -87 l 1
 403 -93 l 1
 414 -103 424 -107 443 -107 c 0
 472 -107 501 -97 515 -92 c 1
 534 -162 l 1
 502 -176 464 -189 418 -189 c 0
 354 -189 305 -161 305 -118 c 0
 305 -71 363 -25 406 0 c 1
 500 0 l 17
EndSplineSet
Refer: 85 117 N 1 0 0 1 0 0 2
EndChar
StartChar: Zacute
Encoding: 377 377 327
Width: 672
Flags: MW
LayerCount: 2
Fore
SplineSet
212 764 m 1
 334 862 l 1
 527 862 l 1
 330 770 l 1
 317 766 l 1
 302 764 l 9
 242 764 l 1
 212 764 l 1
EndSplineSet
Refer: 58 90 N 1 0 0 1 0 0 2
EndChar
StartChar: Zcaron
Encoding: 381 381 200
Width: 672
Flags: MW
LayerCount: 2
Fore
SplineSet
157 903 m 1
 229 903 l 1
 337 800 l 1
 443 903 l 1
 516 903 l 1x0c
 396 729 l 1
 277 729 l 1
 157 903 l 1
EndSplineSet
Refer: 58 90 S 1 0 0 1 0 0 2
EndChar
StartChar: florin
Encoding: 402 402 101
Width: 630
Flags: MW
LayerCount: 2
Fore
SplineSet
-3 -148 m 1
 39 -76 l 1
 61 -87 77 -93 107 -93 c 0
 165 -93 175 -75 179 -53 c 2
 275 400 l 1
 219 400 l 1
 235 472 l 1
 290 472 l 1
 300 516 306 554 320 588 c 0
 329 611 342 631 362 650 c 0
 378 665 404 683 449 695 c 0
 474 702 506 706 544 706 c 0
 581 706 601 702 633 695 c 1
 612 594 l 1
 599 608 581 633 527 633 c 0
 490 633 470 624 457 604 c 0
 440 578 435 535 421 472 c 1
 520 472 l 1
 504 400 l 1
 410 400 l 1
 318 -28 l 2
 312 -57 304 -90 285 -118 c 0
 274 -134 259 -148 239 -158 c 4
 215 -170 183 -178 140 -178 c 0
 83 -178 42 -168 -3 -148 c 1
EndSplineSet
EndChar
StartChar: Ghook
Encoding: 403 403 575
Width: 733
Flags: MW
LayerCount: 2
Fore
SplineSet
60 348 m 0
 60 575 164 717 427 717 c 0
 460 717 488 715 515 711 c 1
 523 763 546 804 594 829 c 0
 626 846 668 855 723 855 c 0
 752 855 772 849 786 841 c 4
 807 829 816 812 826 801 c 1
 793 711 l 1
 788 733 780 751 769 764 c 0
 759 775 746 782 727 782 c 0
 714 782 690 779 672 758 c 0
 662 747 654 731 651 708 c 0
 649 694 649 681 649 668 c 2
 626 537 l 1
 595 562 544 617 428 617 c 0
 248 617 208 483 208 348 c 0
 208 205 252 78 430 78 c 0
 476 78 513 87 522 88 c 1
 522 233 l 1
 426 233 l 1
 426 328 l 1
 659 328 l 1
 659 26 l 1
 594 -1 519 -22 426 -22 c 0
 133 -22 60 156 60 348 c 0
EndSplineSet
EndChar
StartChar: clickalveolar
Encoding: 450 450 377
Width: 611
Flags: MW
LayerCount: 2
Fore
SplineSet
60 136 m 1
 60 220 l 1
 236 220 l 1
 236 266 l 1
 60 266 l 1
 60 350 l 1
 236 350 l 1
 236 695 l 1
 373 695 l 1
 373 350 l 1
 549 350 l 1
 549 266 l 1
 373 266 l 1
 373 220 l 1
 549 220 l 1
 549 136 l 1
 373 136 l 1
 373 -167 l 1
 236 -167 l 1
 236 136 l 1
 60 136 l 1
EndSplineSet
EndChar
StartChar: Acaron
Encoding: 461 461 265
Width: 733
Flags: MW
LayerCount: 2
Fore
SplineSet
187 903 m 1
 260 903 l 1
 367 800 l 1
 474 903 l 1
 547 903 l 1xf4
 426 729 l 1
 308 729 l 1
 187 903 l 1
EndSplineSet
Refer: 33 65 N 1 0 0 1 0 0 3
EndChar
StartChar: Icaron
Encoding: 463 463 219
Width: 331
Flags: MW
LayerCount: 2
Fore
SplineSet
-15 903 m 1
 58 903 l 1
 165 800 l 1
 272 903 l 1
 345 903 l 1xf4
 224 729 l 1
 106 729 l 1
 -15 903 l 1
EndSplineSet
Refer: 41 73 N 1 0 0 1 0 0 3
EndChar
StartChar: Ocaron
Encoding: 465 465 269
Width: 794
Flags: MW
LayerCount: 2
Fore
SplineSet
217 903 m 1
 290 903 l 1
 397 800 l 1
 504 903 l 1
 577 903 l 1xf4
 456 729 l 1
 338 729 l 1
 217 903 l 1
EndSplineSet
Refer: 47 79 N 1 0 0 1 0 0 3
EndChar
StartChar: Ucaron
Encoding: 467 467 361
Width: 764
Flags: MW
LayerCount: 2
Fore
SplineSet
201 903 m 1
 274 903 l 1
 381 800 l 1
 488 903 l 1
 561 903 l 1xf4
 440 729 l 1
 322 729 l 1
 201 903 l 1
EndSplineSet
Refer: 53 85 N 1 0 0 1 0 0 3
EndChar
StartChar: Udieresismacron
Encoding: 469 469 527
Width: 764
Flags: MW
LayerCount: 2
Fore
SplineSet
46 1009 m 4
 46 1025 55 1051 95 1051 c 6
 662 1051 l 6
 709 1051 716 1026 716 1009 c 4
 716 994 709 967 664 967 c 6
 96 967 l 6
 51 967 46 995 46 1009 c 4
EndSplineSet
Refer: 166 220 N 1 0 0 1 0 0 2
EndChar
StartChar: udieresismacron
Encoding: 470 470 245
Width: 561
Flags: MW
LayerCount: 2
Fore
SplineSet
81 780 m 5
 81 865 l 5
 478 865 l 5
 478 780 l 5
 81 780 l 5
EndSplineSet
Refer: 191 252 N 1 0 0 1 0 0 2
EndChar
StartChar: Udieresisacute
Encoding: 471 471 334
Width: 764
Flags: MW
LayerCount: 2
Fore
SplineSet
289 965 m 5
 411 1063 l 5
 604 1063 l 5
 407 971 l 5
 394 967 l 5
 379 965 l 13
 319 965 l 5
 289 965 l 5
EndSplineSet
Refer: 164 220 N 1 0 0 1 0 0 2
EndChar
StartChar: Udieresisgrave
Encoding: 475 475 497
Width: 764
Flags: MW
LayerCount: 2
Fore
SplineSet
205 1063 m 5
 398 1063 l 5
 520 964 l 5
 433 964 l 5
 417 965 l 5
 403 970 l 5
 205 1063 l 5
EndSplineSet
Refer: 164 220 N 1 0 0 1 0 0 2
EndChar
StartChar: dotlessj
Encoding: 567 567 287
Width: 286
Flags: MW
LayerCount: 2
Fore
SplineSet
-70 -148 m 1
 -49 -76 l 1
 -21 -88 -4 -93 26 -93 c 0
 66 -93 83 -85 89 -72 c 0
 91 -67 92 -61 92 -55 c 2
 92 472 l 1
 226 472 l 1
 226 -34 l 2
 225 -63 227 -110 194 -143 c 0
 173 -164 138 -178 79 -178 c 0
 19 -178 -29 -165 -70 -148 c 1
EndSplineSet
EndChar
StartChar: aturn
Encoding: 592 592 600
Width: 525
Flags: MW
LayerCount: 2
Fore
SplineSet
59 157 m 2
 59 472 l 1
 193 472 l 1
 193 403 l 1
 229 456 292 483 354 483 c 0
 393 483 424 468 448 446 c 0
 476 419 493 381 493 343 c 0
 493 302 471 273 439 253 c 0
 364 206 232 205 196 202 c 1
 196 180 l 1
 196 161 l 2
 196 140 193 99 213 73 c 0
 223 59 240 50 267 50 c 0
 362 50 408 102 433 126 c 1
 441 26 l 1
 381 -4 334 -17 263 -17 c 0
 184 -17 133 0 102 31 c 0
 71 61 59 105 59 157 c 2
196 243 m 5
 240 246 301 254 336 284 c 0
 352 298 362 316 362 341 c 0
 362 346 361 352 360 357 c 0
 353 387 328 410 293 410 c 0
 275 410 248 405 226 388 c 0
 208 374 195 352 195 319 c 0
 195 314 196 309 196 304 c 2
 196 243 l 5
EndSplineSet
EndChar
StartChar: ascript
Encoding: 593 593 231
Width: 561
Flags: MW
LayerCount: 2
Fore
SplineSet
36 238 m 0
 36 316 48 398 105 445 c 0
 136 472 178 483 220 483 c 0
 283 483 330 458 365 428 c 1
 365 483 l 1
 499 483 l 1
 499 0 l 1
 362 0 l 1
 362 52 l 1
 325 15 282 -11 219 -11 c 0
 188 -11 111 -5 68 72 c 0
 43 118 36 172 36 238 c 0
172 213 m 0
 172 179 176 121 197 94 c 0
 215 72 245 61 273 61 c 0
 333 61 359 102 362 103 c 1
 362 382 l 1
 337 401 316 411 285 411 c 0
 251 411 228 403 211 388 c 4
 180 361 173 313 173 258 c 2
 173 233 l 1
 172 228 172 221 172 213 c 0
EndSplineSet
EndChar
StartChar: ascriptturn
Encoding: 594 594 392
Width: 561
Flags: MW
LayerCount: 2
Fore
SplineSet
60 0 m 1
 60 478 l 1
 194 478 l 1
 194 424 l 1
 233 456 285 483 354 483 c 0
 412 483 450 461 475 430 c 0
 528 364 522 257 523 233 c 2
 522 204 l 2
 518 120 492 67 458 35 c 4
 419 -1 369 -11 325 -11 c 0
 267 -11 229 12 197 44 c 1
 197 0 l 1
 60 0 l 1
197 97 m 1
 200 94 204 90 210 85 c 0
 223 74 243 62 274 62 c 0
 314 62 340 73 357 93 c 0
 383 124 386 175 386 232 c 2
 386 241 l 2
 386 291 386 345 362 378 c 0
 347 398 323 411 285 411 c 0
 254 411 232 402 210 387 c 0
 206 384 201 381 197 378 c 1
 197 97 l 1
EndSplineSet
EndChar
StartChar: bhook
Encoding: 595 595 378
Width: 611
Flags: MW
LayerCount: 2
Fore
SplineSet
85 0 m 1
 85 524 l 2
 85 685 223 717 362 717 c 0
 458 717 501 692 549 655 c 1
 516 564 l 1
 489 601 457 644 368 644 c 0
 254 644 219 597 219 526 c 2
 219 420 l 1
 263 454 320 483 400 483 c 0
 539 483 574 367 574 235 c 0
 574 59 491 -11 368 -11 c 0
 309 -11 263 10 222 52 c 1
 222 0 l 1
 85 0 l 1
222 103 m 1
 232 93 258 62 313 62 c 0
 436 62 437 156 437 243 c 0
 437 351 420 411 324 411 c 0
 280 411 250 396 222 375 c 1
 222 103 l 1
EndSplineSet
EndChar
StartChar: oopen
Encoding: 596 596 348
Width: 489
Flags: MW
LayerCount: 2
Fore
SplineSet
30 438 m 1
 87 467 139 483 212 483 c 0
 285 483 338 465 375 436 c 4
 432 390 451 316 451 236 c 0
 451 130 420 65 371 28 c 0
 328 -5 271 -17 209 -17 c 0
 121 -17 90 0 36 31 c 1
 52 126 l 1
 92 92 118 61 208 61 c 0
 248 61 274 75 289 96 c 0
 312 127 313 174 314 215 c 2
 314 244 l 2
 314 295 309 338 290 367 c 0
 274 391 249 405 209 405 c 0
 118 405 65 361 38 340 c 1
 30 438 l 1
EndSplineSet
EndChar
StartChar: ccurl
Encoding: 597 597 400
Width: 489
Flags: MW
LayerCount: 2
Fore
SplineSet
24 -125 m 1
 59 -61 l 1
 115 33 l 1
 86 56 36 105 36 237 c 0
 36 331 60 393 100 431 c 0
 145 475 210 489 278 489 c 0
 356 489 389 478 451 446 c 1
 434 351 l 1
 395 382 367 411 280 411 c 0
 234 411 207 394 192 367 c 4
 174 335 172 288 172 241 c 2
 172 233 l 2
 172 175 175 165 182 137 c 1
 220 181 259 215 328 215 c 0
 404 215 463 174 463 111 c 0
 463 38 383 -11 272 -11 c 0
 214 -11 195 -1 176 2 c 1
 140 -51 119 -80 97 -125 c 1
 24 -125 l 1
226 78 m 1
 245 69 257 67 277 67 c 0
 345 67 362 88 364 109 c 0
 363 135 342 142 323 142 c 0
 304 142 263 134 226 78 c 1
EndSplineSet
EndChar
StartChar: drthook
Encoding: 598 598 523
Width: 586
Flags: MW
LayerCount: 2
Fore
SplineSet
36 221 m 2
 36 229 l 2
 37 278 36 379 98 438 c 0
 120 459 150 475 191 481 c 0
 203 482 215 483 227 483 c 0
 292 483 346 460 391 423 c 1
 391 695 l 1
 524 695 l 1
 524 -23 l 1
 524 -50 l 2
 524 -64 522 -116 566 -116 c 0
 620 -116 632 -63 638 -49 c 1
 671 -139 l 1
 638 -175 610 -189 560 -189 c 0
 431 -189 388 -133 388 -48 c 2
 388 59 l 1
 349 20 298 -11 226 -11 c 0
 165 -11 122 10 93 42 c 0
 51 88 36 157 36 221 c 2
173 223 m 2
 173 172 176 129 196 100 c 4
 212 76 240 62 286 62 c 0
 346 62 378 99 386 107 c 0
 387 108 388 109 388 109 c 1
 388 378 l 1
 359 401 333 411 297 411 c 0
 249 411 219 396 201 374 c 0
 175 341 173 292 173 246 c 2
 173 223 l 2
EndSplineSet
EndChar
StartChar: dhook
Encoding: 599 599 591
Width: 561
Flags: MW
LayerCount: 2
Fore
SplineSet
36 237 m 0
 36 316 48 398 105 446 c 0
 137 472 179 483 220 483 c 0
 283 483 326 460 362 431 c 1
 362 530 l 2
 362 594 379 647 426 680 c 0
 459 703 507 717 573 717 c 0
 645 717 659 682 676 663 c 1
 643 573 l 1
 633 614 617 644 577 644 c 0
 564 644 542 642 524 623 c 4
 513 612 505 595 501 570 c 0
 499 556 499 543 499 530 c 2
 499 0 l 1
 362 0 l 1
 362 52 l 1
 325 15 282 -11 219 -11 c 0
 192 -11 145 -7 106 26 c 0
 77 50 51 91 41 156 c 0
 37 183 36 210 36 237 c 0
172 213 m 0
 172 179 176 121 197 94 c 0
 215 72 245 61 273 61 c 0
 333 61 359 102 362 103 c 1
 362 382 l 1
 337 401 316 411 285 411 c 0
 247 411 221 400 204 382 c 0
 178 354 173 309 173 258 c 2
 173 233 l 1
 172 228 172 221 172 213 c 0
EndSplineSet
EndChar
StartChar: ereversed
Encoding: 600 600 597
Width: 511
Flags: MW
LayerCount: 2
Fore
SplineSet
30 250 m 1
 30 339 47 411 102 452 c 0
 134 476 178 489 240 489 c 0
 301 489 360 477 404 441 c 0
 449 404 479 342 479 242 c 0
 479 162 461 86 402 39 c 4
 363 8 307 -11 227 -11 c 0
 131 -11 70 19 36 38 c 1
 44 129 l 1
 85 96 142 62 220 62 c 0
 265 62 294 77 313 99 c 0
 351 142 351 211 351 250 c 1
 30 250 l 1
144 304 m 1
 347 304 l 1
 344 319 338 353 318 379 c 0
 302 400 278 416 240 416 c 0
 218 416 192 410 173 387 c 0
 159 370 148 344 144 304 c 1
EndSplineSet
EndChar
StartChar: schwa
Encoding: 601 601 384
Width: 511
Flags: MW
LayerCount: 2
Fore
SplineSet
5 222 m 1
 370 222 l 1
 370 273 367 346 312 386 c 0
 287 404 255 411 223 411 c 0
 144 411 90 379 44 343 c 1
 36 435 l 1
 91 464 151 483 228 483 c 2
 230 483 l 2
 292 483 352 472 400 443 c 0
 458 407 498 342 498 232 c 0
 498 133 467 70 419 33 c 0
 371 -5 306 -17 239 -17 c 0
 165 -17 112 -1 76 27 c 0
 27 65 9 124 6 196 c 4
 6 205 5 213 5 222 c 1
120 168 m 1
 121 147 129 115 152 90 c 0
 170 71 198 56 240 56 c 0
 285 56 314 73 332 94 c 0
 354 120 362 152 365 168 c 1
 120 168 l 1
EndSplineSet
EndChar
StartChar: schwahook
Encoding: 602 602 235
Width: 703
Flags: MW
LayerCount: 2
Fore
SplineSet
23 156 m 1
 280 372 l 1
 280 373 l 1
 260 393 239 411 194 411 c 0
 123 411 77 375 44 343 c 1
 36 435 l 1
 85 466 135 483 201 483 c 0
 296 483 344 450 359 439 c 1
 412 483 l 1
 549 483 l 1
 549 340 l 2
 549 332 549 310 562 301 c 0
 566 299 570 297 576 297 c 0
 593 297 615 305 620 330 c 1
 702 330 l 1
 700 312 699 276 655 247 c 0
 634 234 605 223 573 223 c 0
 534 223 467 246 467 341 c 2
 467 414 l 1
 416 371 l 1
 416 371 l 1
 421 358 442 316 442 233 c 0
 442 155 425 90 385 46 c 0
 348 6 292 -17 210 -17 c 0
 136 -17 90 1 62 31 c 0
 33 62 24 105 23 156 c 1
160 156 m 1
 160 129 161 102 170 83 c 0
 178 67 191 56 213 56 c 0
 236 56 266 64 287 99 c 0
 303 125 314 165 314 227 c 0
 314 246 313 264 312 283 c 1
 311 283 l 1
 160 156 l 1
EndSplineSet
EndChar
StartChar: eopen
Encoding: 603 603 238
Width: 458
Flags: MW
LayerCount: 2
Fore
SplineSet
36 147 m 0xf0
 36 188 54 215 74 233 c 0
 91 248 110 256 121 261 c 1
 85 276 48 304 48 356 c 0xe8
 48 407 65 438 92 458 c 0
 128 484 181 489 236 489 c 0
 326 489 350 484 421 446 c 1
 404 351 l 1
 364 388 343 416 254 417 c 4
 252 417 250 417 248 417 c 0
 226 417 208 414 196 403 c 0
 185 393 179 377 179 353 c 0xe8
 179 290 225 287 279 287 c 2
 297 287 l 2
 306 287 314 287 323 286 c 1
 323 233 l 1
 260 233 l 2
 226 233 199 228 184 207 c 0
 175 195 170 176 170 151 c 0
 170 127 177 110 187 97 c 0
 205 75 236 68 264 68 c 0
 346 68 403 120 418 133 c 1
 427 35 l 1
 361 -1 308 -11 245 -11 c 0
 177 -11 114 0 76 37 c 0
 51 61 36 97 36 147 c 0xf0
EndSplineSet
EndChar
StartChar: eopenreversed
Encoding: 604 604 386
Width: 519
Flags: MW
LayerCount: 2
Fore
SplineSet
45 47 m 1
 62 144 l 1
 118 97 174 73 251 73 c 0
 305 73 335 87 335 147 c 0
 335 210 294 219 241 219 c 2xe8
 213 219 l 1
 213 291 l 1
 235 292 319 288 319 353 c 0
 319 400 283 405 251 405 c 0
 155 405 105 358 76 333 c 1
 60 425 l 1
 110 466 168 495 252 495 c 0
 430 495 457 408 457 351 c 0xf0
 457 290 414 265 385 250 c 1
 449 228 472 186 472 143 c 0
 472 77 442 -22 252 -22 c 0
 167 -22 102 4 45 47 c 1
EndSplineSet
EndChar
StartChar: eopenreversedclosed
Encoding: 606 606 387
Width: 550
Flags: MW
LayerCount: 2
Fore
SplineSet
30 248 m 0
 30 319 59 390 113 438 c 0
 152 473 205 495 268 495 c 0
 358 495 412 475 444 449 c 0
 480 419 488 381 488 350 c 0xf8
 488 289 443 264 414 249 c 1
 453 235 503 207 503 143 c 0
 503 101 490 46 428 11 c 0
 393 -9 342 -22 268 -22 c 0
 194 -22 136 10 96 58 c 0
 52 110 30 181 30 248 c 0
112 248 m 0
 112 214 123 160 157 121 c 0
 182 93 219 72 272 72 c 0
 310 72 334 81 348 95 c 0
 360 108 365 125 365 146 c 0xf4
 365 179 351 198 332 208 c 0
 312 218 287 219 263 219 c 2
 244 219 l 1
 244 291 l 1
 256 292 301 289 328 308 c 0
 341 317 350 330 350 351 c 0xf8
 350 371 343 384 332 392 c 0
 317 403 295 405 268 405 c 0
 229 405 196 393 171 373 c 4
 133 344 112 297 112 248 c 0
EndSplineSet
EndChar
StartChar: jdotlessbar
Encoding: 607 607 368
Width: 336
Flags: MW
LayerCount: 2
Fore
SplineSet
-45 -148 m 1
 -18 -76 l 1
 8 -88 26 -93 54 -93 c 0
 78 -93 93 -89 102 -84 c 0
 111 -79 114 -73 116 -66 c 0
 117 -62 117 -59 117 -55 c 2
 117 201 l 1
 10 201 l 1
 10 274 l 1
 117 274 l 1
 117 472 l 1
 251 472 l 1
 251 274 l 1
 343 274 l 1
 343 201 l 1
 251 201 l 1
 251 -48 l 2
 251 -72 248 -94 240 -112 c 0
 233 -129 221 -144 204 -155 c 4
 181 -170 148 -178 102 -178 c 0
 58 -178 10 -170 -45 -148 c 1
EndSplineSet
EndChar
StartChar: ghook
Encoding: 608 608 455
Width: 586
Flags: MW
LayerCount: 2
Fore
SplineSet
36 237 m 0
 36 338 63 404 108 442 c 0
 142 470 187 483 238 483 c 0
 299 483 333 456 364 415 c 1
 364 500 l 2
 364 549 379 589 418 615 c 0
 449 636 496 647 562 647 c 0
 624 647 650 625 677 594 c 1
 644 504 l 1
 631 545 610 574 565 574 c 0
 545 574 532 570 522 563 c 4
 500 548 498 520 498 501 c 2
 498 478 l 1
 498 359 l 1
 499 359 l 1
 499 10 l 2
 499 -53 485 -105 446 -140 c 0
 411 -172 356 -190 273 -190 c 0
 194 -190 141 -174 76 -139 c 1
 76 -47 l 1
 127 -85 175 -117 270 -117 c 0
 304 -117 325 -106 339 -89 c 0
 363 -60 363 -16 363 11 c 2
 363 80 l 1
 362 121 l 1
 340 70 300 25 228 25 c 0
 178 25 127 37 91 72 c 0
 58 104 36 156 36 237 c 0
173 238 m 0
 173 200 178 164 194 138 c 0
 209 113 234 97 273 97 c 0
 345 97 362 184 363 250 c 1
 364 250 l 1
 364 324 l 2
 364 329 365 334 365 339 c 0
 365 380 326 411 285 411 c 0
 259 411 226 404 202 368 c 0
 185 342 173 301 173 238 c 0
EndSplineSet
EndChar
StartChar: gscript
Encoding: 609 609 369
Width: 561
Flags: MW
LayerCount: 2
Fore
SplineSet
36 236 m 0
 36 299 45 382 98 434 c 0
 128 464 173 483 238 483 c 0
 299 483 334 455 365 413 c 1
 365 483 l 1
 499 483 l 1xf4
 499 24 l 2
 499 -25 498 -89 449 -136 c 0
 403 -181 333 -190 275 -190 c 0
 191 -190 139 -173 76 -139 c 1
 76 -47 l 1
 127 -85 174 -117 270 -117 c 0xf8
 304 -117 325 -106 339 -90 c 0
 364 -60 362 -12 362 17 c 2
 362 97 l 5
 362 121 l 1xf8
 352 99 337 75 317 57 c 0
 295 38 267 24 229 24 c 0
 177 24 126 36 89 74 c 0
 57 106 36 158 36 236 c 0
173 238 m 0
 173 197 179 148 208 120 c 0
 223 106 243 97 272 97 c 0
 350 97 365 207 365 250 c 2
 365 250 l 1
 365 345 l 2xf4
 365 368 335 411 285 411 c 0
 256 411 231 402 212 381 c 0
 188 354 173 308 173 238 c 0
EndSplineSet
EndChar
StartChar: Gsmallcap
Encoding: 610 610 568
Width: 613
Flags: MW
LayerCount: 2
Fore
SplineSet
56 235 m 0
 56 437 199 488 356 488 c 0
 424 488 469 480 538 455 c 1
 517 335 l 1
 498 356 453 406 357 406 c 2
 356 406 l 2
 226 406 196 323 193 251 c 2
 193 222 l 2
 196 148 226 66 356 66 c 0
 374 66 392 67 409 70 c 1
 409 118 l 1
 356 118 l 1
 356 207 l 1
 546 207 l 1
 546 18 l 1
 491 -2 430 -16 353 -16 c 0
 140 -16 56 85 56 235 c 0
EndSplineSet
EndChar
StartChar: gammalatin
Encoding: 611 611 402
Width: 500
Flags: MW
LayerCount: 2
Fore
SplineSet
15 472 m 1
 140 472 l 1
 251 147 l 1
 363 472 l 1
 484 472 l 1
 334 32 l 1
 357 5 374 -27 374 -66 c 0
 374 -136 315 -189 250 -189 c 0
 178 -189 129 -129 129 -67 c 0
 129 -53 130 -17 167 28 c 1
 15 472 l 1
229 -89 m 0
 229 -98 232 -103 236 -111 c 1
 243 -115 247 -116 249 -116 c 0
 265 -116 271 -100 271 -88 c 0
 271 -72 261 -55 251 -41 c 1
 238 -57 229 -70 229 -89 c 0
EndSplineSet
EndChar
StartChar: ramshorn
Encoding: 612 612 465
Width: 581
Flags: MW
LayerCount: 2
Fore
SplineSet
-3 367 m 1
 -1 411 17 443 43 465 c 0
 67 485 97 495 126 495 c 0
 162 495 192 480 217 460 c 0
 253 431 277 392 291 369 c 9
 291 369 l 17
 315 410 343 446 373 467 c 0
 398 485 425 495 455 495 c 0
 484 495 512 485 534 468 c 0
 563 446 582 411 584 367 c 1
 465 346 l 1
 466 359 466 371 466 379 c 0
 466 404 463 421 451 421 c 0
 442 421 436 415 429 402 c 0
 421 388 398 347 386 328 c 2
 351 269 l 1
 351 269 l 1
 351 269 398 192 410 171 c 0
 430 136 434 124 434 102 c 0
 434 67 414 29 379 5 c 0
 356 -11 325 -22 290 -22 c 0
 249 -22 211 -6 184 19 c 0
 161 41 146 71 146 103 c 0
 146 125 150 137 170 170 c 0
 183 191 230 269 230 269 c 1
 215 294 204 313 195 327 c 0
 184 344 160 385 150 401 c 0
 143 413 137 421 128 421 c 0
 116 421 115 398 115 383 c 0
 115 373 115 361 116 346 c 1
 -3 367 l 1
261 89 m 0
 261 76 264 68 268 62 c 0
 276 51 290 51 291 51 c 0
 297 52 307 54 313 62 c 0
 317 68 320 76 320 90 c 0
 320 103 317 116 313 127 c 0
 305 148 294 164 291 169 c 1
 279 151 271 136 267 123 c 0
 262 109 261 97 261 89 c 0
EndSplineSet
EndChar
StartChar: hturn
Encoding: 613 613 397
Width: 561
Flags: MW
LayerCount: 2
Fore
SplineSet
59 157 m 2
 59 472 l 1
 196 472 l 1
 196 145 l 2
 196 122 199 101 208 86 c 4
 217 71 234 62 263 62 c 0
 332 62 360 132 363 181 c 2
 364 215 l 1
 364 472 l 1
 500 472 l 1xf0
 500 -172 l 1
 367 -172 l 1
 367 56 l 1
 366 94 l 1
 348 56 302 -11 206 -11 c 0xe8
 152 -11 118 1 96 20 c 0
 61 51 59 102 59 157 c 2
EndSplineSet
EndChar
StartChar: hhook
Encoding: 614 614 375
Width: 561
Flags: MW
LayerCount: 2
Fore
SplineSet
59 0 m 1
 59 528 l 1
 60 528 l 1
 60 551 l 2
 60 606 80 643 114 669 c 0
 162 705 238 717 322 717 c 0
 394 717 436 704 493 661 c 1
 460 571 l 1
 426 623 389 644 325 644 c 2
 323 644 l 2
 275 644 243 635 223 620 c 0
 201 603 193 579 194 551 c 2
 194 528 l 1
 193 528 l 1
 193 379 l 1
 198 390 206 403 216 416 c 0
 242 449 285 483 354 483 c 0
 401 483 432 474 454 459 c 4
 497 429 501 374 501 314 c 0
 501 300 500 286 500 273 c 2
 500 0 l 1
 364 0 l 1
 364 327 l 2
 364 356 360 381 344 396 c 0
 334 405 319 411 296 411 c 0
 254 411 226 384 211 351 c 0
 202 331 198 310 196 291 c 2
 196 0 l 1
 59 0 l 1
EndSplineSet
EndChar
StartChar: henghook
Encoding: 615 615 593
Width: 556
Flags: MW
LayerCount: 2
Fore
SplineSet
59 0 m 1
 59 528 l 1
 60 528 l 1
 60 551 l 2
 60 684 181 717 327 717 c 0
 400 717 442 704 501 661 c 1
 468 571 l 1
 432 623 394 644 329 644 c 2
 327 644 l 2
 250 644 193 624 194 551 c 2
 194 528 l 1
 193 528 l 1
 193 379 l 1
 211 417 257 484 354 484 c 0
 405 484 439 473 461 455 c 0
 499 424 501 371 501 315 c 2
 501 -48 l 2
 501 -92 489 -128 458 -153 c 4
 429 -176 384 -189 318 -189 c 0
 254 -189 226 -168 196 -140 c 1
 229 -49 l 1
 244 -97 279 -117 312 -117 c 0
 330 -117 342 -111 350 -103 c 0
 365 -87 364 -62 364 -50 c 2
 364 325 l 2
 364 352 362 377 348 393 c 0
 338 404 322 411 297 411 c 0
 261 411 235 391 218 363 c 0
 206 342 198 317 196 292 c 2
 196 0 l 1
 59 0 l 1
EndSplineSet
EndChar
StartChar: ibar
Encoding: 616 616 595
Width: 353
Flags: MW
LayerCount: 2
Fore
SplineSet
0 201 m 1
 0 274 l 1
 110 274 l 1
 110 472 l 1
 243 472 l 1
 243 274 l 1
 353 274 l 1
 353 201 l 1
 243 201 l 1
 243 0 l 1
 110 0 l 1
 110 201 l 1xf4
 0 201 l 1
102 573 m 1xf8
 102 695 l 1
 250 695 l 1
 250 573 l 1
 102 573 l 1xf8
EndSplineSet
EndChar
StartChar: Ismallcap
Encoding: 618 618 570
Width: 288
Flags: MW
LayerCount: 2
Fore
SplineSet
76 0 m 1
 76 472 l 1
 213 472 l 1
 213 0 l 1
 76 0 l 1
EndSplineSet
EndChar
StartChar: lbelt
Encoding: 620 620 357
Width: 378
Flags: MW
LayerCount: 2
Fore
SplineSet
17 331 m 0
 17 364 30 397 55 424 c 0
 72 441 93 456 121 465 c 1
 121 695 l 1
 255 695 l 1
 255 305 l 1
 280 321 303 339 324 359 c 1
 370 303 l 1
 370 303 l 1
 337 271 299 243 255 227 c 1
 255 -0 l 1
 121 -0 l 1
 121 214 l 2
 121 215 67 224 37 266 c 0
 25 282 17 303 17 331 c 0
90 330 m 0
 90 317 93 307 98 300 c 0
 104 290 114 284 121 280 c 1
 121 385 l 1
 112 378 105 371 99 362 c 0
 94 353 90 343 90 330 c 0
EndSplineSet
EndChar
StartChar: lrthook
Encoding: 621 621 438
Width: 281
Flags: MW
LayerCount: 2
Fore
SplineSet
60 -40 m 2
 60 695 l 1
 194 695 l 1
 194 -27 l 5
 194 -49 l 2
 194 -70 196 -89 205 -102 c 0
 211 -111 221 -116 236 -116 c 0
 293 -116 306 -50 308 -49 c 1
 340 -139 l 1
 316 -166 291 -189 230 -189 c 0
 166 -189 126 -174 101 -153 c 0
 59 -118 60 -66 60 -40 c 2
EndSplineSet
EndChar
StartChar: lezh
Encoding: 622 622 520
Width: 574
Flags: MW
LayerCount: 2
Fore
SplineSet
60 0 m 1
 60 695 l 1
 194 695 l 1
 194 472 l 1
 536 472 l 1
 536 413 l 2
 536 408 536 405 535 401 c 0
 534 398 531 393 527 387 c 2
 420 234 l 1
 529 196 553 97 553 25 c 0
 553 -41 534 -88 502 -119 c 0
 456 -164 383 -178 304 -178 c 0
 226 -178 149 -165 75 -142 c 1
 109 -50 l 1
 132 -63 154 -73 178 -82 c 0
 216 -96 257 -105 307 -105 c 0
 349 -105 377 -95 393 -77 c 0
 411 -57 416 -26 416 15 c 0
 416 68 398 99 368 117 c 4
 332 138 279 141 219 141 c 2
 207 141 l 1
 363 363 l 1
 194 363 l 1
 194 0 l 1
 60 0 l 1
EndSplineSet
EndChar
StartChar: mturn
Encoding: 623 623 554
Width: 867
Flags: MW
LayerCount: 2
Fore
SplineSet
59 158 m 2
 59 472 l 1
 196 472 l 1
 196 145 l 2
 196 98 205 62 264 62 c 0
 332 62 360 131 364 181 c 2
 364 472 l 1
 501 472 l 1
 501 145 l 2
 501 98 510 62 569 62 c 0
 638 62 665 131 669 181 c 2
 670 214 l 1
 670 472 l 1
 806 472 l 1xf8
 806 -5 l 1
 675 -5 l 1
 675 99 l 1
 657 57 609 -11 512 -11 c 0xf4
 377 -11 376 62 367 94 c 1
 349 56 303 -11 206 -11 c 0
 65 -11 59 69 59 158 c 2
EndSplineSet
EndChar
StartChar: mturndescend
Encoding: 624 624 373
Width: 867
Flags: MW
LayerCount: 2
Fore
SplineSet
59 158 m 2
 59 472 l 1
 196 472 l 1
 196 145 l 2
 196 98 205 62 264 62 c 0
 332 62 360 131 364 181 c 2
 364 472 l 1
 501 472 l 1
 501 145 l 2
 501 98 510 62 569 62 c 0
 638 62 665 131 669 181 c 2
 670 214 l 1
 670 472 l 1
 806 472 l 1xf8
 806 -172 l 1
 675 -172 l 1
 675 99 l 1
 657 57 609 -11 512 -11 c 0xf4
 377 -11 376 62 367 94 c 1
 349 56 303 -11 206 -11 c 0
 65 -11 59 69 59 158 c 2
EndSplineSet
EndChar
StartChar: mhook
Encoding: 625 625 516
Width: 892
Flags: MW
LayerCount: 2
Fore
SplineSet
59 0 m 1xee
 59 478 l 1
 190 478 l 1
 190 415 l 1
 191 373 l 1
 201 396 220 428 252 451 c 0
 277 470 311 483 354 483 c 0
 401 483 432 474 452 461 c 0
 490 437 493 399 499 379 c 1
 508 400 527 429 558 452 c 0
 583 470 616 484 659 484 c 0
 706 484 737 475 759 460 c 0
 803 430 806 374 806 315 c 2
 806 -48 l 2
 806 -94 793 -131 760 -156 c 0
 731 -177 687 -189 623 -189 c 0
 569 -189 538 -175 501 -139 c 1
 534 -49 l 1
 546 -80 567 -117 617 -117 c 0xf6
 637 -117 649 -110 657 -100 c 0
 670 -84 670 -61 670 -49 c 2
 670 324 l 2
 670 355 666 381 650 396 c 0
 640 406 624 411 602 411 c 0
 581 411 563 405 548 393 c 4
 532 380 521 362 513 342 c 0
 507 326 503 309 502 292 c 2
 501 258 l 1
 501 0 l 1
 364 0 l 1
 364 327 l 2
 364 359 360 386 340 400 c 0
 330 407 316 411 296 411 c 0
 273 411 254 403 240 390 c 0
 226 378 215 362 208 344 c 0
 201 326 197 308 196 291 c 2
 196 0 l 1
 59 0 l 1xee
EndSplineSet
EndChar
StartChar: nhookleft
Encoding: 626 626 559
Width: 561
Flags: MW
LayerCount: 2
Fore
SplineSet
-70 -139 m 1
 -37 -49 l 1
 -29 -78 -13 -116 24 -116 c 0
 39 -116 48 -109 53 -100 c 0
 59 -88 60 -72 60 -58 c 4
 60 -56 60 -55 60 -53 c 2
 60 478 l 1
 191 478 l 1
 191 419 l 1
 192 379 l 1
 200 396 214 420 236 440 c 0
 262 464 300 484 353 484 c 0
 412 484 447 471 469 448 c 0
 498 417 502 370 502 314 c 2
 502 0 l 1
 365 0 l 1
 365 323 l 2
 365 352 361 373 351 388 c 0
 340 403 323 411 296 411 c 0
 272 411 253 402 238 389 c 0
 222 375 211 356 204 336 c 0
 198 320 195 303 194 288 c 2
 194 -56 l 1
 191 -56 l 1
 190 -87 184 -129 148 -158 c 0
 124 -177 88 -189 32 -189 c 0
 -25 -189 -48 -167 -70 -139 c 1
EndSplineSet
EndChar
StartChar: nrthook
Encoding: 627 627 433
Width: 586
Flags: MW
LayerCount: 2
Fore
SplineSet
59 0 m 1xec
 59 478 l 1
 190 478 l 1
 190 415 l 1
 191 373 l 1
 200 393 216 421 242 443 c 0
 268 466 305 483 354 483 c 0xf4
 403 483 436 472 458 456 c 0
 508 418 500 351 501 311 c 2
 501 -50 l 2
 501 -69 503 -92 515 -105 c 0
 521 -112 530 -116 543 -116 c 0
 598 -116 612 -50 614 -49 c 1
 646 -139 l 1
 622 -166 597 -189 536 -189 c 0
 468 -189 427 -172 402 -150 c 0
 366 -118 364 -75 364 -51 c 0
 364 -48 364 -44 364 -42 c 4
 364 -40 364 -38 364 -37 c 2
 364 322 l 2
 364 351 361 376 348 392 c 0
 338 404 323 411 297 411 c 0
 280 411 262 406 246 395 c 0
 232 385 219 369 210 348 c 0
 201 328 196 301 196 269 c 2
 196 0 l 1
 59 0 l 1xec
EndSplineSet
EndChar
StartChar: Nsmallcap
Encoding: 628 628 404
Width: 663
Flags: MW
LayerCount: 2
Fore
SplineSet
76 -0 m 1
 76 472 l 1
 258 472 l 1
 464 109 l 1
 464 472 l 1
 587 472 l 1
 587 -0 l 1
 405 -0 l 1
 199 363 l 1
 199 -0 l 1
 76 -0 l 1
EndSplineSet
EndChar
StartChar: obar
Encoding: 629 629 354
Width: 550
Flags: MW
LayerCount: 2
Fore
SplineSet
30 232 m 0
 30 330 57 393 99 432 c 0
 145 475 208 489 273 489 c 0
 355 489 411 467 449 432 c 0
 501 383 518 309 518 231 c 0
 518 158 502 88 449 42 c 4
 412 9 356 -11 275 -11 c 0
 210 -11 149 1 104 37 c 0
 59 73 30 135 30 232 c 0
167 273 m 1
 382 273 l 1
 380 313 377 354 358 380 c 0
 339 406 306 417 275 417 c 0
 243 417 222 409 207 397 c 0
 184 379 177 355 175 345 c 0
 168 321 168 297 167 273 c 1
168 200 m 1
 168 159 175 121 198 96 c 0
 214 78 239 67 274 67 c 0
 311 67 334 79 350 96 c 0
 377 126 379 171 381 200 c 1
 168 200 l 1
EndSplineSet
EndChar
StartChar: OEsmallcap
Encoding: 630 630 600
Width: 883
Flags: MW
LayerCount: 2
Fore
SplineSet
26 231 m 0
 26 307 47 380 108 429 c 0
 154 465 222 488 321 488 c 0xae
 395 488 423 472 506 472 c 2
 826 472 l 1
 826 388 l 1
 766 388 l 1
 742 389 l 1
 563 390 l 1
 563 290 l 1
 801 290 l 1
 801 201 l 1
 563 201 l 1
 563 88 l 1
 672 89 l 1
 838 90 l 1
 838 -0 l 1
 508 -0 l 2x76
 424 0 396 -16 320 -16 c 0
 241 -16 180 -2 134 23 c 0
 58 65 26 139 26 231 c 0
160 245 m 0
 160 182 174 136 200 106 c 4
 229 72 273 57 330 57 c 0
 395 57 418 70 424 115 c 0
 425 128 426 142 426 168 c 0
 426 173 426 178 426 184 c 0
 426 192 426 201 426 211 c 2
 426 284 l 2
 425 378 431 415 333 415 c 0xae
 283 415 238 406 206 377 c 0
 178 351 160 310 160 245 c 0
EndSplineSet
EndChar
StartChar: philatin
Encoding: 632 632 409
Width: 672
Flags: MW
LayerCount: 2
Fore
SplineSet
25 258 m 0
 25 398 114 480 267 492 c 1
 267 695 l 1
 404 695 l 1
 404 492 l 1
 611 474 645 342 645 258 c 0
 645 175 611 42 404 25 c 1
 404 -167 l 1
 267 -167 l 1
 267 25 l 5
 267 25 l 1
 110 37 25 122 25 258 c 0
156 260 m 0
 156 172 177 117 267 100 c 1
 267 417 l 1
 266 417 l 1
 196 400 156 369 156 260 c 0
404 100 m 1
 487 118 514 164 514 257 c 0
 514 352 489 397 404 417 c 1
 404 100 l 1
EndSplineSet
EndChar
StartChar: rturn
Encoding: 633 633 356
Width: 372
Flags: MW
LayerCount: 2
Fore
SplineSet
15 -11 m 1
 15 91 l 1
 127 93 172 164 176 213 c 2
 177 240 l 1
 177 472 l 1xe0
 311 472 l 1xe0
 311 -5 l 1
 182 -5 l 1
 182 70 l 5
 182 116 l 1xd0
 165 70 117 -9 15 -11 c 1
EndSplineSet
EndChar
StartChar: rturnascend
Encoding: 634 634 399
Width: 372
Flags: MW
LayerCount: 2
Fore
SplineSet
15 -11 m 1
 15 91 l 1
 73 92 177 119 177 232 c 2xc0
 177 639 l 1
 311 639 l 1xc0
 311 -5 l 1
 182 -5 l 1
 182 68 l 5
 182 116 l 1xa0
 165 70 117 -9 15 -11 c 1
EndSplineSet
EndChar
StartChar: rturnrthook
Encoding: 635 635 366
Width: 372
Flags: MW
LayerCount: 2
Fore
SplineSet
15 -11 m 1
 15 91 l 1
 127 93 172 164 176 213 c 2
 177 240 l 1
 177 473 l 1
 311 473 l 1
 311 -52 l 2
 311 -60 312 -68 313 -76 c 4
 316 -98 326 -116 354 -116 c 0
 409 -116 423 -50 425 -49 c 1
 457 -139 l 1
 433 -166 408 -189 347 -189 c 0
 218 -189 177 -132 177 -47 c 2
 177 53 l 1
 176 103 l 1
 159 64 114 -9 15 -11 c 1
EndSplineSet
EndChar
StartChar: rrthook
Encoding: 637 637 572
Width: 372
Flags: MW
LayerCount: 2
Fore
SplineSet
60 -45 m 2xd0
 60 478 l 1
 188 478 l 1
 188 403 l 1xe0
 189 357 l 1
 206 402 254 481 356 483 c 1
 356 381 l 1
 288 379 230 349 206 301 c 4
 200 288 195 275 194 260 c 2
 194 -48 l 2xd0
 194 -87 203 -117 247 -117 c 0
 314 -117 330 -50 332 -49 c 1
 364 -139 l 1
 327 -176 296 -189 241 -189 c 0
 103 -189 60 -132 60 -45 c 2xd0
EndSplineSet
EndChar
StartChar: rfishhook
Encoding: 638 638 356
Width: 372
Flags: MW
LayerCount: 2
Fore
SplineSet
60 0 m 1
 60 360 l 1
 65 360 l 1
 68 439 129 479 302 483 c 2
 356 483 l 1
 356 381 l 1
 333 381 l 2
 202 381 194 370 194 348 c 4
 194 345 194 341 194 338 c 2
 194 0 l 1
 60 0 l 1
EndSplineSet
EndChar
StartChar: Rsmallcap
Encoding: 640 640 602
Width: 577
Flags: MW
LayerCount: 2
Fore
SplineSet
76 0 m 1
 76 472 l 1
 279 472 l 2
 338 472 401 472 454 443 c 0
 495 420 520 379 520 331 c 0
 520 315 517 278 485 248 c 0
 468 232 443 218 406 210 c 1
 545 0 l 1
 409 0 l 1
 281 200 l 1
 210 200 l 1
 210 0 l 1
 76 0 l 1
210 273 m 1
 292 273 l 2
 324 273 353 274 372 286 c 0
 384 294 392 307 392 329 c 0
 392 353 381 365 379 369 c 1
 356 384 332 385 305 385 c 2
 210 385 l 1
 210 344 l 5
 210 273 l 1
EndSplineSet
EndChar
StartChar: Rsmallcapinv
Encoding: 641 641 445
Width: 577
Flags: MW
LayerCount: 2
Fore
SplineSet
76 0 m 1
 76 472 l 1
 210 472 l 1
 210 273 l 1
 281 273 l 1
 409 472 l 1
 545 472 l 1
 406 263 l 1
 448 253 474 236 491 218 c 4
 517 189 520 156 520 141 c 0
 520 116 513 62 454 29 c 0
 401 0 339 0 280 0 c 2
 76 0 l 1
210 87 m 1
 271 87 l 2
 313 88 348 87 369 98 c 0
 384 106 392 119 392 144 c 0
 392 169 382 183 366 190 c 0
 341 202 303 198 270 200 c 2
 210 200 l 1
 210 152 l 1
 210 87 l 1
EndSplineSet
EndChar
StartChar: srthook
Encoding: 642 642 554
Width: 422
Flags: MW
LayerCount: 2
Fore
SplineSet
29 -39 m 6
 29 37 l 1xf4
 30 37 l 1
 30 148 l 1
 86 95 141 68 217 68 c 0
 237 68 264 71 281 86 c 0
 290 94 296 106 296 124 c 0
 296 152 273 170 249 178 c 0
 226 186 187 188 147 202 c 0
 115 213 83 231 59 265 c 0
 51 278 36 304 36 342 c 0
 36 399 55 435 84 457 c 0
 118 483 166 489 214 489 c 0
 278 489 318 482 380 456 c 1
 363 360 l 1
 330 384 286 417 207 417 c 0
 185 417 163 414 150 402 c 0
 141 394 136 383 136 366 c 0xec
 136 335 158 322 187 314 c 0
 215 306 249 303 276 295 c 0
 324 280 396 234 396 143 c 0
 396 86 378 49 350 25 c 0
 317 -2 270 -11 219 -11 c 0
 192 -11 165 -9 138 -3 c 1
 138 -40 l 2xf4
 138 -70 140 -91 151 -104 c 0
 158 -112 168 -116 183 -116 c 0
 228 -116 240 -73 248 -49 c 1
 281 -139 l 1
 258 -165 240 -189 178 -189 c 0
 115 -189 79 -173 58 -149 c 0
 30 -118 29 -74 29 -39 c 6
EndSplineSet
EndChar
StartChar: esh
Encoding: 643 643 242
Width: 367
Flags: MW
LayerCount: 2
Fore
SplineSet
-30 -139 m 1
 3 -49 l 1
 13 -79 31 -116 74 -116 c 0
 92 -116 103 -109 109 -98 c 0
 117 -85 117 -67 117 -52 c 2
 117 572 l 2
 117 615 126 652 152 677 c 0
 178 703 221 717 288 717 c 0
 334 717 361 707 397 678 c 1
 364 588 l 1
 349 630 321 644 293 644 c 0
 280 644 271 640 265 634 c 0
 253 622 250 600 250 577 c 2
 250 -23 l 2
 250 -30 250 -37 250 -43 c 4
 250 -75 246 -111 224 -139 c 0
 201 -168 158 -189 81 -189 c 0
 21 -189 -4 -168 -30 -139 c 1
EndSplineSet
EndChar
StartChar: dotlessjstrokehook
Encoding: 644 644 573
Width: 367
Flags: MW
LayerCount: 2
Fore
SplineSet
-45 -139 m 1
 -12 -49 l 1
 -1 -80 20 -116 67 -116 c 0
 110 -116 117 -84 117 -53 c 2
 117 214 l 1
 32 214 l 1
 32 286 l 1
 117 286 l 1
 117 515 l 2
 117 593 151 647 292 647 c 0
 356 647 385 627 413 600 c 1
 380 510 l 1
 368 542 348 574 298 574 c 0
 260 574 251 553 251 528 c 2
 251 286 l 1
 336 286 l 1
 336 214 l 1
 251 214 l 1
 251 -37 l 2
 251 -127 217 -189 74 -189 c 0
 21 -189 -9 -175 -45 -139 c 1
EndSplineSet
EndChar
StartChar: trthook
Encoding: 648 648 357
Width: 404
Flags: MW
LayerCount: 2
Fore
SplineSet
20 400 m 1
 20 472 l 1
 90 472 l 1
 90 607 l 1
 218 607 l 1
 218 472 l 1xd0
 324 472 l 1
 324 400 l 1
 218 400 l 1
 218 -46 l 2xe0
 218 -82 223 -116 265 -116 c 0
 325 -116 338 -50 340 -49 c 1
 373 -139 l 1
 353 -160 327 -189 259 -189 c 0
 96 -189 87 -96 87 -50 c 2
 87 400 l 1xe0
 20 400 l 1
EndSplineSet
EndChar
StartChar: ubar
Encoding: 649 649 384
Width: 622
Flags: MW
LayerCount: 2
Fore
SplineSet
-1 201 m 1
 -1 274 l 1
 91 274 l 1
 91 472 l 1
 227 472 l 1
 227 274 l 1
 397 274 l 1
 397 472 l 1
 533 472 l 1
 533 274 l 1
 625 274 l 1
 625 201 l 1
 533 201 l 1
 533 0 l 1
 399 0 l 1
 399 80 l 1
 390 65 377 44 355 27 c 4
 329 6 291 -11 238 -11 c 0
 168 -11 131 6 112 33 c 0
 94 59 91 93 91 132 c 2
 91 201 l 1
 -1 201 l 1
227 156 m 2
 228 99 226 72 240 60 c 0
 249 52 264 50 290 50 c 0
 319 50 349 61 370 86 c 0
 386 106 397 136 397 178 c 2
 397 201 l 1
 228 201 l 1
 228 180 l 1
 227 156 l 2
EndSplineSet
EndChar
StartChar: upsilonlatin
Encoding: 650 650 583
Width: 611
Flags: MW
LayerCount: 2
Fore
SplineSet
60 366 m 1
 60 472 l 1
 247 472 l 1
 246 378 212 311 212 199 c 0
 212 138 219 50 305 50 c 0
 394 50 397 151 397 199 c 0
 397 314 363 376 362 472 c 1
 549 472 l 1
 549 366 l 1
 470 366 l 1
 500 315 533 268 533 208 c 0
 533 94 487 -22 304 -22 c 0
 121 -22 76 95 76 208 c 0
 76 271 108 311 139 366 c 1
 60 366 l 1
EndSplineSet
EndChar
StartChar: vhook
Encoding: 651 651 355
Width: 525
Flags: MW
LayerCount: 2
Fore
SplineSet
59 163 m 2
 59 478 l 1
 196 478 l 1
 196 149 l 2
 196 102 204 62 250 62 c 0
 338 62 338 211 338 265 c 0
 338 341 327 400 310 455 c 1
 442 490 l 1
 467 407 475 328 475 275 c 0
 475 127 380 -11 244 -11 c 0
 67 -11 59 90 59 163 c 2
EndSplineSet
EndChar
StartChar: vturn
Encoding: 652 652 290
Width: 500
Flags: MW
LayerCount: 2
Fore
SplineSet
15 -0 m 1
 164 472 l 1
 335 472 l 1
 484 -0 l 1
 360 -0 l 1
 282 247 l 5
 248 355 l 1
 136 -0 l 1
 15 -0 l 1
EndSplineSet
EndChar
StartChar: wturn
Encoding: 653 653 467
Width: 744
Flags: MW
LayerCount: 2
Fore
SplineSet
15 0 m 1
 143 472 l 1
 313 472 l 1
 324 437 385 205 392 137 c 1
 396 190 463 443 471 472 c 1
 600 472 l 1
 729 0 l 1
 607 0 l 1
 514 339 l 1
 422 0 l 1
 327 0 l 1
 263 237 l 1
 231 355 l 1
 135 0 l 1
 15 0 l 1
EndSplineSet
EndChar
StartChar: yturn
Encoding: 654 654 580
Width: 500
Flags: MW
LayerCount: 2
Fore
SplineSet
15 0 m 1
 175 479 l 2
 178 490 182 505 188 523 c 0
 199 555 220 593 266 621 c 0
 292 636 325 649 367 650 c 0
 369 650 372 650 374 650 c 0
 406 650 439 646 455 643 c 1
 463 541 l 1
 447 548 417 565 373 565 c 0
 321 565 301 543 291 519 c 4
 286 508 284 497 281 487 c 0
 279 481 278 477 278 473 c 0
 278 467 281 463 286 451 c 2
 484 0 l 1
 355 0 l 1
 343 21 232 277 231 336 c 1
 227 283 145 22 136 0 c 1
 15 0 l 1
EndSplineSet
EndChar
StartChar: Ysmallcap
Encoding: 655 655 603
Width: 602
Flags: MW
LayerCount: 2
Fore
SplineSet
9 472 m 1
 180 472 l 1
 258 373 l 1
 303 314 l 1
 327 347 l 1
 426 472 l 1
 592 472 l 1
 378 201 l 2
 367 188 368 187 368 165 c 2
 368 -0 l 1
 234 -0 l 1
 234 189 l 1
 9 472 l 1
EndSplineSet
EndChar
StartChar: zrthook
Encoding: 656 656 362
Width: 476
Flags: MW
LayerCount: 2
Fore
SplineSet
30 0 m 1
 30 49 l 1
 286 404 l 1
 263 404 l 1
 45 402 l 1
 45 472 l 1
 439 472 l 1
 439 427 l 1
 185 74 l 1
 334 75 l 1
 371 75 l 1
 442 76 l 1
 442 -55 l 2
 443 -76 447 -93 456 -104 c 0
 463 -112 472 -116 485 -116 c 0
 529 -116 541 -68 547 -49 c 1
 580 -139 l 1
 569 -154 558 -165 545 -173 c 4
 528 -184 508 -189 481 -189 c 0
 436 -189 405 -180 383 -165 c 0
 353 -145 341 -116 336 -87 c 0
 334 -73 333 -59 333 -47 c 0
 333 0 l 1
 30 0 l 1
EndSplineSet
EndChar
StartChar: zcurl
Encoding: 657 657 401
Width: 538
Flags: MW
LayerCount: 2
Fore
SplineSet
30 0 m 1
 30 59 l 1
 264 399 l 1
 138 398 l 1
 115 398 l 1
 45 397 l 1
 45 472 l 1
 440 472 l 1
 440 443 l 1
 438 424 l 1
 430 409 l 1
 209 87 l 1
 286 87 l 1
 310 129 330 158 347 179 c 0
 367 203 383 215 398 221 c 0
 410 225 421 226 432 226 c 0
 499 226 556 183 556 119 c 0
 556 48 484 -0 373 -0 c 2
 350 0 l 1
 346 -4 321 -67 293 -125 c 1
 173 -125 l 1
 237 0 l 1
 30 0 l 1
385 87 m 1
 413 87 l 2
 442 88 479 88 479 123 c 0
 479 134 474 151 459 151 c 0
 453 151 441 151 427 142 c 0
 413 133 397 114 385 87 c 1
EndSplineSet
EndChar
StartChar: ezh
Encoding: 658 658 382
Width: 476
Flags: MW
LayerCount: 2
Fore
SplineSet
45 -142 m 1
 79 -50 l 1
 119 -78 169 -105 240 -105 c 0
 271 -105 291 -96 302 -80 c 0
 317 -59 319 -26 319 14 c 0
 319 61 306 91 284 110 c 0
 251 138 197 141 130 141 c 2
 118 141 l 1
 268 362 l 1
 136 361 l 1
 90 361 l 1
 45 360 l 1
 45 472 l 1
 439 472 l 1
 439 413 l 2
 439 408 440 406 437 400 c 0
 436 397 435 394 432 390 c 2
 327 234 l 1
 367 219 395 196 414 170 c 4
 448 125 456 69 456 25 c 0
 456 -45 437 -92 407 -123 c 0
 366 -165 305 -178 238 -178 c 0
 180 -178 118 -169 45 -142 c 1
EndSplineSet
EndChar
StartChar: glottalstop
Encoding: 660 660 377
Width: 550
Flags: MW
LayerCount: 2
Fore
SplineSet
60 650 m 1
 119 685 179 706 263 706 c 0
 386 706 488 669 488 522 c 0
 488 420 393 377 326 360 c 1
 326 -0 l 1
 189 -0 l 1
 189 407 l 1
 263 418 351 438 351 529 c 0
 351 609 330 633 260 633 c 2
 259 633 l 2
 198 633 141 609 95 555 c 1
 60 650 l 1
EndSplineSet
EndChar
StartChar: bilabialclick
Encoding: 664 664 588
Width: 794
Flags: MW
LayerCount: 2
Fore
SplineSet
331 348 m 0
 331 384 360 413 396 413 c 0
 432 413 462 384 462 348 c 0
 462 312 432 284 396 284 c 0
 360 284 331 312 331 348 c 0
EndSplineSet
Refer: 47 79 N 1 0 0 1 0 0 2
EndChar
StartChar: Bsmallcap
Encoding: 665 665 409
Width: 608
Flags: MW
LayerCount: 2
Fore
SplineSet
76 -0 m 1
 76 472 l 1
 299 472 l 2
 369 472 457 468 501 415 c 0
 523 388 526 359 526 345 c 0
 526 272 444 254 424 247 c 1
 479 239 551 210 551 136 c 0
 551 109 541 56 481 26 c 0
 433 1 377 0 323 -0 c 2
 76 -0 l 1
207 87 m 1
 308 87 l 2
 341 87 393 89 414 114 c 0
 420 121 423 130 423 140 c 0
 423 161 407 184 384 195 c 0
 355 209 323 209 292 209 c 2
 208 209 l 1
 207 162 l 1
 207 87 l 1
207 282 m 1
 282 282 l 2
 311 282 353 284 378 301 c 0
 391 310 400 323 400 342 c 0
 400 361 384 372 362 378 c 4
 339 384 310 385 287 385 c 2
 208 385 l 1
 207 345 l 1
 207 282 l 1
EndSplineSet
EndChar
StartChar: Hsmallcap
Encoding: 668 668 577
Width: 663
Flags: MW
LayerCount: 2
Fore
SplineSet
76 0 m 1
 76 472 l 1
 213 472 l 1
 213 290 l 1
 451 290 l 1
 451 472 l 1
 587 472 l 1
 587 0 l 1
 451 0 l 1
 451 201 l 1
 213 201 l 1
 213 0 l 1
 76 0 l 1
EndSplineSet
EndChar
StartChar: jcrossedtail
Encoding: 669 669 367
Width: 360
Flags: MW
LayerCount: 2
Fore
SplineSet
-41 -71 m 0
 -41 -30 -8 32 88 37 c 4
 93 37 97 37 102 37 c 2
 122 37 l 1
 122 472 l 1
 256 472 l 1
 256 37 l 1
 342 37 l 1
 342 -36 l 1
 256 -36 l 1
 256 -48 l 2
 256 -125 222 -178 110 -178 c 0
 22 -178 -41 -135 -41 -71 c 0
30 -75 m 1
 31 -78 32 -84 40 -89 c 0
 44 -92 51 -94 60 -94 c 0
 81 -93 103 -94 114 -84 c 0
 119 -79 122 -73 122 -62 c 2xf4
 122 -36 l 1
 102 -36 l 2
 75 -36 58 -41 48 -47 c 0
 32 -56 31 -68 30 -68 c 1
 30 -75 l 1
108 573 m 1xf8
 108 695 l 1
 256 695 l 1
 256 573 l 1
 108 573 l 1xf8
EndSplineSet
EndChar
StartChar: Lsmallcap
Encoding: 671 671 414
Width: 472
Flags: MW
LayerCount: 2
Fore
SplineSet
76 0 m 1
 76 472 l 1
 213 472 l 1
 213 82 l 1
 275 83 l 1
 304 83 l 1
 373 84 l 1
 427 84 l 1
 427 0 l 1
 76 0 l 1
EndSplineSet
EndChar
StartChar: glottalstopstroke
Encoding: 673 673 561
Width: 550
Flags: MW
LayerCount: 2
Fore
SplineSet
61 650 m 5
 122 686 183 706 264 706 c 0
 387 706 489 669 489 522 c 0
 489 420 394 377 327 360 c 1
 327 260 l 1
 479 260 l 1
 479 187 l 1
 327 187 l 1
 327 -0 l 1
 190 -0 l 1
 190 187 l 1
 37 187 l 1
 37 260 l 1
 190 260 l 1
 190 407 l 1
 264 418 352 438 352 529 c 0
 352 609 331 633 261 633 c 2
 260 633 l 2
 199 633 142 609 96 555 c 1
 61 650 l 5
EndSplineSet
EndChar
StartChar: glottalstopstrokereversed
Encoding: 674 674 560
Width: 550
Flags: MW
LayerCount: 2
Fore
SplineSet
60 522 m 0
 60 683 183 706 285 706 c 0
 368 706 429 685 488 650 c 1
 453 555 l 1
 407 609 350 633 288 633 c 0
 215 633 196 606 196 528 c 0
 196 422 327 413 359 407 c 1
 359 260 l 1
 512 260 l 1
 512 187 l 1
 359 187 l 1
 359 0 l 1
 222 0 l 1
 222 187 l 1
 69 187 l 1
 69 260 l 1
 222 260 l 1
 222 360 l 1
 61 402 60 500 60 522 c 0
EndSplineSet
EndChar
StartChar: hsuper
Encoding: 688 688 626
Width: 280
VWidth: 893
Flags: MW
LayerCount: 2
Fore
SplineSet
30 393 m 1
 30 741 l 1
 96 741 l 1
 96 604 l 1
 97 583 l 1
 105 601 129 635 177 635 c 0
 244 635 250 598 250 554 c 2
 250 393 l 1
 182 393 l 1
 182 557 l 2
 182 582 177 599 148 599 c 0
 125 599 113 586 106 570 c 4
 97 548 98 522 98 522 c 1
 98 393 l 1
 30 393 l 1
EndSplineSet
EndChar
StartChar: jsuper
Encoding: 690 690 580
Width: 143
VWidth: 893
Flags: MW
LayerCount: 2
Fore
SplineSet
-35 319 m 1
 -25 356 l 1
 -11 350 -2 347 13 347 c 0
 41 347 46 355 46 366 c 2
 46 630 l 1
 113 630 l 1
 113 377 l 2
 112 346 112 304 38 304 c 0
 11 304 -14 311 -35 319 c 1
46 680 m 1
 46 741 l 1
 113 741 l 1
 113 680 l 1
 46 680 l 1
EndSplineSet
EndChar
StartChar: wsuper
Encoding: 695 695 609
Width: 372
Flags: MW
LayerCount: 2
Fore
SplineSet
8 629 m 1
 68 629 l 1
 115 460 l 1
 161 629 l 1
 208 629 l 1
 257 452 l 1
 305 629 l 1
 364 629 l 1
 300 393 l 1
 216 393 l 1
 198 460 179 527 176 561 c 1
 173 527 150 443 137 393 c 1
 72 393 l 1
 8 629 l 1
EndSplineSet
EndChar
StartChar: commaturnedmod
Encoding: 699 699 97
Width: 306
Flags: MW
LayerCount: 2
Fore
SplineSet
86 452 m 1
 86 565 l 29
 86 565 86 580 88 584 c 0
 91 592 151 695 151 695 c 1
 217 695 l 1
 178 583 l 1
 217 583 l 1
 217 452 l 1
 86 452 l 1
EndSplineSet
EndChar
StartChar: apostrophemod
Encoding: 700 700 96
Width: 306
Flags: MW
LayerCount: 2
Fore
SplineSet
86 563 m 1
 86 694 l 1
 217 694 l 1
 217 582 l 25
 217 582 216 568 215 563 c 0
 213 556 152 452 152 452 c 1
 86 452 l 1
 126 563 l 1
 86 563 l 1
EndSplineSet
EndChar
StartChar: glottalstopreversedmod
Encoding: 705 705 582
Width: 489
Flags: MW
LayerCount: 2
Fore
SplineSet
60 615 m 0
 60 673 82 709 114 730 c 0
 152 755 205 761 254 761 c 0
 323 761 379 745 426 723 c 1
 392 629 l 1
 356 664 318 687 263 689 c 2
 252 689 l 2
 233 689 220 686 211 678 c 0
 200 668 196 650 196 620 c 0xc0
 196 601 201 581 224 565 c 4
 243 552 274 541 326 537 c 1
 326 378 l 1
 190 378 l 1
 190 487 l 1xa0
 130 503 60 533 60 615 c 0
EndSplineSet
EndChar
StartChar: circumflex
Encoding: 710 710 108
Width: 550
Flags: MW
LayerCount: 2
Fore
SplineSet
101 541 m 1
 220 692 l 1
 329 692 l 1
 449 541 l 1
 376 541 l 1
 275 631 l 1
 174 541 l 1
 101 541 l 1
EndSplineSet
EndChar
StartChar: caron
Encoding: 711 711 333
Width: 550
Flags: MW
LayerCount: 2
Fore
SplineSet
89 680 m 1
 162 680 l 1
 275 594 l 1
 387 680 l 1
 434 680 l 5
 460 680 l 1
 329 541 l 1
 220 541 l 1
 89 680 l 1
EndSplineSet
EndChar
StartChar: verticallinemod
Encoding: 712 712 613
Width: 244
Flags: MW
LayerCount: 2
Fore
SplineSet
85 451 m 1
 85 695 l 1
 158 695 l 1
 158 451 l 1
 85 451 l 1
EndSplineSet
EndChar
StartChar: length
Encoding: 720 720 245
Width: 306
Flags: MW
LayerCount: 2
Fore
SplineSet
60 0 m 1
 151 183 l 5
 151 183 l 1
 243 0 l 1
 60 0 l 1
EndSplineSet
Refer: 423 721 N 1 0 0 1 0 0 2
EndChar
StartChar: halflength
Encoding: 721 721 496
Width: 306
Flags: MW
LayerCount: 2
Fore
SplineSet
60 472 m 1
 243 472 l 1
 151 289 l 5
 151 289 l 1
 60 472 l 1
EndSplineSet
EndChar
StartChar: breve
Encoding: 728 728 225
Width: 550
Flags: MW
LayerCount: 2
Fore
SplineSet
85 680 m 1
 158 680 l 1
 164 616 245 611 275 611 c 0
 303 611 384 617 390 680 c 1
 463 680 l 1
 460 576 368 517 274 517 c 0
 182 517 88 576 85 680 c 1
EndSplineSet
EndChar
StartChar: dotaccent
Encoding: 729 729 502
Width: 306
Flags: MW
LayerCount: 2
Fore
SplineSet
94 547 m 1
 94 695 l 1
 242 695 l 1
 242 547 l 1
 94 547 l 1
EndSplineSet
EndChar
StartChar: ring
Encoding: 730 730 127
Width: 733
Flags: MW
LayerCount: 2
Fore
SplineSet
243 593 m 0
 243 622 254 642 271 656 c 4
 294 674 328 680 367 680 c 2
 372 680 l 2
 411 680 438 672 455 660 c 0
 482 642 488 615 488 594 c 0
 488 564 477 544 460 530 c 0
 437 512 403 506 365 506 c 2
 359 506 l 2
 318 507 291 516 274 528 c 0
 249 546 243 572 243 593 c 0
305 594 m 0
 305 573 309 561 318 553 c 0
 328 544 343 542 363 541 c 2
 365 541 l 2
 391 541 407 545 416 556 c 0
 423 564 426 576 426 593 c 0
 426 614 421 626 412 634 c 0
 402 642 388 645 368 645 c 2
 366 645 l 2
 343 645 328 643 318 634 c 0
 309 626 305 614 305 594 c 0
EndSplineSet
EndChar
StartChar: ogonek
Encoding: 731 731 421
Width: 306
Flags: MW
LayerCount: 2
Fore
SplineSet
-59 -122 m 0
 -59 -45 26 -18 96 20 c 1
 109 27 121 34 132 42 c 1
 138 47 144 52 150 57 c 1
 183 -0 l 1
 135 -43 108 -48 88 -84 c 0
 84 -92 82 -96 82 -98 c 0
 82 -100 82 -101 82 -103 c 1
 84 -109 88 -112 92 -115 c 4
 96 -118 101 -119 106 -119 c 0
 128 -119 151 -99 167 -74 c 1
 227 -115 l 1
 200 -162 148 -222 67 -223 c 0
 4 -223 -59 -182 -59 -122 c 0
EndSplineSet
EndChar
StartChar: tilde
Encoding: 732 732 97
Width: 550
Flags: MW
LayerCount: 2
Fore
SplineSet
91 521 m 1x58
 94 597 143 646 202 646 c 0x38
 271 646 309 594 345 594 c 0x58
 361 594 382 604 385 646 c 1x98
 457 646 l 1x38
 455 577 412 521 345 521 c 0x58
 274 521 244 573 203 573 c 0x38
 187 573 167 564 164 521 c 1x98
 91 521 l 1x58
EndSplineSet
EndChar
StartChar: rhotichook
Encoding: 734 734 588
Width: 367
Flags: MW
LayerCount: 2
Fore
SplineSet
-27 350 m 1
 -27 351 l 1
 86 481 l 1
 89 490 94 500 102 506 c 0
 108 510 115 513 125 513 c 0
 139 513 167 507 167 463 c 2
 167 434 l 2
 167 407 172 375 187 352 c 4
 198 335 215 323 240 323 c 0
 307 323 307 361 307 361 c 1
 389 361 l 1
 388 333 377 312 363 296 c 0
 328 258 267 250 239 250 c 0
 195 250 162 267 139 292 c 0
 116 316 101 348 92 378 c 1
 28 303 l 1
 -27 350 l 1
EndSplineSet
EndChar
StartChar: gammasuper
Encoding: 736 736 419
Width: 250
VWidth: 893
Flags: MW
LayerCount: 2
Fore
SplineSet
8 630 m 1
 70 630 l 1
 126 467 l 1
 181 630 l 1
 242 630 l 1
 167 409 l 1
 175 400 187 383 187 361 c 0
 187 325 158 299 125 299 c 0
 91 299 64 327 64 360 c 0
 64 381 76 398 83 407 c 1
 8 630 l 1
115 350 m 0
 115 346 116 342 118 338 c 1
 122 336 123 336 125 336 c 2
 128 336 l 1
 132 339 136 341 136 349 c 0
 136 359 130 367 125 373 c 1
 119 364 115 357 115 350 c 0
EndSplineSet
EndChar
StartChar: lsuper
Encoding: 737 737 584
Width: 128
VWidth: 893
Flags: MW
LayerCount: 2
Fore
SplineSet
30 393 m 1
 30 741 l 1
 97 741 l 1
 97 393 l 1
 30 393 l 1
EndSplineSet
EndChar
StartChar: toneextrahigh
Encoding: 741 741 679
Width: 367
Flags: MW
LayerCount: 2
Fore
SplineSet
-68 648 m 4
 -68 673 -53 716 11 716 c 6
 357 716 l 6
 425 716 435 667 435 648 c 4
 435 624 420 580 358 580 c 6
 11 580 l 6
 -58 580 -68 629 -68 648 c 4
298 -22 m 5
 298 717 l 5
 435 717 l 5
 435 -22 l 5
 298 -22 l 5
EndSplineSet
EndChar
StartChar: tonehigh
Encoding: 742 742 600
Width: 367
Flags: MW
LayerCount: 2
Fore
SplineSet
-68 497 m 4
 -68 522 -53 565 11 565 c 6
 357 565 l 6
 425 565 435 516 435 497 c 4
 435 473 420 429 358 429 c 6
 11 429 l 6
 -58 429 -68 478 -68 497 c 4
298 -22 m 5
 298 717 l 5
 435 717 l 5
 435 -22 l 5
 298 -22 l 5
EndSplineSet
EndChar
StartChar: tonemid
Encoding: 743 743 629
Width: 367
Flags: MW
LayerCount: 2
Fore
SplineSet
-68 347 m 4
 -68 372 -53 415 11 415 c 6
 357 415 l 6
 425 415 435 366 435 347 c 4
 435 323 420 279 358 279 c 6
 11 279 l 6
 -58 279 -68 328 -68 347 c 4
298 -22 m 5
 298 717 l 5
 435 717 l 5
 435 -22 l 5
 298 -22 l 5
EndSplineSet
EndChar
StartChar: toneextralow
Encoding: 745 745 431
Width: 367
Flags: MW
LayerCount: 2
Fore
SplineSet
-68 45 m 4
 -68 70 -53 113 11 113 c 6
 357 113 l 6
 425 113 435 64 435 45 c 4
 435 21 420 -23 358 -23 c 6
 11 -23 l 6
 -58 -23 -68 26 -68 45 c 4
298 -22 m 5
 298 717 l 5
 435 717 l 5
 435 -22 l 5
 298 -22 l 5
EndSplineSet
EndChar
StartChar: dblgravecmb
Encoding: 783 783 598
Width: 0
Flags: MW
LayerCount: 2
Fore
SplineSet
-459 695 m 1
 -322 695 l 1
 -300 546 l 1
 -373 546 l 1
 -459 695 l 1
-276 695 m 1
 -139 695 l 1
 -117 546 l 1
 -190 546 l 1
 -276 695 l 1
EndSplineSet
EndChar
StartChar: lefttackbelowcmb
Encoding: 792 792 701
Width: 0
Flags: MW
LayerCount: 2
Fore
SplineSet
-368 -240 m 5
 -368 -167 l 5
 -221 -167 l 5
 -221 -63 l 5
 -148 -63 l 5
 -148 -343 l 5
 -221 -343 l 5
 -221 -240 l 5
 -368 -240 l 5
EndSplineSet
EndChar
StartChar: righttackbelowcmb
Encoding: 793 793 702
Width: 0
VWidth: 620
Flags: MW
LayerCount: 2
Fore
SplineSet
-343 -343 m 5
 -343 -63 l 5
 -270 -63 l 5
 -270 -167 l 5
 -123 -167 l 5
 -123 -240 l 5
 -270 -240 l 5
 -270 -343 l 5
 -343 -343 l 5
EndSplineSet
EndChar
StartChar: leftangleabovecmb
Encoding: 794 794 706
Width: 0
VWidth: 1134
Flags: MW
LayerCount: 2
Fore
SplineSet
-306 734 m 5
 -306 806 l 5
 -62 806 l 5
 -62 562 l 5
 -135 562 l 5
 -135 734 l 5
 -306 734 l 5
EndSplineSet
EndChar
StartChar: ringhalfleftbelowcmb
Encoding: 796 796 442
Width: 0
VWidth: 630
Flags: MW
LayerCount: 2
Fore
SplineSet
-282 -216 m 4
 -282 -139 -218 -64 -109 -62 c 5
 -109 -134 l 5
 -169 -137 -209 -172 -209 -216 c 4
 -209 -239 -192 -294 -109 -297 c 5
 -109 -370 l 5
 -214 -368 -282 -297 -282 -216 c 4
EndSplineSet
EndChar
StartChar: uptackbelowcmb
Encoding: 797 797 526
Width: 0
VWidth: 620
Flags: MW
LayerCount: 2
Fore
SplineSet
-386 -282 m 5
 -386 -210 l 5
 -282 -210 l 5
 -282 -63 l 5
 -209 -63 l 5
 -209 -210 l 5
 -106 -210 l 5
 -106 -282 l 5
 -386 -282 l 5
EndSplineSet
EndChar
StartChar: downtackbelowcmb
Encoding: 798 798 618
Width: 0
VWidth: 620
Flags: MW
LayerCount: 2
Fore
SplineSet
-386 -136 m 5
 -386 -63 l 5
 -106 -63 l 5
 -106 -136 l 5
 -209 -136 l 5
 -209 -282 l 5
 -282 -282 l 5
 -282 -136 l 5
 -386 -136 l 5
EndSplineSet
EndChar
StartChar: plusbelowcmb
Encoding: 799 799 608
Width: 0
VWidth: 620
Flags: MW
LayerCount: 2
Fore
SplineSet
-404 -258 m 5
 -404 -185 l 5
 -282 -185 l 5
 -282 -63 l 5
 -209 -63 l 5
 -209 -185 l 5
 -87 -185 l 5
 -87 -258 l 5
 -209 -258 l 5
 -209 -380 l 5
 -282 -380 l 5
 -282 -258 l 5
 -404 -258 l 5
EndSplineSet
EndChar
StartChar: bridgebelowcmb
Encoding: 810 810 703
Width: 0
Flags: MW
LayerCount: 2
Fore
SplineSet
-465 -95 m 1xb0
 -87 -95 l 1
 -87 -263 l 1
 -160 -263 l 1xb0
 -160 -168 l 1
 -392 -168 l 1x70
 -392 -263 l 1
 -465 -263 l 1
 -465 -95 l 1xb0
EndSplineSet
EndChar
StartChar: breveinvertedbelowcmb
Encoding: 815 815 521
Width: 0
VWidth: 169
Flags: MW
LayerCount: 2
Fore
SplineSet
-1015 -288 m 1
 -1012 -187 -914 -138 -826 -138 c 0
 -740 -138 -640 -187 -637 -288 c 1
 -710 -288 l 1
 -714 -247 -751 -232 -826 -232 c 4
 -907 -232 -938 -250 -942 -288 c 1
 -1015 -288 l 1
EndSplineSet
EndChar
StartChar: macronbelowcmb
Encoding: 817 817 639
Width: 0
VWidth: 800
Flags: MW
LayerCount: 2
Fore
SplineSet
-435 -200 m 0
 -435 -175 -420 -132 -356 -132 c 2
 -10 -132 l 2
 58 -132 68 -181 68 -200 c 0
 68 -224 53 -268 -9 -268 c 2
 -356 -268 l 2
 -425 -268 -435 -219 -435 -200 c 0
EndSplineSet
EndChar
StartChar: ringhalfrightbelowcmb
Encoding: 825 825 606
Width: 0
VWidth: 630
Flags: MW
LayerCount: 2
Fore
SplineSet
-260 -370 m 5
 -260 -297 l 5
 -194 -294 -160 -255 -160 -216 c 4
 -160 -199 -172 -138 -260 -134 c 5
 -260 -62 l 5
 -163 -64 -87 -128 -87 -216 c 4
 -87 -293 -152 -368 -260 -370 c 5
EndSplineSet
EndChar
StartChar: bridgeinvertedbelowcmb
Encoding: 826 826 457
Width: 0
Flags: MW
LayerCount: 2
Fore
SplineSet
-465 -95 m 1x70
 -392 -95 l 1x70
 -392 -190 l 1
 -160 -190 l 1xb0
 -160 -95 l 1
 -87 -95 l 1
 -87 -263 l 1
 -465 -263 l 1
 -465 -95 l 1x70
EndSplineSet
EndChar
StartChar: squarebelowcmb
Encoding: 827 827 623
Width: 0
Flags: MW
LayerCount: 2
Fore
SplineSet
-465 -95 m 1x98
 -87 -95 l 1
 -87 -299 l 1
 -465 -299 l 1
 -465 -95 l 1x98
-392 -168 m 1
 -392 -226 l 1
 -160 -226 l 1x78
 -160 -168 l 1
 -392 -168 l 1
EndSplineSet
EndChar
StartChar: seagullbelowcmb
Encoding: 828 828 645
Width: 0
Flags: MW
LayerCount: 2
Fore
SplineSet
-509 -200 m 1
 -493 -121 -431 -84 -375 -84 c 0
 -335 -84 -304 -98 -276 -120 c 1
 -248 -98 -216 -84 -177 -84 c 0
 -122 -84 -60 -120 -43 -200 c 1
 -106 -236 l 1
 -115 -203 -131 -157 -178 -157 c 0
 -202 -157 -232 -168 -238 -192 c 0
 -241 -201 -241 -236 -277 -236 c 0
 -293 -236 -305 -225 -310 -213 c 1
 -313 -194 -318 -157 -374 -157 c 0
 -434 -157 -445 -236 -446 -236 c 1
 -509 -200 l 1
EndSplineSet
EndChar
StartChar: xabovecmb
Encoding: 829 829 610
Width: 0
VWidth: 1134
Flags: MW
LayerCount: 2
Fore
SplineSet
-447 673 m 1
 -369 707 l 1
 -447 740 l 1
 -416 806 l 1
 -274 748 l 25
 -136 806 l 1
 -105 740 l 1
 -183 707 l 1
 -105 673 l 1
 -136 607 l 1
 -276 667 l 1
 -416 607 l 1
 -447 673 l 1
EndSplineSet
EndChar
StartChar: breveinverteddoublecmb
Encoding: 865 865 677
Width: 0
Flags: MW
LayerCount: 2
Fore
SplineSet
-274 507 m 1
 -270 664 -94 681 28 681 c 0
 135 681 327 671 332 507 c 1
 195 507 l 1
 189 588 99 595 29 595 c 0
 -41 595 -131 588 -138 507 c 1
 -274 507 l 1
EndSplineSet
EndChar
StartChar: tonos
Encoding: 900 900 498
Width: 183
Flags: MW
LayerCount: 2
Fore
SplineSet
-4 517 m 5
 53 695 l 5
 190 695 l 5
 69 517 l 5
 -4 517 l 5
EndSplineSet
EndChar
StartChar: dieresistonos
Encoding: 901 901 516
Width: 306
Flags: MW
LayerCount: 2
Fore
SplineSet
86 517 m 5
 143 695 l 5
 280 695 l 5
 159 517 l 5
 86 517 l 5
-34 520 m 1
 -34 583 l 1
 65 583 l 1
 65 520 l 1
 -34 520 l 1
241 520 m 1xe8
 241 583 l 1
 339 583 l 1
 339 520 l 1
 241 520 l 1xe8
EndSplineSet
EndChar
StartChar: iotadieresistonos
Encoding: 912 912 417
Width: 290
Flags: MW
LayerCount: 2
Fore
SplineSet
53 517 m 5
 110 695 l 5
 247 695 l 5
 126 517 l 5
 53 517 l 5
-65 520 m 5
 -65 583 l 5
 34 583 l 5
 34 520 l 5
 -65 520 l 5
209 520 m 5xf9
 209 583 l 5
 308 583 l 5
 308 520 l 5
 209 520 l 5xf9
EndSplineSet
Refer: 255 953 S 1 0 0 1 0 0 2
EndChar
StartChar: Gamma
Encoding: 915 915 208
Width: 581
Flags: MW
LayerCount: 2
Fore
SplineSet
91 0 m 1
 91 692 l 1xb0
 534 692 l 1
 534 587 l 1xd0
 239 590 l 1
 239 0 l 1xb0
 91 0 l 1
EndSplineSet
EndChar
StartChar: Delta
Encoding: 916 916 211
Width: 917
Flags: MW
LayerCount: 2
Fore
SplineSet
45 0 m 1
 362 695 l 1
 553 695 l 1
 869 0 l 1
 45 0 l 1
246 133 m 1
 646 133 l 1
 446 571 l 1
 246 133 l 1
EndSplineSet
EndChar
StartChar: Theta
Encoding: 920 920 230
Width: 856
Flags: MW
LayerCount: 2
Fore
SplineSet
60 346 m 0
 60 577 171 717 425 717 c 0
 616 717 793 642 793 343 c 0
 793 154 720 -22 428 -22 c 0
 134 -22 60 150 60 346 c 0
202 342 m 0
 202 127 269 53 426 53 c 0
 596 53 651 190 651 329 c 24
 651 480 605 644 427 644 c 0
 251 644 202 512 202 342 c 0
264 282 m 1
 264 415 l 1
 589 415 l 1
 589 282 l 1
 264 282 l 1
EndSplineSet
EndChar
StartChar: Lambda
Encoding: 923 923 233
Width: 672
Flags: MW
LayerCount: 2
Fore
SplineSet
30 -0 m 1
 243 695 l 1
 427 695 l 1
 640 -0 l 1
 486 -0 l 1
 486 -0 337 530 325 569 c 1
 164 -0 l 1
 30 -0 l 1
EndSplineSet
EndChar
StartChar: Xi
Encoding: 926 926 219
Width: 733
Flags: MW
LayerCount: 2
Fore
SplineSet
45 -0 m 1
 45 122 l 5
 686 122 l 5
 686 -0 l 1
 45 -0 l 1
51 567 m 5
 51 689 l 1
 680 689 l 1
 680 567 l 5
 51 567 l 5
121 298 m 1
 121 419 l 1
 610 419 l 1
 610 298 l 1
 121 298 l 1
EndSplineSet
EndChar
StartChar: Pi
Encoding: 928 928 223
Width: 794
Flags: MW
LayerCount: 2
Fore
SplineSet
91 0 m 1
 91 692 l 1
 702 692 l 1
 702 0 l 1
 554 0 l 1
 554 597 l 1
 239 597 l 1
 239 0 l 1
 91 0 l 1
EndSplineSet
EndChar
StartChar: Sigma
Encoding: 931 931 223
Width: 794
Flags: MW
LayerCount: 2
Fore
SplineSet
60 0 m 1
 322 329 l 1
 60 594 l 1
 60 695 l 1
 732 695 l 1
 732 590 l 1
 269 593 l 1
 512 347 l 1
 323 110 l 1
 732 113 l 1
 732 0 l 1
 60 0 l 1
EndSplineSet
EndChar
StartChar: Upsilon
Encoding: 933 933 242
Width: 856
Flags: MW
LayerCount: 2
Fore
SplineSet
60 556 m 1
 63 664 167 717 254 717 c 0
 407 717 422 527 427 525 c 1
 442 610 485 717 599 717 c 0
 687 717 790 664 793 556 c 1
 657 556 l 1
 650 602 609 606 596 606 c 0
 503 606 501 470 501 362 c 2
 500 0 l 1
 353 0 l 1
 353 381 l 2
 353 467 349 606 257 606 c 0
 244 606 202 601 197 556 c 1
 60 556 l 1
EndSplineSet
EndChar
StartChar: Phi
Encoding: 934 934 228
Width: 794
Flags: MW
LayerCount: 2
Fore
SplineSet
60 348 m 0
 60 491 159 576 322 587 c 1
 322 695 l 1
 465 695 l 1
 465 588 l 1
 687 572 732 443 732 347 c 0
 732 251 685 122 465 107 c 1
 465 0 l 1
 322 0 l 1
 322 107 l 1
 161 118 60 201 60 348 c 0
205 349 m 0
 205 253 231 200 322 182 c 1
 322 512 l 1
 231 495 205 439 205 349 c 0
465 181 m 1
 561 198 587 254 587 347 c 0
 587 450 553 498 465 513 c 1
 465 181 l 1
EndSplineSet
EndChar
StartChar: Psi
Encoding: 936 936 245
Width: 856
Flags: MW
LayerCount: 2
Fore
SplineSet
60 547 m 1
 60 620 l 1
 192 620 l 2
 217 620 233 610 242 580 c 0
 250 553 253 508 253 441 c 2
 253 430 l 2
 253 360 259 304 279 262 c 0
 294 230 317 206 353 190 c 1
 353 695 l 1
 495 695 l 1
 495 189 l 1
 534 205 559 230 574 262 c 0
 597 309 600 370 600 433 c 2
 600 439 l 2
 600 505 603 547 610 574 c 0
 620 615 639 620 661 620 c 2
 793 620 l 1
 793 547 l 1
 766 544 754 527 748 502 c 0
 739 463 744 403 737 340 c 0
 731 286 714 230 669 183 c 0
 624 136 559 114 495 108 c 1
 495 0 l 1
 353 0 l 1
 353 108 l 1
 353 108 l 1
 271 117 217 146 181 184 c 0
 131 238 117 310 113 374 c 0
 110 422 112 466 107 492 c 0
 99 541 77 545 60 547 c 1
EndSplineSet
EndChar
StartChar: Omega
Encoding: 937 937 229
Width: 794
Flags: MW
LayerCount: 2
Fore
SplineSet
48 0 m 1
 48 108 l 1
 245 106 l 1
 172 248 60 328 60 465 c 0
 60 651 234 717 392 717 c 0
 568 717 732 653 732 465 c 0
 732 328 620 247 548 106 c 1
 745 108 l 1
 745 0 l 1
 450 0 l 1
 452 173 585 295 585 465 c 0
 585 575 542 644 396 644 c 0
 292 644 208 611 208 467 c 0
 208 295 341 173 343 0 c 1
 48 0 l 1
EndSplineSet
EndChar
StartChar: alphatonos
Encoding: 940 940 395
Width: 697
Flags: MW
LayerCount: 2
Fore
SplineSet
251 517 m 5
 308 695 l 5
 445 695 l 5
 324 517 l 5
 251 517 l 5
EndSplineSet
Refer: 232 945 S 1 0 0 1 0 0 2
EndChar
StartChar: epsilontonos
Encoding: 941 941 396
Width: 474
Flags: MW
LayerCount: 2
Fore
SplineSet
170 517 m 5
 227 695 l 5
 364 695 l 5
 243 517 l 5
 170 517 l 5
EndSplineSet
Refer: 236 949 S 1 0 0 1 0 0 2
EndChar
StartChar: etatonos
Encoding: 942 942 414
Width: 565
Flags: MW
LayerCount: 2
Fore
SplineSet
290 517 m 5
 347 695 l 5
 484 695 l 5
 363 517 l 5
 290 517 l 5
EndSplineSet
Refer: 253 951 S 1 0 0 1 0 0 2
EndChar
StartChar: iotatonos
Encoding: 943 943 372
Width: 290
Flags: MW
LayerCount: 2
Fore
SplineSet
53 517 m 5
 110 695 l 5
 247 695 l 5
 126 517 l 5
 53 517 l 5
EndSplineSet
Refer: 238 953 S 1 0 0 1 0 0 2
EndChar
StartChar: upsilondieresistonos
Encoding: 944 944 404
Width: 550
Flags: MW
LayerCount: 2
Fore
SplineSet
189 517 m 5
 246 695 l 5
 383 695 l 5
 262 517 l 5
 189 517 l 5
68 520 m 5
 68 583 l 5
 167 583 l 5
 167 520 l 5
 68 520 l 5
343 520 m 5xfa
 343 583 l 5
 441 583 l 5
 441 520 l 5
 343 520 l 5xfa
EndSplineSet
Refer: 251 965 S 1 0 0 1 0 0 2
EndChar
StartChar: alpha
Encoding: 945 945 247
Width: 697
Flags: MW
LayerCount: 2
Fore
SplineSet
45 239 m 0
 45 414 126 483 247 483 c 0
 353 483 409 401 423 384 c 1
 455 483 l 1
 591 483 l 1
 588 454 508 237 500 221 c 1
 505 214 532 114 562 114 c 0
 592 114 596 154 596 154 c 1
 732 154 l 1
 730 48 642 -11 562 -11 c 0
 487 -11 442 41 417 81 c 1
 375 33 329 -11 247 -11 c 0
 112 -11 45 88 45 239 c 0
182 241 m 0
 182 158 182 113 248 113 c 0
 305 113 353 206 354 218 c 1
 347 266 304 359 247 359 c 0
 182 359 182 307 182 241 c 0
EndSplineSet
EndChar
StartChar: beta
Encoding: 946 946 233
Width: 550
Flags: MW
LayerCount: 2
Fore
SplineSet
45 -53 m 1
 45 457 l 2
 45 587 68 706 248 706 c 0
 359 706 448 669 448 523 c 0xf0
 448 450 403 416 383 400 c 1
 431 379 503 334 503 197 c 0
 503 62 380 -11 277 -11 c 0
 213 -11 187 25 182 27 c 1
 182 -53 l 1
 45 -53 l 1
182 226 m 2
 182 157 219 92 274 92 c 0
 316 92 366 127 366 197 c 0xe8
 366 341 239 338 182 342 c 1
 182 432 l 1
 294 440 312 489 312 528 c 0xf0
 312 590 285 612 246 612 c 0
 194 612 182 580 182 527 c 2
 182 226 l 2
EndSplineSet
EndChar
StartChar: gamma
Encoding: 947 947 234
Width: 611
Flags: MW
LayerCount: 2
Fore
SplineSet
30 301 m 1
 32 419 128 483 209 483 c 0
 261 483 303 453 338 376 c 1
 382 426 461 482 565 483 c 1
 565 347 l 1
 515 346 475 323 446 298 c 4
 410 266 391 230 391 222 c 2
 398 182 l 2
 406 138 418 57 418 -63 c 0
 418 -147 356 -179 305 -179 c 0
 263 -179 191 -156 191 -61 c 0
 191 13 201 129 249 237 c 0
 255 250 258 255 258 263 c 0
 258 267 252 308 235 331 c 0
 228 340 220 346 210 346 c 0
 198 346 171 338 167 301 c 1
 30 301 l 1
EndSplineSet
EndChar
StartChar: delta
Encoding: 948 948 233
Width: 519
Flags: MW
LayerCount: 2
Fore
SplineSet
45 226 m 0xe8
 45 406 140 437 184 451 c 1
 153 468 62 496 62 565 c 0
 62 624 109 690 180 690 c 0
 224 690 283 670 451 573 c 1
 410 504 l 1
 322 555 273 578 249 591 c 0
 224 605 191 606 182 606 c 0
 168 606 157 590 157 568 c 0xd8
 157 552 176 536 198 525 c 2
 337 451 l 2
 431 401 472 337 472 223 c 0
 472 53 387 -11 258 -11 c 0
 88 -11 45 102 45 226 c 0xe8
178 163 m 0
 178 106 190 63 239 63 c 0
 328 63 340 215 340 285 c 0
 340 334 332 386 278 386 c 0xe8
 188 386 178 246 178 163 c 0
EndSplineSet
EndChar
StartChar: epsilon
Encoding: 949 949 251
Width: 474
Flags: MW
LayerCount: 2
Fore
SplineSet
45 153 m 0xf0
 45 207 78 236 120 253 c 1
 97 269 60 290 60 346 c 0
 60 434 154 483 233 483 c 0
 309 483 355 429 411 374 c 1
 334 298 l 1
 295 342 274 374 234 374 c 0
 198 374 168 354 168 326 c 0xe8
 168 280 244 279 284 279 c 1
 284 221 l 1
 230 221 153 220 153 172 c 0
 153 130 194 98 236 98 c 0
 282 98 314 136 353 175 c 1
 430 98 l 1
 333 -12 271 -11 235 -11 c 0xf0
 139 -11 45 56 45 153 c 0xf0
EndSplineSet
EndChar
StartChar: zeta
Encoding: 950 950 235
Width: 519
Flags: MW
LayerCount: 2
Fore
SplineSet
45 252 m 0
 45 379 115 477 184 547 c 1
 130 566 62 609 60 706 c 1
 197 706 l 1
 199 684 208 659 254 659 c 0
 317 659 386 706 388 706 c 1
 461 591 l 1
 368 532 182 430 182 252 c 4
 182 202 201 147 247 138 c 0
 357 113 472 85 472 -68 c 0
 472 -171 384 -258 259 -260 c 1
 259 -137 l 1
 277 -133 335 -120 335 -68 c 0
 335 -29 301 -6 272 -1 c 0
 163 13 45 94 45 252 c 0
EndSplineSet
EndChar
StartChar: eta
Encoding: 951 951 238
Width: 565
Flags: MW
LayerCount: 2
Fore
SplineSet
30 309 m 1
 30 407 88 494 176 494 c 0
 203 494 254 488 296 427 c 1
 323 483 363 495 393 495 c 0
 468 495 511 418 518 309 c 2
 518 -167 l 1
 382 -167 l 1
 382 288 l 2
 382 323 379 356 358 356 c 0
 345 356 336 339 336 293 c 2
 336 -0 l 1
 199 -0 l 1
 199 257 l 2
 198 369 194 369 172 369 c 3
 156 369 154 344 154 309 c 1
 30 309 l 1
EndSplineSet
EndChar
StartChar: theta
Encoding: 952 952 239
Width: 550
Flags: MW
LayerCount: 2
Fore
SplineSet
45 347 m 0
 45 549 132 706 275 706 c 0
 417 706 503 548 503 348 c 0
 503 138 412 -11 274 -11 c 0
 131 -11 45 146 45 347 c 0
182 302 m 2
 186 225 191 125 274 125 c 0
 358 125 365 230 366 325 c 1
 182 325 l 1
 182 302 l 2
182 398 m 1
 366 398 l 1
 362 471 356 569 274 569 c 0
 195 569 186 479 182 398 c 1
EndSplineSet
EndChar
StartChar: iota
Encoding: 953 953 240
Width: 306
Flags: MW
LayerCount: 2
Fore
SplineSet
45 140 m 2
 45 473 l 1
 182 473 l 1
 182 124 l 2
 182 120 182 113 183 107 c 0
 184 102 184 99 186 99 c 0
 190 99 193 101 194 105 c 4
 196 111 196 119 195 125 c 5
 291 125 l 1
 288 39 229 -11 168 -11 c 0
 83 -11 45 57 45 140 c 2
EndSplineSet
EndChar
StartChar: kappa
Encoding: 954 954 256
Width: 532
Flags: MW
LayerCount: 2
Fore
SplineSet
60 0 m 1
 60 473 l 1
 197 473 l 1
 197 333 l 1
 278 408 313 445 342 462 c 0
 363 475 380 477 410 477 c 0
 429 477 494 472 503 472 c 1
 503 349 l 1
 460 356 455 370 432 370 c 0
 422 370 413 364 398 351 c 6
 301 262 l 5
 563 0 l 1
 370 0 l 1
 201 169 l 1
 197 165 l 1
 197 0 l 1
 60 0 l 1
EndSplineSet
EndChar
StartChar: lambda
Encoding: 955 955 257
Width: 550
Flags: MW
LayerCount: 2
Fore
SplineSet
30 -0 m 1
 162 423 l 2
 166 439 168 443 168 451 c 0
 168 494 163 557 117 557 c 4
 88 557 69 515 53 492 c 1
 30 627 l 1
 89 684 134 694 160 694 c 4
 215 694 268 547 288 504 c 6
 519 -0 l 1
 368 -0 l 1
 252 253 l 1
 173 -0 l 1
 30 -0 l 1
EndSplineSet
EndChar
StartChar: mu
Encoding: 956 956 243
Width: 611
Flags: MW
LayerCount: 2
Fore
SplineSet
45 -167 m 1
 45 473 l 1
 182 473 l 1
 182 201 l 2
 183 140 209 126 227 126 c 0
 245 126 271 143 271 201 c 2
 271 473 l 1
 408 473 l 1
 408 200 l 2
 408 154 419 110 463 110 c 0
 488 110 519 133 519 167 c 2
 517 182 l 1
 612 182 l 1
 613 175 613 167 613 160 c 0
 613 72 545 -11 442 -11 c 0
 374 -11 341 24 314 52 c 1
 292 1 256 -11 227 -11 c 0
 202 -11 182 -1 182 0 c 1
 182 -167 l 1
 45 -167 l 1
EndSplineSet
EndChar
StartChar: nu
Encoding: 957 957 244
Width: 519
Flags: MW
LayerCount: 2
Fore
SplineSet
-0 472 m 1
 183 472 l 1
 217 437 220 370 280 173 c 1
 304 210 354 277 354 347 c 0
 354 360 351 372 337 472 c 1
 474 472 l 1
 487 390 489 380 489 370 c 0
 489 242 390 110 328 0 c 1
 191 0 l 1
 96 328 l 2
 75 398 63 425 -0 472 c 1
EndSplineSet
EndChar
StartChar: xi
Encoding: 958 958 260
Width: 519
Flags: MW
LayerCount: 2
Fore
SplineSet
45 226 m 0xfa
 45 263 53 363 159 439 c 1
 145 460 133 488 133 520 c 0
 133 549 142 569 153 588 c 1
 78 620 62 668 60 715 c 1
 197 715 l 1
 200 702 207 691 237 691 c 0
 265 691 279 693 373 715 c 1
 405 582 l 1
 367 574 327 567 275 567 c 0
 248 567 205 566 205 522 c 0xf6
 205 493 238 495 336 495 c 1
 336 358 l 1
 247 355 182 298 182 226 c 0
 182 180 210 147 241 139 c 0
 261 134 270 140 310 131 c 0
 416 106 472 13 472 -65 c 0
 472 -148 393 -175 321 -178 c 5
 321 -71 l 1
 331 -71 335 -63 335 -60 c 0
 335 -33 293 -3 252 0 c 0
 136 10 45 107 45 226 c 0xfa
EndSplineSet
EndChar
StartChar: pi
Encoding: 960 960 245
Width: 642
Flags: MW
LayerCount: 2
Fore
SplineSet
-17 437 m 1
 65 469 118 472 190 472 c 2
 596 472 l 1
 596 348 l 1
 515 348 l 1
 515 184 l 2
 515 163 512 110 524 110 c 0
 538 110 535 157 535 181 c 1
 630 181 l 1
 630 69 580 -11 504 -11 c 0
 409 -11 378 97 378 214 c 2
 378 348 l 1
 297 348 l 1
 297 -11 l 1
 161 -11 l 1
 161 348 l 1
 113 348 79 333 41 314 c 1
 -17 437 l 1
EndSplineSet
EndChar
StartChar: rho
Encoding: 961 961 263
Width: 519
Flags: MW
LayerCount: 2
Fore
SplineSet
45 -167 m 1
 45 221 l 2
 45 270 49 312 74 362 c 0
 103 419 163 483 259 483 c 0
 377 483 472 374 472 236 c 0
 472 108 386 -11 259 -11 c 0
 236 -11 210 -7 182 5 c 1
 182 -167 l 1
 45 -167 l 1
182 236 m 0
 182 178 197 98 259 98 c 0
 290 98 336 124 336 236 c 0
 336 349 289 374 259 374 c 0
 228 374 182 348 182 236 c 0
EndSplineSet
EndChar
StartChar: sigma.end
Encoding: 962 962 294
Width: 489
Flags: MW
LayerCount: 2
Fore
SplineSet
44 212 m 0
 44 316 114 472 442 472 c 1
 442 336 l 1
 334 336 251 332 206 279 c 0
 188 258 177 230 177 203 c 0
 177 126 225 119 291 119 c 0
 398 119 442 27 442 -35 c 0
 442 -92 400 -179 274 -185 c 1
 274 -61 l 1
 301 -55 304 -40 304 -35 c 0
 304 7 244 -3 209 3 c 0
 116 20 44 105 44 212 c 0
EndSplineSet
EndChar
StartChar: sigma
Encoding: 963 963 249
Width: 626
Flags: MW
LayerCount: 2
Fore
SplineSet
45 230 m 0
 45 357 142 472 300 472 c 2
 594 472 l 1
 594 336 l 1
 509 336 l 1
 526 297 533 269 533 230 c 0
 533 102 429 -11 289 -11 c 0
 158 -11 45 93 45 230 c 0
182 231 m 0
 182 169 234 126 289 126 c 0
 343 126 397 167 397 230 c 0
 397 292 344 335 289 335 c 0
 236 335 182 294 182 231 c 0
EndSplineSet
EndChar
StartChar: tau
Encoding: 964 964 250
Width: 504
Flags: MW
LayerCount: 2
Fore
SplineSet
-38 434 m 1
 27 466 73 472 132 472 c 2
 459 472 l 1
 459 348 l 1
 276 348 l 1
 276 194 l 2
 276 147 300 110 344 110 c 0
 377 110 408 139 412 181 c 1
 507 181 l 1
 503 56 411 -11 323 -11 c 0
 208 -11 139 82 139 194 c 2
 139 348 l 1
 126 348 l 2
 69 348 57 330 31 317 c 1
 -38 434 l 1
EndSplineSet
EndChar
StartChar: upsilon
Encoding: 965 965 266
Width: 550
Flags: MW
LayerCount: 2
Fore
SplineSet
45 472 m 1
 210 472 l 1
 239 391 255 325 255 227 c 0
 255 187 266 126 309 126 c 0
 343 126 366 157 366 237 c 0
 366 326 351 397 296 472 c 1
 452 472 l 1
 481 406 503 329 503 240 c 0
 503 102 425 -11 311 -11 c 0
 197 -11 133 96 121 195 c 0
 112 258 133 310 78 412 c 2
 45 472 l 1
EndSplineSet
EndChar
StartChar: phi
Encoding: 966 966 252
Width: 642
Flags: MW
LayerCount: 2
Fore
SplineSet
45 267 m 0
 45 393 132 507 258 536 c 1
 258 695 l 1
 381 695 l 1
 381 537 l 1
 507 509 594 394 594 266 c 0
 594 139 507 23 381 -6 c 1
 381 -167 l 1
 258 -167 l 1
 258 -5 l 1
 139 23 45 130 45 267 c 0
158 266 m 0
 158 201 196 137 258 111 c 1
 258 422 l 1
 197 396 158 332 158 266 c 0
381 110 m 1
 444 135 484 199 484 266 c 0
 484 332 445 397 381 423 c 1
 381 110 l 1
EndSplineSet
EndChar
StartChar: chi
Encoding: 967 967 268
Width: 611
Flags: MW
LayerCount: 2
Fore
SplineSet
45 -178 m 1
 228 154 l 1
 171 262 122 348 56 348 c 0
 53 348 45 347 45 347 c 1
 45 483 l 1
 57 486 69 487 81 487 c 0
 212 487 284 330 306 298 c 1
 408 483 l 1
 564 483 l 1
 381 151 l 1
 454 12 496 -42 553 -42 c 0
 558 -42 565 -41 565 -41 c 1
 565 -178 l 1
 552 -180 540 -181 527 -181 c 0
 397 -181 326 -26 303 7 c 1
 201 -178 l 1
 45 -178 l 1
EndSplineSet
EndChar
StartChar: psi
Encoding: 968 968 269
Width: 642
Flags: MW
LayerCount: 2
Fore
SplineSet
45 287 m 0
 45 357 59 421 75 472 c 1
 212 472 l 1
 181 423 154 364 154 286 c 0
 154 205 196 141 258 111 c 1
 258 695 l 1
 381 695 l 1
 381 111 l 1
 444 141 485 206 485 286 c 0
 485 377 447 439 427 472 c 1
 564 472 l 1
 580 421 594 358 594 287 c 0
 594 145 508 29 381 -4 c 1
 381 -167 l 1
 258 -167 l 1
 258 -4 l 1
 132 28 45 144 45 287 c 0
EndSplineSet
EndChar
StartChar: omega
Encoding: 969 969 253
Width: 733
Flags: MW
LayerCount: 2
Fore
SplineSet
38 203 m 0
 38 320 99 412 154 472 c 1
 318 472 l 1
 268 416 175 321 175 200 c 0
 175 139 199 98 236 98 c 0
 292 98 304 170 304 222 c 2
 304 300 l 1
 427 300 l 1
 427 222 l 2
 427 170 439 98 495 98 c 0
 532 98 557 139 557 200 c 0
 557 321 464 416 414 472 c 1
 578 472 l 1
 633 412 694 320 694 203 c 0
 694 85 608 -11 497 -11 c 0
 436 -11 395 16 366 45 c 1
 337 16 297 -11 236 -11 c 0
 125 -11 38 85 38 203 c 0
EndSplineSet
EndChar
StartChar: omicrontonos
Encoding: 972 972 401
Width: 581
Flags: MW
LayerCount: 2
Fore
SplineSet
223 517 m 1
 280 695 l 1
 417 695 l 1
 296 517 l 1
 223 517 l 1
EndSplineSet
Refer: 246 959 N 1 0 0 1 0 0 2
EndChar
StartChar: upsilontonos
Encoding: 973 973 376
Width: 550
Flags: MW
LayerCount: 2
Fore
SplineSet
189 517 m 5
 246 695 l 5
 383 695 l 5
 262 517 l 5
 189 517 l 5
EndSplineSet
Refer: 249 965 S 1 0 0 1 0 0 2
EndChar
StartChar: omegatonos
Encoding: 974 974 314
Width: 733
Flags: MW
LayerCount: 2
Fore
SplineSet
300 517 m 5
 357 695 l 5
 494 695 l 5
 373 517 l 5
 300 517 l 5
EndSplineSet
Refer: 253 969 N 1 0 0 1 0 0 2
EndChar
StartChar: theta.alt
Encoding: 977 977 476
Width: 655
Flags: MW
LayerCount: 2
Fore
SplineSet
-5 304 m 1
 -5 357 4 478 98 478 c 0
 144 478 264 451 264 344 c 2
 264 197 l 2xf4
 264 153 296 109 347 109 c 0
 413 109 421 254 421 362 c 1
 416 367 203 412 203 580 c 0xec
 203 664 286 700 351 700 c 0
 475 700 541 570 556 427 c 1
 605 418 619 418 619 418 c 25
 619 321 l 1
 619 321 578 328 560 331 c 1
 553 86 452 -5 348 -5 c 0
 156 -5 128 109 128 204 c 2
 128 340 l 2xf4
 128 373 123 401 100 401 c 0
 73 401 79 334 75 304 c 9
 -5 304 l 1
311 540 m 0
 311 491 356 472 416 457 c 1
 400 578 397 604 352 604 c 0xec
 323 604 311 578 311 540 c 0
EndSplineSet
EndChar
StartChar: phi.alt
Encoding: 981 981 594
Width: 642
Flags: MW
LayerCount: 2
Fore
SplineSet
45 241 m 0
 45 304 61 392 106 472 c 1
 263 472 l 1
 202 415 154 355 154 240 c 0
 154 162 212 127 251 110 c 1
 251 290 l 1
 254 390 305 483 422 483 c 4
 536 483 594 357 594 239 c 0
 594 101 487 20 388 -3 c 1
 388 -167 l 1
 251 -167 l 1
 251 -3 l 1
 147 21 45 105 45 241 c 0
388 110 m 1
 430 127 485 163 485 241 c 0
 485 288 480 374 425 374 c 0
 385 374 389 311 388 311 c 1
 388 110 l 1
EndSplineSet
EndChar
StartChar: stigma
Encoding: 987 987 624
Width: 550
Flags: MW
LayerCount: 2
Fore
SplineSet
60 325 m 0
 60 427 164 493 336 494 c 2
 488 495 l 1
 488 358 l 1
 362 372 329 388 247 388 c 0
 151 388 133 356 133 324 c 0
 133 269 212 262 283 262 c 2
 403 262 l 1
 403 157 l 1
 350 158 l 1
 360 0 l 1
 223 0 l 1
 234 170 l 1
 166 184 60 219 60 325 c 0
EndSplineSet
EndChar
StartChar: epsilon.alt
Encoding: 1013 1013 625
Width: 474
Flags: MW
LayerCount: 2
Fore
SplineSet
45 237 m 0
 45 386 202 484 412 484 c 1
 412 368 l 1
 244 368 198 316 178 282 c 1
 350 282 l 1
 350 191 l 1
 178 191 l 1
 198 157 244 105 412 105 c 1
 412 -11 l 1
 202 -11 45 88 45 237 c 0
EndSplineSet
EndChar
StartChar: Gje
Encoding: 1027 1027 381
Width: 581
Flags: MW
HStem: 0 21<91 239> 590 105<239 534> 593 102<239 534>
VStem: 91 148<0 593> 182 315<765 863>
LayerCount: 2
Fore
SplineSet
182 765 m 1
 304 863 l 1
 497 863 l 1
 300 771 l 1
 287 767 l 1
 272 765 l 9
 212 765 l 1
 182 765 l 1
EndSplineSet
Refer: 257 1043 N 1 0 0 1 0 0 2
EndChar
StartChar: Ie.ukran
Encoding: 1028 1028 408
Width: 703
Flags: MW
LayerCount: 2
Fore
SplineSet
60 346 m 0
 60 643 234 717 431 717 c 0
 512 717 566 705 634 682 c 1
 611 551 l 1
 571 579 527 617 428 617 c 0
 216 617 215 425 209 395 c 1
 542 395 l 1
 542 300 l 1
 209 300 l 1
 216 244 228 78 431 78 c 0
 542 78 578 106 637 144 c 1
 646 33 l 1
 561 -13 521 -23 429 -23 c 0
 229 -23 60 59 60 346 c 0
EndSplineSet
EndChar
StartChar: Lje
Encoding: 1033 1033 430
Width: 1158
Flags: MW
LayerCount: 2
Fore
SplineSet
20 -0 m 1
 20 91 l 1
 59 91 l 2xbe
 128 91 157 127 179 182 c 0
 221 289 223 497 223 695 c 1
 714 695 l 1
 714 409 l 1
 837 409 l 2
 986 409 1096 365 1096 202 c 0
 1096 70 975 3 822 0 c 1
 566 0 l 1x7e
 566 594 l 1
 333 594 l 1
 331 381 319 248 275 147 c 0
 215 11 131 0 79 -0 c 2xbe
 20 -0 l 1
714 87 m 1
 809 87 l 2
 892 87 956 114 956 201 c 0x7e
 956 278 902 314 812 314 c 2
 715 314 l 1
 714 280 l 1
 714 87 l 1
EndSplineSet
EndChar
StartChar: Nje
Encoding: 1034 1034 414
Width: 1115
Flags: MW
LayerCount: 2
Fore
SplineSet
91 0 m 1
 91 695 l 1
 239 695 l 1
 239 409 l 1
 524 409 l 1
 524 695 l 1
 671 695 l 1
 671 409 l 1
 794 409 l 2
 944 409 1053 366 1053 202 c 0
 1053 70 933 3 779 0 c 1
 524 0 l 1
 524 314 l 1
 239 314 l 1
 239 0 l 1
 91 0 l 1
671 87 m 1
 766 87 l 2
 850 87 913 114 913 202 c 0
 913 292 842 314 769 314 c 2
 672 314 l 1
 671 280 l 1
 671 87 l 1
EndSplineSet
EndChar
StartChar: Tshe
Encoding: 1035 1035 389
Width: 840
Flags: MW
LayerCount: 2
Fore
SplineSet
40 590 m 1
 40 695 l 1
 693 695 l 1
 693 591 l 1
 410 594 l 1
 410 377 l 1
 467 476 561 484 608 484 c 0
 773 484 778 390 778 318 c 2
 778 0 l 1
 641 0 l 1
 641 316 l 2
 641 386 615 411 536 411 c 0
 455 411 410 351 410 261 c 6
 410 0 l 1
 262 0 l 1
 262 593 l 1
 40 590 l 1
EndSplineSet
EndChar
StartChar: Kje
Encoding: 1036 1036 390
Width: 764
Flags: MW
HStem: 0 21<91 221 568 717> 675 20<91 221 542 701>
VStem: 91 130<0 218 376 695> 289 315<765 863>
LayerCount: 2
Fore
SplineSet
289 765 m 1
 411 863 l 1
 604 863 l 1
 407 771 l 1
 394 767 l 1
 379 765 l 9
 319 765 l 1
 289 765 l 1
EndSplineSet
Refer: 265 1050 N 1 0 0 1 0 0 2
EndChar
StartChar: U.short
Encoding: 1038 1038 417
Width: 733
Flags: MW
LayerCount: 2
Fore
SplineSet
186 902 m 5
 259 902 l 5
 264 864 295 851 373 851 c 4
 456 851 487 863 492 902 c 5
 565 902 l 5
 561 801 460 757 375 757 c 4
 289 757 190 803 186 902 c 5
EndSplineSet
Refer: 276 1059 S 1 0 0 1 0 0 2
EndChar
StartChar: Dzhe
Encoding: 1039 1039 435
Width: 764
Flags: MW
LayerCount: 2
Fore
SplineSet
91 0 m 1
 91 695 l 1
 239 695 l 1
 239 106 l 1
 523 106 l 1
 523 695 l 1
 671 695 l 1
 671 0 l 1
 441 0 l 1
 441 -167 l 1
 321 -167 l 1
 321 0 l 1
 91 0 l 1
EndSplineSet
EndChar
StartChar: Be
Encoding: 1041 1041 255
Width: 733
Flags: MW
LayerCount: 2
Fore
SplineSet
91 0 m 1
 91 695 l 1
 611 695 l 1
 611 590 l 1
 233 594 l 1
 233 409 l 1
 384 409 l 2
 547 409 671 332 671 202 c 0
 671 33 511 0 372 0 c 6
 91 0 l 1
233 87 m 1
 358 87 l 2
 456 87 532 107 532 202 c 4
 532 297 445 314 359 314 c 2
 234 314 l 1
 234 314 233 290 233 280 c 2
 233 87 l 1
EndSplineSet
EndChar
StartChar: Ge
Encoding: 1043 1043 257
Width: 581
Flags: MW
HStem: 0 21G<91 239> 590 105<239 534> 593 102<239 534>
VStem: 91 148<0 593>
LayerCount: 2
Fore
SplineSet
91 0 m 1
 91 695 l 1xb0
 534 695 l 1
 534 590 l 1xd0
 239 593 l 1
 239 0 l 1xb0
 91 0 l 1
EndSplineSet
EndChar
StartChar: De
Encoding: 1044 1044 260
Width: 850
Flags: MW
LayerCount: 2
Fore
SplineSet
40 106 m 1
 110 106 l 1
 202 209 225 345 225 695 c 1
 716 695 l 1
 716 106 l 1xfc
 811 106 l 1
 811 -167 l 1
 702 -167 l 1
 702 -0 l 1xfa
 150 -0 l 1
 150 -167 l 1
 40 -167 l 1
 40 106 l 1
244 106 m 1
 568 106 l 1xfc
 568 594 l 1
 335 594 l 1
 333 406 316 233 244 106 c 1
EndSplineSet
EndChar
StartChar: Ie
Encoding: 1045 1045 259
Width: 642
Flags: MW
HStem: 0 107<239 506> 0 111<328 595> 314 95<239 549> 590 105<239 580> 593 102<239 580>
VStem: 91 148<107 314 409 593>
LayerCount: 2
Fore
SplineSet
91 0 m 1
 91 695 l 1x6c
 580 695 l 1
 580 590 l 1x34
 239 593 l 1
 239 409 l 1
 549 409 l 1
 549 314 l 1
 239 314 l 1
 239 107 l 1xac
 595 111 l 1
 595 0 l 1x64
 91 0 l 1
EndSplineSet
EndChar
StartChar: Zhe
Encoding: 1046 1046 261
Width: 1215
Flags: MW
HStem: -0 21G<45 194 541 671 1018 1167> 675 20G<61 220 541 671 993 1152>
VStem: 541 130<0 218 376 695>
LayerCount: 2
Fore
SplineSet
45 -0 m 1
 338 419 l 1
 61 695 l 1
 220 695 l 1
 541 376 l 1
 541 695 l 1
 671 695 l 1
 671 376 l 1
 993 695 l 1
 1152 695 l 1
 874 419 l 1
 1167 -0 l 1
 1018 -0 l 1
 786 331 l 1
 671 218 l 1
 671 -0 l 1
 541 -0 l 1
 541 218 l 1
 426 331 l 1
 194 -0 l 1
 45 -0 l 1
EndSplineSet
EndChar
StartChar: Ze
Encoding: 1047 1047 262
Width: 672
Flags: MW
HStem: -22 86<169.3 415.3> 325 73<214 377.9> 630 87<201.9 422.9>
VStem: 459 137<479.485 644.1> 486 140<121.5 325.6>
LayerCount: 2
Fore
SplineSet
55 77 m 1
 111 173 l 1
 165 100 205 64 324 64 c 0
 440 64 486 116 486 194 c 0xe8
 486 321 370 325 316 325 c 2
 214 325 l 1
 214 398 l 1
 283 398 l 2
 383 398 459 420 459 518 c 0
 459 615 401 630 328 630 c 0
 231 630 175 594 129 524 c 1
 67 630 l 1
 157 697 225 717 331 717 c 0xf0
 490 717 596 689 596 519 c 0xf0
 596 394 463 370 430 363 c 1
 540 351 626 295 626 193 c 0
 626 82 540 -22 323 -22 c 0
 190 -22 139 6 55 77 c 1
EndSplineSet
EndChar
StartChar: I.cyr
Encoding: 1048 1048 263
Width: 764
Flags: MW
HStem: 0 21G<91 280 541 671> 675 20G<91 221 482 671>
VStem: 91 130<0 695> 541 130<0 695>
LayerCount: 2
Fore
SplineSet
91 0 m 1
 91 695 l 1
 221 695 l 1
 221 125 l 5
 482 695 l 1
 671 695 l 1
 671 0 l 1
 541 0 l 1
 541 538 l 2
 541 550 540 569 540 569 c 1
 280 0 l 1
 91 0 l 1
EndSplineSet
EndChar
StartChar: I.short
Encoding: 1049 1049 281
Width: 764
Flags: MW
LayerCount: 2
Fore
SplineSet
192 903 m 1
 265 903 l 1
 270 864 300 851 384 851 c 0xf8
 461 851 493 864 498 903 c 1
 571 903 l 1
 567 806 473 757 381 757 c 0
 294 757 195 804 192 903 c 1
EndSplineSet
Refer: 280 1048 S 1 0 0 1 0 0 2
EndChar
StartChar: El
Encoding: 1051 1051 266
Width: 807
Flags: MW
HStem: -0 91<20 94.6887> 594 101<333 566>
VStem: 223 110<317.1 642> 566 148<0 594>
LayerCount: 2
Fore
SplineSet
20 -0 m 1
 20 91 l 1
 59 91 l 2
 125 91 154 125 176 176 c 0
 221 282 223 494 223 695 c 1
 714 695 l 1
 714 0 l 1
 566 0 l 1
 566 594 l 1
 333 594 l 1
 333 550 319 248 275 147 c 0
 215 11 131 0 79 -0 c 2
 20 -0 l 1
EndSplineSet
EndChar
StartChar: En
Encoding: 1053 1053 268
Width: 764
Flags: MW
HStem: 0 21G<91 239 523 671> 314 95<239 523> 675 20G<91 239 523 671>
VStem: 91 148<0 314 409 695> 523 148<0 314 409 695>
LayerCount: 2
Fore
SplineSet
91 0 m 1
 91 695 l 1
 239 695 l 1
 239 409 l 1
 523 409 l 1
 523 695 l 1
 671 695 l 1
 671 0 l 1
 523 0 l 1
 523 314 l 1
 239 314 l 1
 239 0 l 1
 91 0 l 1
EndSplineSet
EndChar
StartChar: Pe
Encoding: 1055 1055 270
Width: 764
Flags: MW
HStem: 0 21G<91 239 523 671> 594 101<239 523>
VStem: 91 148<0 594> 523 148<0 594>
LayerCount: 2
Fore
SplineSet
91 0 m 1
 91 695 l 1
 671 695 l 1
 671 0 l 1
 523 0 l 1
 523 594 l 1
 239 594 l 1
 239 0 l 1
 91 0 l 1
EndSplineSet
EndChar
StartChar: Te
Encoding: 1058 1058 273
Width: 733
Flags: MW
LayerCount: 2
Fore
SplineSet
39 590 m 1
 39 695 l 1
 693 695 l 1
 693 590 l 1
 440 593 l 1
 440 0 l 1
 292 0 l 1
 292 593 l 1
 39 590 l 1
EndSplineSet
EndChar
StartChar: U.cyr
Encoding: 1059 1059 274
Width: 733
Flags: MW
HStem: -0 100<183 302> 675 20G<15 175 575 717>
LayerCount: 2
Fore
SplineSet
15 695 m 1
 175 695 l 1
 175 695 400 336 410 286 c 1
 422 317 442 375 465 434 c 2
 575 695 l 1
 717 695 l 1
 519 230 l 2
 494 171 454 84 390 34 c 0
 346 0 305 0 259 -0 c 2
 183 -0 l 1
 183 100 l 1
 281 100 l 2
 311 100 323 114 343 150 c 1
 15 695 l 1
EndSplineSet
EndChar
StartChar: Ef
Encoding: 1060 1060 275
Width: 917
Flags: MW
HStem: -0 21G<386 528> 105 74<386 386> 544 74<386 386> 675 20G<386 528>
VStem: 60 145<244 479.5> 386 142<-0 105 179 544 618 695> 709 145<244 479.5>
LayerCount: 2
Fore
SplineSet
60 362 m 0
 60 597 245 610 386 618 c 1
 386 695 l 1
 528 695 l 1
 528 618 l 1
 669 610 854 597 854 362 c 0
 854 126 669 113 528 105 c 1
 528 -0 l 1
 386 -0 l 1
 386 105 l 1
 245 113 60 126 60 362 c 0
205 362 m 0
 205 235 255 187 386 179 c 1
 386 544 l 1
 255 536 205 490 205 362 c 0
528 179 m 1
 659 187 709 239 709 363 c 0
 709 493 655 535 528 544 c 1
 528 179 l 1
EndSplineSet
EndChar
StartChar: Tse
Encoding: 1062 1062 277
Width: 807
Flags: MW
HStem: -167 21G<657 767> 0 106<239 524> 675 20G<91 239 524 671>
VStem: 91 148<106 695> 524 147<106 695> 657 110<-167 0>
LayerCount: 2
Fore
SplineSet
91 0 m 1xf4
 91 695 l 1
 239 695 l 1
 239 106 l 1
 524 106 l 1
 524 695 l 1
 671 695 l 1
 671 106 l 1xf8
 767 106 l 1
 767 -167 l 1
 657 -167 l 1
 657 0 l 1
 91 0 l 1xf4
EndSplineSet
EndChar
StartChar: Che
Encoding: 1063 1063 278
Width: 764
Flags: MW
HStem: 0 21G<523 671> 294 80<285 523> 675 20G<91 239 523 671>
VStem: 91 148<433.5 695> 523 148<0 695>
LayerCount: 2
Fore
SplineSet
91 458 m 2
 91 695 l 1
 239 695 l 1
 239 455 l 2
 239 432 240 410 253 395 c 0
 268 378 284 374 319 374 c 2
 523 374 l 1
 523 695 l 1
 671 695 l 1
 671 0 l 1
 523 0 l 1
 523 294 l 1
 456 294 323 294 323 294 c 2
 247 294 205 305 179 319 c 0
 101 359 91 409 91 458 c 2
EndSplineSet
EndChar
StartChar: Sha
Encoding: 1064 1064 281
Width: 1207
Flags: MW
LayerCount: 2
Fore
SplineSet
91 0 m 1
 91 695 l 1
 221 695 l 1
 221 106 l 1
 537 106 l 1
 537 695 l 1
 668 695 l 1
 668 106 l 1
 984 106 l 1
 984 695 l 1
 1114 695 l 1
 1114 0 l 1
 91 0 l 1
EndSplineSet
EndChar
StartChar: Shcha
Encoding: 1065 1065 297
Width: 1250
Flags: MW
LayerCount: 2
Fore
SplineSet
91 0 m 1xfa
 91 695 l 1
 221 695 l 1
 221 106 l 1
 537 106 l 1
 537 695 l 1
 668 695 l 1
 668 106 l 1
 984 106 l 1
 984 695 l 1
 1114 695 l 1
 1114 106 l 1xfc
 1210 106 l 1
 1210 -167 l 1
 1100 -167 l 1
 1100 0 l 1
 91 0 l 1xfa
EndSplineSet
EndChar
StartChar: Hard
Encoding: 1066 1066 281
Width: 940
Flags: MW
LayerCount: 2
Fore
SplineSet
39 590 m 1
 39 695 l 1
 440 695 l 1
 440 409 l 1
 591 409 l 2
 754 409 878 332 878 202 c 0
 878 33 718 0 579 0 c 2
 298 0 l 1
 298 593 l 1
 39 590 l 1
440 87 m 1
 565 87 l 2
 663 87 739 107 739 202 c 0
 739 297 657 314 566 314 c 2
 441 314 l 1
 441 314 440 293 440 280 c 2
 440 87 l 1
EndSplineSet
EndChar
StartChar: Soft
Encoding: 1068 1068 283
Width: 733
Flags: MW
HStem: 0 87<233 421> 314 95<233 417.5> 675 20G<91 233>
VStem: 91 142<0 695> 532 139<101 226>
LayerCount: 2
Fore
SplineSet
91 0 m 1
 91 695 l 1
 233 695 l 1
 233 409 l 1
 384 409 l 2
 547 409 671 332 671 202 c 0
 671 28 506 0 372 0 c 2
 91 0 l 1
233 87 m 1
 358 87 l 2
 456 87 532 107 532 202 c 0
 532 297 445 314 359 314 c 2
 234 314 l 1
 234 314 233 293 233 280 c 2
 233 87 l 1
EndSplineSet
EndChar
StartChar: E.cyr
Encoding: 1069 1069 286
Width: 703
Flags: MW
LayerCount: 2
Fore
SplineSet
55 33 m 1
 65 144 l 1
 124 106 160 78 270 78 c 0
 485 78 486 266 492 300 c 1
 159 300 l 1
 159 395 l 1
 492 395 l 1
 480 485 455 617 273 617 c 0
 163 617 114 567 90 551 c 1
 67 682 l 1
 135 705 189 717 270 717 c 0
 467 717 641 643 641 346 c 0
 641 59 473 -23 272 -23 c 0
 180 -23 141 -13 55 33 c 1
EndSplineSet
EndChar
StartChar: Iu
Encoding: 1070 1070 285
Width: 1143
Flags: MW
LayerCount: 2
Fore
SplineSet
91 0 m 1
 91 695 l 1
 239 695 l 1
 239 389 l 1
 411 389 l 1
 422 606 552 717 744 717 c 0
 966 717 1081 612 1081 347 c 0
 1081 155 1018 -22 745 -22 c 0
 478 -22 421 153 411 294 c 1
 239 294 l 1
 239 0 l 1
 91 0 l 1
557 368 m 0
 557 236 582 59 745 59 c 0
 913 59 934 224 934 355 c 0
 934 502 903 639 745 639 c 0
 592 639 557 503 557 368 c 0
EndSplineSet
EndChar
StartChar: Ia
Encoding: 1071 1071 286
Width: 703
Flags: MW
HStem: 0 21G<30 190 465 610> 304 80<409 465> 608 87<256 465>
VStem: 60 140<399.9 558.5> 465 145<0 304 384 608>
LayerCount: 2
Fore
SplineSet
30 0 m 1
 266 307 l 1
 99 322 60 423 60 500 c 0
 60 660 215 695 355 695 c 2
 610 695 l 1
 610 0 l 1
 465 0 l 1
 465 304 l 1
 409 304 l 1
 190 0 l 1
 30 0 l 1
200 500 m 0
 200 401 255 384 347 384 c 2
 465 384 l 1
 465 608 l 1
 342 608 l 2
 253 608 200 591 200 500 c 0
EndSplineSet
EndChar
StartChar: be
Encoding: 1073 1073 288
Width: 550
Flags: MW
HStem: -11 78<175 336> 416 73<221.5 338.5> 580 108<374 450>
VStem: 30 137<170.5 344> 382 136<133.5 333.5>
LayerCount: 2
Fore
SplineSet
30 238 m 0
 30 450 63 640 242 675 c 0
 262 679 283 681 450 695 c 1
 450 656 l 2
 450 588 400 590 374 587 c 0
 328 582 293 579 263 573 c 0
 173 556 124 485 113 392 c 1
 138 449 189 489 278 489 c 0
 399 489 518 437 518 230 c 0
 518 37 400 -11 272 -11 c 0
 78 -11 30 103 30 238 c 0
167 240 m 0
 167 133 180 67 274 67 c 0
 379 67 382 156 382 239 c 0
 382 333 378 416 274 416 c 0
 169 416 167 323 167 240 c 0
EndSplineSet
EndChar
StartChar: ve
Encoding: 1074 1074 289
Width: 525
Flags: MW
HStem: 0 73<180 323.5> 233 53<180 258> 405 67<181 278.5>
VStem: 60 120<0 472> 337 125<318 377.5> 358 129<70 189>
LayerCount: 2
Fore
SplineSet
60 0 m 1
 60 472 l 1
 271 472 l 2
 418 472 462 434 462 354 c 0xf8
 462 305 428 277 386 260 c 1
 431 244 487 211 487 145 c 0xf4
 487 36 418 0 278 0 c 2
 60 0 l 1
180 73 m 1
 264 73 l 2
 318 73 358 82 358 146 c 0xf4
 358 205 320 233 239 233 c 2
 181 233 l 1
 180 73 l 1
180 286 m 1
 208 286 l 2
 264 286 337 297 337 351 c 0xf8
 337 404 294 405 263 405 c 2
 181 405 l 1
 180 286 l 1
EndSplineSet
EndChar
StartChar: ge
Encoding: 1075 1075 290
Width: 433
Flags: MW
HStem: 0 21G<59 196> 402 70<59 405>
VStem: 59 137<0 472>
LayerCount: 2
Fore
SplineSet
59 0 m 1
 59 472 l 1
 405 472 l 1
 405 402 l 1
 196 404 l 5
 196 0 l 1
 59 0 l 1
EndSplineSet
EndChar
StartChar: de
Encoding: 1076 1076 291
Width: 636
Flags: MW
HStem: 0 73<194 411> 400 72<255 411>
VStem: 31 110<-139 0> 158 97<296.65 464> 411 120<73 400> 496 109<-139 0>
LayerCount: 2
Fore
SplineSet
31 73 m 1
 81 73 l 1
 132 122 158 187 158 464 c 2
 158 472 l 1
 531 472 l 1
 531 73 l 1xf8
 605 73 l 1
 605 -139 l 1
 496 -139 l 1
 496 0 l 1xf4
 141 0 l 1
 141 -139 l 1
 31 -139 l 1
 31 73 l 1
194 73 m 1
 411 73 l 1xf8
 411 400 l 1
 255 400 l 1
 251 294 250 177 194 73 c 1
EndSplineSet
EndChar
StartChar: zhe
Encoding: 1078 1078 294
Width: 806
Flags: MW
HStem: -0 21G<18 154 342 459 651 786> 452 20G<42 194 342 459 610 762>
VStem: 342 117<0 158 319 472>
LayerCount: 2
Fore
SplineSet
18 -0 m 1
 215 293 l 1
 42 472 l 1
 194 472 l 1
 342 319 l 1
 342 472 l 1
 459 472 l 1
 459 315 l 1
 610 472 l 1
 762 472 l 1
 589 292 l 1
 786 -0 l 1
 651 -0 l 1
 510 210 l 1
 459 158 l 1
 459 -0 l 1
 342 -0 l 1
 342 160 l 1
 294 210 l 1
 154 -0 l 1
 18 -0 l 1
EndSplineSet
EndChar
StartChar: ze
Encoding: 1079 1079 295
Width: 489
Flags: MW
HStem: -11 78<118.6 285> 233 53<151 245.254> 417 72<105.8 273.5>
VStem: 313 126<328.193 430.7> 323 128<91.1 206.8>
LayerCount: 2
Fore
SplineSet
30 39 m 1
 71 128 l 1
 116 93 146 67 215 67 c 0
 273 67 323 83 323 149 c 0xe8
 323 203 280 233 208 233 c 2
 151 233 l 1
 151 286 l 1
 195 286 l 2
 251 286 313 295 313 354 c 0
 313 413 260 417 215 417 c 0
 131 417 114 393 76 360 c 1
 36 446 l 1
 107 483 126 489 237 489 c 0xf0
 331 489 439 475 439 356 c 0xf0
 439 303 399 275 363 260 c 1
 428 235 451 193 451 147 c 0
 451 32 337 -11 220 -11 c 0
 142 -11 90 3 30 39 c 1
EndSplineSet
EndChar
StartChar: i.cyr
Encoding: 1080 1080 296
Width: 592
Flags: MW
HStem: 0 21G<67 245 403 524> 452 20G<67 187 346 524>
VStem: 67 120<0 472> 403 121<0 472>
LayerCount: 2
Fore
SplineSet
67 0 m 1
 67 472 l 1
 187 472 l 1
 187 125 l 1
 346 472 l 1
 524 472 l 1
 524 0 l 1
 403 0 l 1
 403 347 l 1
 245 0 l 1
 67 0 l 1
EndSplineSet
EndChar
StartChar: i.short
Encoding: 1081 1081 297
Width: 592
Flags: MW
HStem: 0 21<67 245 403 524> 452 20<67 187 346 524> 534 95<191.9 401.2>
VStem: 67 120<125 472> 403 121<0 347> 411 73<645.237 689.283>
LayerCount: 2
Fore
SplineSet
107 680 m 1
 179 680 l 1
 184 642 215 629 292 629 c 0
 376 629 406 641 411 680 c 1
 484 680 l 1
 480 578 378 534 296 534 c 0xf4
 209 534 110 581 107 680 c 1
EndSplineSet
Refer: 296 1080 S 1 0 0 1 0 0 2
EndChar
StartChar: ka
Encoding: 1082 1082 204
Width: 531
Flags: MW
LayerCount: 2
Fore
SplineSet
67 0 m 1
 67 472 l 1
 185 472 l 1
 185 315 l 1
 335 472 l 1
 487 472 l 1
 314 292 l 1
 511 0 l 1
 376 0 l 1
 235 210 l 1
 185 158 l 1
 185 0 l 1
 67 0 l 1
EndSplineSet
EndChar
StartChar: el
Encoding: 1083 1083 299
Width: 599
Flags: MW
HStem: -0 85<20 76> 400 72<157 530>
VStem: 157 96<291.5 472> 409 121<-0 472>
LayerCount: 2
Fore
SplineSet
20 -0 m 1
 20 85 l 1
 52 85 l 2
 129 85 157 134 157 472 c 1
 530 472 l 1
 530 -0 l 1
 409 -0 l 1
 409 400 l 1
 253 400 l 1
 253 58 207 -0 54 -0 c 2
 20 -0 l 1
EndSplineSet
EndChar
StartChar: em
Encoding: 1084 1084 300
Width: 744
Flags: MW
HStem: -0 21G<65 188 554 677> 452 20G<65 239 498 677>
VStem: 65 123<-0 472> 554 123<-0 472>
LayerCount: 2
Fore
SplineSet
65 -0 m 1
 65 472 l 1
 239 472 l 1
 368 151 l 1
 498 472 l 1
 677 472 l 1
 677 -0 l 1
 554 -0 l 1
 554 336 l 1
 425 11 l 1
 312 11 l 1
 267 124 203 280 188 336 c 1
 188 -0 l 1
 65 -0 l 1
EndSplineSet
EndChar
StartChar: en
Encoding: 1085 1085 301
Width: 561
Flags: MW
HStem: 0 21G<67 187 372 493> 233 53<187 372> 452 20G<67 187 372 493>
VStem: 67 120<0 233 286 472> 372 121<0 233 286 472>
LayerCount: 2
Fore
SplineSet
67 0 m 1
 67 472 l 1
 187 472 l 1
 187 286 l 1
 372 286 l 1
 372 472 l 1
 493 472 l 1
 493 0 l 1
 372 0 l 1
 372 233 l 1
 187 233 l 1
 187 0 l 1
 67 0 l 1
EndSplineSet
EndChar
StartChar: pe
Encoding: 1087 1087 305
Width: 561
Flags: MW
LayerCount: 2
Fore
SplineSet
67 0 m 1
 67 472 l 1
 493 472 l 1
 493 0 l 1
 372 0 l 1
 372 400 l 1
 187 400 l 1
 187 0 l 1
 67 0 l 1
EndSplineSet
EndChar
StartChar: te
Encoding: 1090 1090 306
Width: 489
Flags: MW
HStem: 0 21G<176 312> 397 75<27 176 312 461>
VStem: 176 136<0 399>
LayerCount: 2
Fore
SplineSet
27 397 m 1
 27 472 l 1
 461 472 l 1
 461 397 l 1
 312 399 l 1
 312 0 l 1
 176 0 l 1
 176 399 l 1
 27 397 l 1
EndSplineSet
EndChar
StartChar: ef
Encoding: 1092 1092 325
Width: 836
Flags: MW
LayerCount: 2
Fore
SplineSet
36 238 m 0
 36 381 82 483 209 483 c 0
 271 483 316 459 351 430 c 1
 351 695 l 1
 484 695 l 1
 484 430 l 1
 518 459 564 483 625 483 c 0
 729 483 799 416 799 236 c 0
 799 22 684 -11 606 -11 c 0
 552 -11 518 9 484 41 c 1
 484 -167 l 1
 351 -167 l 1
 351 41 l 1
 317 9 284 -11 229 -11 c 0
 108 -11 36 57 36 238 c 0
173 236 m 0
 173 103 218 62 279 62 c 0
 326 62 351 90 351 94 c 1
 351 379 l 1
 351 388 310 405 280 405 c 0
 208 405 173 343 173 236 c 0
484 94 m 1
 484 87 513 62 556 62 c 0
 630 62 662 122 662 236 c 0
 662 357 628 405 555 405 c 0
 525 405 484 388 484 379 c 1
 484 94 l 1
EndSplineSet
EndChar
StartChar: tse
Encoding: 1094 1094 310
Width: 629
Flags: MW
HStem: 0 73<187 403> 452 20G<67 187 403 524>
VStem: 67 120<73 472> 403 121<73 472> 488 110<-139 0>
LayerCount: 2
Fore
SplineSet
67 0 m 1xe8
 67 472 l 1
 187 472 l 1
 187 73 l 1
 403 73 l 1
 403 472 l 1
 524 472 l 1
 524 73 l 1xf0
 598 73 l 1
 598 -139 l 1
 488 -139 l 1
 488 0 l 1
 67 0 l 1xe8
EndSplineSet
EndChar
StartChar: che
Encoding: 1095 1095 311
Width: 592
Flags: MW
HStem: 0 21G<403 524> 200 54<184.6 403> 452 20G<67 187 403 524>
VStem: 67 120<259.3 472> 403 121<0 200 254 472>
LayerCount: 2
Fore
SplineSet
67 308 m 2
 67 472 l 1
 187 472 l 1
 187 310 l 2
 187 271 199 254 247 254 c 2
 403 254 l 1
 403 472 l 1
 524 472 l 1
 524 0 l 1
 403 0 l 1
 403 200 l 1
 241 200 l 2
 164 200 67 221 67 308 c 2
EndSplineSet
EndChar
StartChar: sha
Encoding: 1096 1096 312
Width: 836
Flags: MW
HStem: 0 73<187 357 478 647> 452 20G<67 187 357 478 647 768>
VStem: 67 120<73 472> 357 121<73 472> 647 121<73 472>
LayerCount: 2
Fore
SplineSet
67 0 m 1
 67 472 l 1
 187 472 l 1
 187 73 l 1
 357 73 l 1
 357 472 l 1
 478 472 l 1
 478 73 l 1
 647 73 l 1
 647 472 l 1
 768 472 l 1
 768 0 l 1
 67 0 l 1
EndSplineSet
EndChar
StartChar: shcha
Encoding: 1097 1097 315
Width: 874
Flags: MW
LayerCount: 2
Fore
SplineSet
67 0 m 1xf4
 67 472 l 1
 187 472 l 1
 187 73 l 1
 357 73 l 1
 357 472 l 1
 478 472 l 1
 478 73 l 1
 647 73 l 1
 647 472 l 1
 768 472 l 1
 768 73 l 1xf8
 842 73 l 1
 842 -139 l 1
 733 -139 l 1
 733 0 l 1
 67 0 l 1xf4
EndSplineSet
EndChar
StartChar: hard
Encoding: 1098 1098 316
Width: 642
Flags: MW
LayerCount: 2
Fore
SplineSet
27 397 m 1
 27 472 l 1
 304 472 l 1
 304 286 l 1
 405 286 l 2
 493 286 604 274 604 153 c 0
 604 0 474 0 393 0 c 2
 184 0 l 1
 184 399 l 1
 27 397 l 1
304 78 m 1
 372 78 l 2
 423 78 476 87 476 155 c 0
 476 232 402 233 369 233 c 2
 304 233 l 1
 304 78 l 1
EndSplineSet
EndChar
StartChar: yeri
Encoding: 1099 1099 317
Width: 744
Flags: MW
LayerCount: 2
Fore
SplineSet
555 0 m 1xbe
 555 472 l 1
 676 472 l 1
 676 0 l 1
 555 0 l 1xbe
EndSplineSet
Refer: 318 1100 N 1 0 0 1 0 0 2
EndChar
StartChar: soft
Encoding: 1100 1100 316
Width: 525
Flags: MW
HStem: 0 78<187 311.5> 233 53<187 332> 452 20G<67 187>
VStem: 67 120<0 472> 359 128<74.5 213.5>
LayerCount: 2
Fore
SplineSet
67 0 m 1
 67 472 l 1
 187 472 l 1
 187 286 l 1
 288 286 l 2
 376 286 487 274 487 153 c 0
 487 0 357 0 276 0 c 2
 67 0 l 1
187 78 m 1
 256 78 l 2
 318 78 359 93 359 155 c 0
 359 195 340 233 253 233 c 2
 188 233 l 1
 187 78 l 1
EndSplineSet
EndChar
StartChar: e.cyr
Encoding: 1101 1101 334
Width: 489
Flags: MW
LayerCount: 2
Fore
SplineSet
30 35 m 1
 38 133 l 1
 76 102 126 67 210 67 c 0
 276 67 314 113 314 233 c 1
 122 233 l 1
 122 286 l 1
 313 286 l 1
 306 364 278 411 208 411 c 0
 120 411 93 382 53 351 c 1
 36 446 l 1
 84 471 119 489 208 489 c 0
 338 489 451 439 451 236 c 0
 451 38 336 -11 211 -11 c 0
 137 -11 80 8 30 35 c 1
EndSplineSet
EndChar
StartChar: iu
Encoding: 1102 1102 335
Width: 800
Flags: MW
LayerCount: 2
Fore
SplineSet
59 0 m 1
 59 472 l 1
 196 472 l 1
 196 286 l 1
 283 286 l 1
 288 291 282 489 526 489 c 0
 720 489 768 363 768 231 c 0
 768 56 673 -11 524 -11 c 0
 329 -11 281 104 280 233 c 1
 196 233 l 1
 196 0 l 1
 59 0 l 1
417 250 m 0
 417 155 419 67 525 67 c 0
 631 67 632 164 632 240 c 0
 632 336 628 416 524 416 c 0
 420 416 417 330 417 250 c 0
EndSplineSet
EndChar
StartChar: ia
Encoding: 1103 1103 319
Width: 556
Flags: MW
HStem: 0 21G<18 180 360 494> 209 54<337 360 337 337> 400 72<244.5 360>
VStem: 53 128<303 410> 360 134<0 472>
LayerCount: 2
Fore
SplineSet
18 0 m 1
 205 213 l 1
 116 222 53 266 53 345 c 0
 53 412 100 444 140 457 c 0
 177 470 223 472 279 472 c 2
 494 472 l 1
 494 0 l 1
 360 0 l 1
 360 209 l 1
 337 209 l 1
 180 0 l 1
 18 0 l 1
181 342 m 0
 181 264 241 263 312 263 c 2
 360 263 l 1
 360 400 l 1
 339 400 304 400 304 400 c 2
 204 400 181 392 181 342 c 0
EndSplineSet
EndChar
StartChar: dje
Encoding: 1106 1106 393
Width: 531
Flags: MW
HStem: -167 54<196 196> 0 21G<59 196> 411 72<265 420> 501 73<20 59 193 494> 675 20G<59 193>
VStem: 59 137<0 501 574 695> 357 137<199.5 352>
LayerCount: 2
Fore
SplineSet
20 501 m 1
 20 574 l 1
 59 574 l 1
 59 695 l 1
 193 695 l 1
 193 574 l 1
 494 574 l 1
 494 501 l 1
 193 501 l 1
 193 380 l 1
 210 417 256 483 350 483 c 0
 490 483 494 407 494 297 c 2
 494 235 l 1
 490 39 414 -167 196 -167 c 1
 196 -113 l 1
 348 -104 357 80 357 233 c 2
 357 296 l 2
 357 377 356 411 293 411 c 0
 253 411 196 386 196 251 c 2
 196 0 l 1
 59 0 l 1
 59 501 l 1
 20 501 l 1
EndSplineSet
EndChar
StartChar: ie.ukran
Encoding: 1108 1108 395
Width: 483
Flags: MW
HStem: -11 78<139.5 369.4> 233 53<168 360> 411 78<159.9 373.1>
VStem: 30 137<134.2 235>
LayerCount: 2
Fore
SplineSet
30 235 m 0
 30 438 142 489 273 489 c 0
 350 489 384 478 446 446 c 1
 429 351 l 1
 389 382 363 411 273 411 c 0
 186 411 172 345 168 286 c 1
 360 286 l 1
 360 233 l 1
 167 233 l 1
 167 157 171 67 276 67 c 0
 370 67 434 125 443 133 c 1
 451 35 l 1
 394 5 346 -11 268 -11 c 0
 77 -11 30 109 30 235 c 0
EndSplineSet
EndChar
StartChar: lje
Encoding: 1113 1113 443
Width: 853
Flags: MW
LayerCount: 2
Fore
SplineSet
20 -0 m 1
 20 85 l 1
 52 85 l 2
 71 85 98 82 121 127 c 0
 155 195 157 328 157 472 c 1
 530 472 l 1
 530 286 l 1
 615 286 l 2
 718 286 814 264 814 153 c 0
 814 25 710 -0 606 -0 c 2
 409 -0 l 1
 409 400 l 1
 253 400 l 1
 253 192 225 91 178 42 c 4
 145 8 103 0 54 -0 c 2
 20 -0 l 1
530 78 m 1
 585 78 l 2
 644 78 686 94 686 155 c 0
 686 219 629 233 581 233 c 2
 530 233 l 1
 530 78 l 1
EndSplineSet
EndChar
StartChar: nje
Encoding: 1114 1114 401
Width: 846
Flags: MW
HStem: 0 78<524 649.2> 233 53<187 403 524 627.353> 452 20G<67 187 403 524>
VStem: 67 120<0 233 286 472> 403 121<78 233 286 472> 680 128<70.5 193.3>
LayerCount: 2
Fore
SplineSet
67 0 m 1
 67 472 l 1
 187 472 l 1
 187 286 l 1
 403 286 l 1
 403 472 l 1
 524 472 l 1
 524 286 l 1
 609 286 l 2
 700 286 808 261 808 153 c 0
 808 26 708 0 606 0 c 6
 403 0 l 1
 403 233 l 1
 187 233 l 1
 187 0 l 1
 67 0 l 1
524 78 m 1
 579 78 l 2
 638 78 680 94 680 155 c 0
 680 219 625 233 575 233 c 6
 524 233 l 1
 524 78 l 1
EndSplineSet
EndChar
StartChar: tshe
Encoding: 1115 1115 402
Width: 561
Flags: MW
HStem: 0 21G<59 196 364 500> 411 72<227.9 372.7> 501 73<20 59 193 432> 675 20G<59 193>
VStem: 59 137<0 339.75 379 501 574 695> 364 137<0 388.1>
LayerCount: 2
Fore
SplineSet
20 501 m 1
 20 574 l 1
 59 574 l 1
 59 695 l 1
 193 695 l 1
 193 574 l 1
 432 574 l 1
 432 501 l 1
 193 501 l 1
 193 379 l 1
 211 417 257 483 354 483 c 0
 498 483 500 385 500 273 c 2
 500 0 l 1
 364 0 l 1
 364 327 l 2
 364 374 355 411 296 411 c 0
 228 411 200 341 196 291 c 2
 196 0 l 1
 59 0 l 1
 59 501 l 1
 20 501 l 1
EndSplineSet
EndChar
StartChar: u.short
Encoding: 1118 1118 404
Width: 500
Flags: MW
HStem: -178 85<75.3 209.8> 452 20<15 144 363 484> 534 95<148.9 356.9>
VStem: 15 469<472 472> 368 72<645.11 689.156>
LayerCount: 2
Fore
SplineSet
63 680 m 1
 135 680 l 1
 140 642 172 629 249 629 c 0
 332 629 363 641 368 680 c 1
 440 680 l 1
 436 578 335 534 252 534 c 0xe8
 165 534 66 581 63 680 c 1
EndSplineSet
Refer: 89 121 S 1 0 0 1 0 0 2
EndChar
StartChar: dzhe
Encoding: 1119 1119 405
Width: 592
Flags: MW
LayerCount: 2
Fore
SplineSet
67 0 m 1
 67 472 l 1
 187 472 l 1
 187 73 l 1
 403 73 l 1
 403 472 l 1
 524 472 l 1
 524 0 l 1
 350 0 l 1
 350 -139 l 1
 241 -139 l 1
 241 0 l 1
 67 0 l 1
EndSplineSet
EndChar
StartChar: Macute
Encoding: 7742 7742 449
Width: 978
Flags: MW
LayerCount: 2
Fore
SplineSet
331 767 m 1
 453 865 l 1
 646 865 l 1
 449 773 l 1
 436 769 l 1
 421 767 l 9
 361 767 l 1
 331 767 l 1
EndSplineSet
Refer: 45 77 N 1 0 0 1 0 0 3
EndChar
StartChar: figuredash
Encoding: 8210 8210 113
Width: 550
Flags: MW
LayerCount: 2
Fore
SplineSet
0 256 m 5
 0 328 l 5
 550 328 l 5
 550 256 l 5
 0 256 l 5
EndSplineSet
EndChar
StartChar: dagger
Encoding: 8224 8224 114
Width: 489
Flags: MW
LayerCount: 2
Fore
SplineSet
60 472 m 0
 60 514 93 540 127 540 c 0
 168 540 186 502 230 487 c 1
 216 550 175 585 175 637 c 0
 175 681 207 706 244 706 c 0
 281 706 312 679 312 637 c 0
 312 585 271 548 257 487 c 1
 301 502 318 540 360 540 c 0
 400 540 427 510 427 472 c 0
 427 434 399 405 360 404 c 0
 319 404 300 443 257 458 c 1
 266 380 312 347 312 257 c 2
 312 -189 l 1
 175 -189 l 1
 175 257 l 2
 175 346 221 382 230 458 c 1
 187 443 167 404 126 404 c 3
 88 404 60 434 60 472 c 0
EndSplineSet
EndChar
StartChar: bullet
Encoding: 8226 8226 117
Width: 550
Flags: MW
LayerCount: 2
Fore
SplineSet
60 263 m 0
 60 412 146 478 275 478 c 0
 373 478 488 435 488 264 c 0
 488 116 402 50 273 50 c 0
 129 50 60 134 60 263 c 0
EndSplineSet
EndChar
StartChar: perthousand
Encoding: 8240 8240 123
Width: 1396
Flags: MW
LayerCount: 2
Fore
SplineSet
60 549 m 0
 60 653 97 750 243 750 c 0
 393 750 422 641 422 547 c 0
 422 436 378 347 241 347 c 0
 132 347 60 403 60 549 c 0
180 541 m 27
 180 488 178 420 241 420 c 0
 302 420 307 504 307 549 c 0
 307 608 300 677 241 677 c 0
 176 677 180 599 180 541 c 27
201 -14 m 0
 201 1 209 12 216 21 c 2
 746 723 l 2
 749 727 762 750 787 750 c 0
 812 750 828 729 828 708 c 0
 828 696 823 687 815 677 c 2
 281 -32 l 2
 278 -36 265 -55 242 -55 c 0
 219 -55 201 -37 201 -14 c 0
605 147 m 0
 605 259 648 347 787 347 c 0
 938 347 966 239 966 144 c 0
 966 -4 890 -56 786 -56 c 0
 641 -56 605 44 605 147 c 0
725 152 m 7
 725 56 740 7 786 7 c 0
 836 7 851 85 851 146 c 3
 851 216 834 274 786 274 c 0
 743 274 725 229 725 152 c 7
971 147 m 0
 971 292 1044 347 1154 347 c 0
 1304 347 1333 239 1333 144 c 0
 1333 33 1290 -56 1152 -56 c 0
 1044 -56 971 0 971 147 c 0
1092 138 m 3
 1092 60 1107 17 1152 17 c 0
 1200 17 1218 77 1218 146 c 0
 1218 234 1197 274 1152 274 c 0
 1102 274 1092 224 1092 138 c 3
EndSplineSet
EndChar
StartChar: guilsinglright
Encoding: 8250 8250 110
Width: 428
Flags: MW
LayerCount: 2
Fore
SplineSet
121 73 m 1
 159 216 166 239 166 251 c 0
 166 258 164 263 121 427 c 1
 194 427 l 1
 304 250 l 1
 194 73 l 1
 121 73 l 1
EndSplineSet
EndChar
StartChar: overline
Encoding: 8254 8254 666
Width: 856
Flags: MW
LayerCount: 2
Fore
SplineSet
92 771 m 0
 92 787 101 813 141 813 c 2
 708 813 l 2
 755 813 762 788 762 771 c 0
 762 756 755 729 710 729 c 2
 142 729 l 2
 97 729 92 757 92 771 c 0
EndSplineSet
EndChar
StartChar: undertie
Encoding: 8255 8255 785
Width: 566
Flags: MW
LayerCount: 2
Fore
SplineSet
0 -75 m 0
 0 -56 12 -37 32 -37 c 3
 61 -37 60 -55 75 -71 c 0
 103 -101 219 -120 282 -120 c 0
 345 -120 463 -103 496 -65 c 0
 506 -52 511 -37 530 -37 c 0
 549 -37 566 -54 566 -75 c 0
 566 -151 392 -214 282 -214 c 0
 172 -214 0 -149 0 -75 c 0
EndSplineSet
EndChar
StartChar: fraction
Encoding: 8260 8260 103
Width: 550
Flags: MW
LayerCount: 2
Fore
SplineSet
60 -181 m 0
 60 -169 66 -156 68 -151 c 2
 399 703 l 2
 407 723 416 750 446 750 c 0
 467 750 487 732 487 709 c 0
 487 699 484 691 481 682 c 2
 149 -173 l 2
 142 -193 133 -222 102 -222 c 0
 82 -222 60 -206 60 -181 c 0
EndSplineSet
EndChar
StartChar: four.superior
Encoding: 8308 8308 637
Width: 489
Flags: MW
LayerCount: 2
Fore
SplineSet
27 436 m 1
 27 516 l 1
 27 512 26 511 22 507 c 1
 229 779 l 1
 388 779 l 1
 388 512 l 1
 461 512 l 1
 461 436 l 1
 388 436 l 1
 388 350 l 1
 264 350 l 1
 264 436 l 1
 27 436 l 1
128 512 m 1
 268 512 l 1
 268 687 l 1
 251 657 225 631 128 512 c 1
EndSplineSet
EndChar
StartChar: five.superior
Encoding: 8309 8309 638
Width: 489
VWidth: 950
Flags: MW
LayerCount: 2
Fore
SplineSet
30 401 m 1
 83 465 l 1
 89 459 93 453 100 447 c 0
 113 436 130 427 148 421 c 0
 166 415 188 412 212 412 c 0
 255 412 271 419 278 428 c 0
 292 443 289 465 289 487 c 1
 289 484 289 504 289 501 c 1
 291 521 295 545 283 560 c 0
 280 566 272 572 251 572 c 0
 193 572 173 527 172 527 c 1
 71 527 l 1
 71 779 l 1
 407 779 l 1
 407 702 l 1
 207 702 l 1
 207 629 l 1
 218 630 231 631 256 631 c 0
 309 631 352 626 383 610 c 0
 420 591 440 547 440 486 c 0
 440 429 420 396 389 375 c 0
 344 344 278 337 217 337 c 0
 183 337 155 341 134 346 c 0
 71 362 40 391 30 401 c 1
EndSplineSet
EndChar
StartChar: six.superior
Encoding: 8310 8310 639
Width: 489
VWidth: 950
Flags: MW
LayerCount: 2
Fore
SplineSet
40 561 m 0
 40 674 68 705 83 724 c 0
 126 772 203 792 296 792 c 0
 323 792 340 791 375 779 c 1
 375 709 l 1
 347 719 329 722 300 722 c 0
 231 722 203 699 199 692 c 0
 193 681 183 659 184 595 c 1
 193 621 216 655 284 655 c 0
 370 655 401 631 417 616 c 0
 450 585 449 543 448 503 c 1
 448 505 448 500 448 502 c 1
 448 476 454 436 431 402 c 0
 373 333 283 337 246 337 c 0
 169 337 131 356 106 372 c 0
 34 429 40 526 40 561 c 0
184 504 m 0
 184 500 184 496 184 492 c 0
 182 446 188 413 251 413 c 0
 300 413 305 431 305 462 c 0
 305 475 303 489 304 501 c 1
 304 497 304 522 304 519 c 1
 304 540 308 563 302 577 c 0
 302 585 292 597 251 597 c 0
 197 597 185 560 184 523 c 0
 184 516 184 511 184 504 c 0
EndSplineSet
EndChar
StartChar: seven.superior
Encoding: 8311 8311 640
Width: 489
Flags: MW
LayerCount: 2
Fore
SplineSet
40 691 m 1
 40 779 l 1
 448 779 l 1
 448 696 l 1
 323 590 262 467 262 343 c 1
 117 343 l 1
 117 486 211 607 376 692 c 1
 40 691 l 1
EndSplineSet
EndChar
StartChar: eight.superior
Encoding: 8312 8312 641
Width: 489
VWidth: 950
Flags: MW
LayerCount: 2
Fore
SplineSet
40 477 m 0
 40 534 70 570 139 581 c 1
 144 582 53 584 53 670 c 0
 53 729 73 792 244 792 c 1
 243 792 244 792 243 792 c 1
 418 793 435 729 435 669 c 0
 435 572 313 575 349 581 c 1
 433 565 448 525 448 477 c 0
 448 408 427 337 244 337 c 0
 61 337 40 409 40 477 c 0
184 468 m 1
 185 451 180 432 194 421 c 0
 202 415 216 411 243 411 c 0
 267 411 280 414 286 417 c 0
 317 432 304 463 305 474 c 1
 305 472 306 486 306 484 c 1
 307 508 307 528 292 540 c 0
 285 546 270 550 244 550 c 0
 213 550 201 545 194 539 c 0
 170 521 183 489 184 480 c 1
 184 482 184 466 184 468 c 1
187 660 m 1
 187 641 188 628 197 620 c 0
 204 614 218 611 243 611 c 0
 271 611 284 614 292 620 c 0
 305 631 301 647 301 661 c 1
 301 658 301 670 302 668 c 1
 305 687 306 699 301 708 c 0
 295 719 278 723 245 723 c 0
 218 723 206 720 198 716 c 0
 178 705 186 684 186 670 c 1
 186 671 187 658 187 660 c 1
EndSplineSet
EndChar
StartChar: n.superior
Encoding: 8319 8319 708
Width: 349
VWidth: 950
Flags: MW
LayerCount: 2
Fore
SplineSet
29 350 m 1
 29 645 l 1
 125 645 l 1
 125 601 l 1
 126 572 l 1
 138 604 167 648 229 648 c 0
 261 648 282 642 296 632 c 0
 321 611 322 575 321 535 c 0
 321 527 319 519 319 510 c 2
 319 350 l 1
 220 350 l 1
 220 560 l 2
 220 585 215 602 188 602 c 0
 150 602 133 563 129 540 c 2
 129 350 l 1
 29 350 l 1
EndSplineSet
EndChar
StartChar: euro
Encoding: 8364 8364 337
Width: 794
Flags: MW
LayerCount: 2
Fore
SplineSet
-0 187 m 1
 52 313 l 1
 153 313 l 1
 152 325 152 336 152 347 c 0
 152 359 152 370 153 381 c 1
 -0 381 l 1
 52 508 l 1
 191 508 l 1
 240 600 345 695 498 695 c 0
 594 695 665 658 722 608 c 1
 671 484 l 1
 619 537 550 558 499 558 c 0
 451 558 404 543 362 508 c 1
 681 508 l 1
 629 381 l 1
 291 381 l 1
 289 369 288 358 288 345 c 0
 288 333 291 320 291 313 c 1
 600 313 l 1
 548 187 l 1
 362 187 l 1
 398 159 440 137 501 137 c 0
 635 137 720 218 722 218 c 1
 722 82 l 1
 667 36 592 0 499 0 c 0
 353 0 244 86 191 187 c 1
 -0 187 l 1
EndSplineSet
EndChar
StartChar: numero
Encoding: 8470 8470 517
Width: 917
Flags: MW
LayerCount: 2
Fore
SplineSet
91 0 m 1
 91 695 l 1
 283 695 l 1
 320 546 395 125 395 125 c 1
 395 695 l 1
 518 695 l 1
 518 0 l 1
 326 0 l 1
 285 167 222 441 214 518 c 1
 214 0 l 1
 91 0 l 1
580 158 m 1
 580 231 l 1
 824 231 l 1
 824 158 l 1
 580 158 l 1
580 399 m 0
 580 502 642 528 702 528 c 0
 763 528 824 502 824 395 c 0
 824 312 778 278 700 278 c 0
 604 278 580 334 580 399 c 0
687 402 m 4
 687 362 692 356 701 356 c 0
 713 356 717 365 717 404 c 0
 717 446 714 455 702 455 c 0
 691 455 687 446 687 402 c 4
EndSplineSet
EndChar
StartChar: trademark
Encoding: 8482 8482 220
Width: 733
Flags: MW
LayerCount: 2
Fore
SplineSet
1 717 m 3
 1 725 14 750 78 750 c 2
 288 750 l 2
 330 750 368 747 368 715 c 0
 368 680 333 678 287 678 c 2
 252 678 l 1
 252 399 l 2
 252 362 212 353 184 353 c 0
 157 353 115 361 115 399 c 2
 115 678 l 1
 79 678 l 2
 0 678 1 707 1 717 c 3
359 397 m 6
 359 731 l 2
 359 768 409 773 428 773 c 0
 453 773 480 768 489 751 c 2
 549 644 l 1
 613 753 l 2
 623 770 643 773 672 773 c 0
 702 773 740 763 740 726 c 2
 740 397 l 2
 740 359 695 353 672 353 c 0
 641 353 603 364 603 400 c 2
 603 492 l 1
 599 489 582 478 550 478 c 0
 524 478 510 484 496 492 c 1
 496 399 l 2
 496 360 454 353 427 353 c 0
 402 353 359 360 359 397 c 6
EndSplineSet
EndChar
StartChar: mho
Encoding: 8487 8487 712
Width: 794
Flags: MW
LayerCount: 2
Fore
SplineSet
48 587 m 1
 48 695 l 1
 343 695 l 1
 341 521 208 400 208 230 c 0
 208 122 249 50 397 50 c 0
 547 50 584 127 584 229 c 0
 584 398 452 524 450 695 c 1
 745 695 l 1
 745 587 l 1
 666 587 l 1
 548 588 l 1
 620 447 732 366 732 230 c 0
 732 -13 494 -22 391 -22 c 0
 154 -22 60 78 60 229 c 0
 60 367 173 448 245 588 c 1
 127 587 l 1
 48 587 l 1
EndSplineSet
EndChar
StartChar: estimated
Encoding: 8494 8494 518
Width: 761
Flags: MW
LayerCount: 2
Fore
SplineSet
30 349 m 0
 30 537 103 712 394 712 c 0
 662 712 729 566 729 361 c 1
 174 361 l 1
 174 346 l 2
 174 140 270 61 414 61 c 0
 555 61 657 104 715 129 c 1
 723 38 l 1
 605 0 499 -11 414 -11 c 0
 211 -11 30 61 30 349 c 0
176 415 m 1
 592 415 l 1
 586 518 553 639 395 639 c 0
 316 639 196 610 176 415 c 1
EndSplineSet
EndChar
StartChar: aleph
Encoding: 8501 8501 778
Width: 794
Flags: W
LayerCount: 2
Fore
SplineSet
552 694 m 1
 687 694 l 1
 640 485 l 2
 616 380 582 304 534 256 c 1
 706 0 l 1
 556 0 l 1
 327 339 l 1
 315 331 304 318 295 298 c 128
 286 278 276 246 266 200 c 2
 223 0 l 1
 88 0 l 1
 135 208 l 2
 160 321 199 401 253 449 c 1
 88 694 l 1
 238 694 l 1
 460 365 l 1
 478 381 494 424 509 493 c 2
 552 694 l 1
EndSplineSet
Colour: ff
EndChar
StartChar: onethird
Encoding: 8531 8531 657
Width: 489
Flags: MW
LayerCount: 2
Fore
SplineSet
45 -141 m 1
 60 -64 l 1
 60 -64 121 -90 171 -90 c 2
 219 -90 l 0
 245 -90 265 -89 278 -82 c 0
 288 -77 294 -68 294 -52 c 0
 294 -37 288 -27 278 -21 c 4
 268 -15 253 -14 235 -14 c 2
 182 -14 l 1
 182 46 l 1
 218 49 239 49 258 66 c 0
 267 73 271 83 271 92 c 0
 271 114 254 118 232 118 c 0
 183 118 150 110 110 97 c 1
 60 162 l 1
 116 182 169 192 232 192 c 0
 360 192 411 152 411 91 c 0
 411 47 373 28 352 17 c 1
 389 10 441 -9 441 -53 c 0
 441 -71 434 -119 376 -145 c 0
 326 -168 268 -168 212 -168 c 2
 162 -168 l 2
 112 -168 45 -141 45 -141 c 1
-10 292 m 0
 -10 303 -6 312 0 319 c 0
 7 327 18 332 30 333 c 2
 56 334 l 1
 440 334 l 2
 456 334 471 333 482 326 c 0
 488 322 492 317 496 309 c 0
 498 303 499 298 499 292 c 0
 499 283 496 270 486 261 c 0
 479 255 467 250 450 250 c 2
 39 250 l 2
 22 250 11 255 4 261 c 0
 -8 271 -10 285 -10 292 c 0
77 667 m 1
 77 740 l 1
 151 740 261 754 307 773 c 9
 326 773 l 1
 326 490 l 1
 413 490 l 1
 413 417 l 1
 92 417 l 1
 92 490 l 1
 188 490 l 1
 188 672 l 1xfc
 154 669 99 667 77 667 c 1
EndSplineSet
EndChar
StartChar: onefifth
Encoding: 8533 8533 659
Width: 489
Flags: MW
LayerCount: 2
Fore
SplineSet
30 -112 m 1
 83 -60 l 1
 89 -65 93 -70 100 -75 c 0
 113 -84 130 -91 148 -96 c 0
 166 -101 188 -103 212 -103 c 0
 255 -103 271 -97 278 -90 c 0
 292 -78 289 -60 289 -43 c 1
 289 -45 289 -30 289 -32 c 1
 291 -16 295 3 283 15 c 0
 280 20 272 25 251 25 c 0
 193 25 173 -11 172 -11 c 1
 71 -11 l 1
 71 190 l 1
 407 190 l 1
 407 129 l 1
 207 129 l 1
 207 70 l 1
 218 70 231 72 256 72 c 0
 309 72 352 68 383 55 c 0
 420 40 440 5 440 -44 c 0
 440 -90 420 -116 389 -133 c 0
 344 -157 278 -163 217 -163 c 0
 183 -163 155 -160 134 -156 c 0
 71 -143 40 -120 30 -112 c 1
-10 292 m 0
 -10 303 -6 312 0 319 c 0
 7 327 18 332 30 333 c 2
 56 334 l 1
 440 334 l 2
 456 334 471 333 482 326 c 0
 488 322 492 317 496 309 c 0
 498 303 499 298 499 292 c 0
 499 283 496 270 486 261 c 0
 479 255 467 250 450 250 c 2
 39 250 l 2
 22 250 11 255 4 261 c 0
 -8 271 -10 285 -10 292 c 0
77 667 m 1
 77 740 l 1
 151 740 261 754 307 773 c 9
 326 773 l 1
 326 490 l 1
 413 490 l 1
 413 417 l 1
 92 417 l 1
 92 490 l 1
 188 490 l 1
 188 672 l 1xfc
 154 669 99 667 77 667 c 1
EndSplineSet
EndChar
